{
.appVersion = "3260";
.formatVersion = 3;
DisplayStrings = (
"🌱🌱"
);
axes = (
{
name = Weight;
tag = wght;
}
);
classes = (
{
automatic = 1;

glyphs = (
{
glyphname = A;
kernLeft = A;
kernRight = A;
lastChange = "2025-06-02 17:03:14 +0000";
layers = (
{
anchors = (
{
name = ogonek;
pos = (685,46);
},
{
name = top;
pos = (381,712);
}
);
layerId = "8C7EE80F-D163-4204-B2B9-0AE0B1A3E0A1";
shapes = (
{
closed = 1;
nodes = (
(221,0,l),
(458,700,l),
(271,700,l),
(27,0,l)
);
},
{
closed = 1;
nodes = (
(550,138,l),
(550,294,l),
(228,294,l),
(228,138,l)
);
},
{
closed = 1;
nodes = (
(733,0,l),
(490,700,l),
(318,700,l),
(543,0,l)
);
}
);
width = 760;
}
);
unicode = 65;
},
{
glyphname = AE;
kernLeft = A;
lastChange = "2025-06-02 17:03:30 +0000";
layers = (
{
anchors = (
{
name = top;
pos = (712,700);
}
);
layerId = "8C7EE80F-D163-4204-B2B9-0AE0B1A3E0A1";
shapes = (
{
closed = 1;
nodes = (
(227,0,l),
(600,700,l),
(406,700,l),
(27,0,l)
);
},
{
closed = 1;
nodes = (
(510,121,l),
(510,280,l),
(208,280,l),
(208,121,l)
);
},
{
closed = 1;
nodes = (
(1004,0,l),
(1004,159,l),
(702,159,l),
(702,281,l),
(959,281,l),
(959,440,l),
(702,440,l),
(702,541,l),
(1004,541,l),
(1004,700,l),
(516,700,l),
(516,0,l)
);
}
);
width = 1031;
}
);
metricLeft = A;
metricRight = A;
unicode = 198;
},
{
glyphname = B;
kernLeft = B;
kernRight = B;
lastChange = "2025-06-02 17:07:34 +0000";
layers = (
{
layerId = "8C7EE80F-D163-4204-B2B9-0AE0B1A3E0A1";
shapes = (
{
closed = 1;
nodes = (
(363,0,ls),
(545,0,o),
(636,80,o),
(636,206,cs),
(636,280,o),
(588,340,o),
(516,362,c),
(555,387,o),
(596,436,o),
(596,515,cs),
(596,609,o),
(517,701,o),
(355,701,cs),
(27,701,l),
(27,0,l)
);
},
{
closed = 1;
nodes = (
(220,275,l),
(220,275,o),
(340,275,o),
(340,275,cs),
(392,275,o),
(433,260,o),
(433,217,cs),
(433,159,o),
(393,149,o),
(329,149,cs),
(220,149,l)
);
},
{
closed = 1;
nodes = (
(220,552,l),
(220,552,o),
(335,552,o),
(335,552,cs),
(374,552,o),
(397,529,o),
(397,497,cs),
(397,448,o),
(376,434,o),
(336,434,cs),
(220,434,l)
);
}
);
width = 662;
}
);
metricLeft = A;
metricRight = "=O/1.5";
unicode = 66;
},
{
glyphname = C;
kernLeft = O;
lastChange = "2025-06-02 17:10:55 +0000";
layers = (
{
anchors = (
{
name = bottom;
pos = (389,-13);
},
{
name = top;
pos = (407,713);
}
);
layerId = "8C7EE80F-D163-4204-B2B9-0AE0B1A3E0A1";
shapes = (
{
closed = 1;
nodes = (
(577,-11,o),
(664,76,o),
(694,199,c),
(505,235,l),
(497,182,o),
(444,155,o),
(412,155,cs),
(309,155,o),
(249,207,o),
(249,357,cs),
(249,484,o),
(300,548,o),
(407,548,cs),
(448,548,o),
(495,507,o),
(506,467,c),
(694,502,l),
(664,625,o),
(534,713,o),
(409,713,cs),
(162,713,o),
(39,551,o),
(39,355,cs),
(39,173,o),
(128,-11,o),
(412,-11,cs)
);
}
);
width = 733;
}
);
metricLeft = O;
metricRight = O;
unicode = 67;
},
{
glyphname = D;
kernRight = O;
lastChange = "2025-06-02 17:10:55 +0000";
layers = (
{
anchors = (
{
name = bottom;
pos = (378,0);
},
{
name = top;
pos = (378,700);
}
);
layerId = "8C7EE80F-D163-4204-B2B9-0AE0B1A3E0A1";
shapes = (
{
closed = 1;
nodes = (
(370,0,ls),
(614,0,o),
(727,141,o),
(727,349,cs),
(727,560,o),
(614,700,o),
(370,700,cs),
(75,700,l),
(75,0,l)
);
},
{
closed = 1;
nodes = (
(270,541,l),
(373,541,ls),
(462,541,o),
(518,507,o),
(518,350,cs),
(518,192,o),
(462,159,o),
(373,159,cs),
(270,159,l)
);
}
);
width = 766;
}
);
metricLeft = H;
metricRight = O;
unicode = 68;
},
{
glyphname = Eth;
lastChange = "2025-06-02 12:29:07 +0000";
layers = (
{
layerId = "8C7EE80F-D163-4204-B2B9-0AE0B1A3E0A1";
shapes = (
{
alignment = -1;
pos = (89,0);
ref = D;
},
{
closed = 1;
nodes = (
(488,274,l),
(488,410,l),
(75,410,l),
(75,274,l)
);
}
);
width = 883;
}
);
metricLeft = H;
metricRight = O;
unicode = 208;
},
{
glyphname = E;
kernLeft = E;
kernRight = E;
lastChange = "2025-06-02 17:11:05 +0000";
layers = (
{
anchors = (
{
name = bottom;
pos = (343,0);
},
{
name = top;
pos = (343,700);
}
);
layerId = "8C7EE80F-D163-4204-B2B9-0AE0B1A3E0A1";
shapes = (
{
closed = 1;
nodes = (
(599,0,l),
(599,159,l),
(281,159,l),
(281,281,l),
(552,281,l),
(552,440,l),
(281,440,l),
(281,541,l),
(599,541,l),
(599,700,l),
(86,700,l),
(86,0,l)
);
}
);
width = 661;
}
);
unicode = 69;
},
{
glyphname = Eopen;
lastChange = "2025-06-02 12:29:07 +0000";
layers = (
{
anchors = (
{
name = bottom;
pos = (274,0);
},
{
name = top;
pos = (274,700);
}
);
layerId = "8C7EE80F-D163-4204-B2B9-0AE0B1A3E0A1";
shapes = (
{
closed = 1;
nodes = (
(514,-12,o),
(593,92,o),
(608,212,c),
(422,223,l),
(418,194,o),
(403,150,o),
(321,150,cs),
(254,150,o),
(234,177,o),
(234,217,cs),
(234,250,o),
(256,284,o),
(319,284,cs),
(335,284,o),
(352,286,o),
(368,286,c),
(369,447,l),
(353,447,o),
(336,446,o),
(320,446,cs),
(299,446,o),
(263,454,o),
(263,502,cs),
(263,529,o),
(296,549,o),
(318,549,cs),
(336,549,o),
(367,533,o),
(375,510,c),
(566,563,l),
(549,650,o),
(463,712,o),
(319,712,cs),
(162,712,o),
(70,633,o),
(70,530,cs),
(70,465,o),
(97,415,o),
(137,384,c),
(75,348,o),
(36,286,o),
(36,203,cs),
(36,80,o),
(150,-12,o),
(320,-12,cs)
);
}
);
width = 633;
}
);
unicode = 400;
},
{
glyphname = Schwa;
lastChange = "2025-06-02 12:29:07 +0000";
layers = (
{
anchors = (
{
name = bottom;
pos = (377,0);
},
{
name = top;
pos = (377,700);
}
);
layerId = "8C7EE80F-D163-4204-B2B9-0AE0B1A3E0A1";
shapes = (
{
closed = 1;
nodes = (
(530,-12,o),
(737,90,o),
(737,344,cs),
(737,588,o),
(532,712,o),
(374,712,cs),
(304,712,o),
(148,692,o),
(66,518,c),
(249,460,l),
(267,522,o),
(331,547,o),
(374,547,cs),
(465,547,o),
(539,503,o),
(539,341,cs),
(539,214,o),
(465,153,o),
(381,153,cs),
(302,153,o),
(242,227,o),
(242,280,c),
(576,280,l),
(575,423,l),
(36,423,l),
(36,372,l),
(36,140,o),
(170,-12,o),
(375,-12,cs)
);
}
);
width = 775;
}
);
unicode = 399;
},
{
glyphname = F;
kernLeft = E;
kernRight = F;
lastChange = "2025-06-02 12:29:07 +0000";
layers = (
{
layerId = "8C7EE80F-D163-4204-B2B9-0AE0B1A3E0A1";
shapes = (
{
closed = 1;
nodes = (
(278,0,l),
(278,280,l),
(561,280,l),
(561,439,l),
(278,439,l),
(278,541,l),
(610,541,l),
(610,700,l),
(75,700,l),
(75,0,l)
);
}
);
width = 644;
}
);
unicode = 70;
},
{
glyphname = G;
kernLeft = O;
kernRight = G;
lastChange = "2025-06-02 12:29:07 +0000";
layers = (
{
layerId = "8C7EE80F-D163-4204-B2B9-0AE0B1A3E0A1";
shapes = (
{
closed = 1;
nodes = (
(484,-12,o),
(543,13,o),
(577,81,c),
(593,113,o),
(604,96,o),
(604,83,c),
(604,51,o),
(603,0,o),
(603,0,c),
(734,0,l),
(734,387,l),
(417,387,l),
(417,239,l),
(549,239,l),
(536,177,o),
(472,155,o),
(433,155,c),
(307,155,o),
(257,207,o),
(257,357,c),
(257,484,o),
(301,548,o),
(432,548,c),
(477,548,o),
(525,507,o),
(537,467,c),
(732,502,l),
(702,625,o),
(570,711,o),
(432,711,c),
(169,711,o),
(39,551,o),
(39,355,c),
(39,177,o),
(132,-12,o),
(429,-12,c)
);
}
);
width = 791;
}
);
unicode = 71;
},
{
glyphname = H;
kernLeft = H;
kernRight = H;
lastChange = "2025-06-02 12:29:07 +0000";
layers = (
{
layerId = "8C7EE80F-D163-4204-B2B9-0AE0B1A3E0A1";
shapes = (
{
closed = 1;
nodes = (
(280,0,l),
(280,285,l),
(548,285,l),
(548,0,l),
(753,0,l),
(753,700,l),
(548,700,l),
(548,443,l),
(280,443,l),
(280,700,l),
(75,700,l),
(75,0,l)
);
}
);
width = 828;
}
);
unicode = 72;
},
{
glyphname = Hbar;
lastChange = "2025-06-02 12:29:07 +0000";
layers = (
{
layerId = "8C7EE80F-D163-4204-B2B9-0AE0B1A3E0A1";
shapes = (
{
closed = 1;
nodes = (
(350,0,l),
(350,269,l),
(594,269,l),
(594,0,l),
(780,0,l),
(780,700,l),
(594,700,l),
(594,428,l),
(350,428,l),
(350,700,l),
(164,700,l),
(164,0,l)
);
},
{
closed = 1;
nodes = (
(874,497,l),
(874,634,l),
(75,634,l),
(75,497,l)
);
}
);
width = 949;
}
);
metricLeft = H;
metricRight = H;
unicode = 294;
},
{
glyphname = I;
lastChange = "2025-06-02 12:29:07 +0000";
layers = (
{
anchors = (
{
name = bottom;
pos = (296,0);
},
{
name = top;
pos = (296,700);
}
);
layerId = "8C7EE80F-D163-4204-B2B9-0AE0B1A3E0A1";
shapes = (
{
closed = 1;
nodes = (
(516,0,l),
(516,154,l),
(398,154,l),
(398,546,l),
(516,546,l),
(516,700,l),
(75,700,l),
(75,546,l),
(194,546,l),
(194,154,l),
(75,154,l),
(75,0,l)
);
}
);
width = 564;
}
);
metricLeft = H;
metricRight = h;
unicode = 73;
},
{
glyphname = J;
lastChange = "2025-06-02 12:33:35 +0000";
layers = (
{
anchors = (
{
name = top;
pos = (496,700);
}
);
layerId = "8C7EE80F-D163-4204-B2B9-0AE0B1A3E0A1";
shapes = (
{
closed = 1;
nodes = (
(534,-12,o),
(619,98,o),
(619,265,cs),
(619,700,l),
(413,700,l),
(413,264,ls),
(413,216,o),
(390,153,o),
(327,153,cs),
(245,153,o),
(208,202,o),
(197,245,c),
(23,189,l),
(43,72,o),
(159,-12,o),
(327,-12,cs)
);
}
);
width = 682;
}
);
unicode = 74;
},
{
glyphname = K;
kernRight = K;
lastChange = "2025-06-02 13:43:37 +0000";
layers = (
{
anchors = (
{
name = bottom;
pos = (361,0);
}
);
layerId = "8C7EE80F-D163-4204-B2B9-0AE0B1A3E0A1";
shapes = (
{
closed = 1;
nodes = (
(281,0,l),
(281,213,l),
(744,700,l),
(525,700,l),
(281,438,l),
(281,700,l),
(75,700,l),
(75,0,l)
);
},
{
closed = 1;
nodes = (
(751,0,l),
(491,460,l),
(347,319,l),
(514,0,l)
);
}
);
width = 776;
}
);
unicode = 75;
},
{
glyphname = L;
lastChange = "2025-06-02 13:43:37 +0000";
layers = (
{
anchors = (
{
name = bottom;
pos = (359,0);
},
{
name = center;
pos = (394,350);
},
{
name = top;
pos = (191,700);
},
{
name = topright;
pos = (604,700);
}
);
layerId = "8C7EE80F-D163-4204-B2B9-0AE0B1A3E0A1";
shapes = (
{
closed = 1;
nodes = (
(639,0,l),
(639,159,l),
(280,159,l),
(280,700,l),
(75,700,l),
(75,0,l)
);
}
);
width = 670;
}
);
unicode = 76;
},
{
glyphname = Lslash;
lastChange = "2025-06-02 13:43:37 +0000";
layers = (
{
layerId = "8C7EE80F-D163-4204-B2B9-0AE0B1A3E0A1";
shapes = (
{
closed = 1;
nodes = (
(218,275,l),
(363,320,l),
(536,394,l),
(488,518,l),
(369,463,l),
(215,413,l),
(23,328,l),
(68,209,l)
);
},
{
alignment = -1;
pos = (94,0);
ref = L;
}
);
width = 786;
}
);
unicode = 321;
},
{
glyphname = M;
lastChange = "2025-06-02 13:43:37 +0000";
layers = (
{
layerId = "8C7EE80F-D163-4204-B2B9-0AE0B1A3E0A1";
shapes = (
{
closed = 1;
nodes = (
(306,700,l),
(75,700,l),
(75,0,l),
(281,0,l),
(281,339,l),
(407,58,l),
(589,58,l),
(706,340,l),
(706,0,l),
(912,0,l),
(912,700,l),
(683,700,l),
(494,297,l)
);
}
);
width = 987;
}
);
metricLeft = H;
metricRight = H;
unicode = 77;
},
{
glyphname = N;
lastChange = "2025-06-02 13:43:37 +0000";
layers = (
{
anchors = (
{
name = bottom;
pos = (417,0);
},
{
name = top;
pos = (413,700);
}
);
layerId = "8C7EE80F-D163-4204-B2B9-0AE0B1A3E0A1";
shapes = (
{
closed = 1;
nodes = (
(280,0,l),
(280,426,l),
(244,426,l),
(550,0,l),
(740,0,l),
(740,700,l),
(536,700,l),
(536,286,l),
(571,286,l),
(280,700,l),
(75,700,l),
(75,0,l)
);
}
);
width = 815;
}
);
metricLeft = H;
metricRight = H;
unicode = 78;
},
{
glyphname = Nhookleft;
lastChange = "2025-06-02 13:43:38 +0000";
layers = (
{
layerId = "8C7EE80F-D163-4204-B2B9-0AE0B1A3E0A1";
shapes = (
{
closed = 1;
nodes = (
(300,-230,o),
(372,-163,o),
(372,-70,c),
(372,373,l),
(612,0,l),
(796,0,l),
(796,700,l),
(610,700,l),
(610,318,l),
(370,700,l),
(185,700,l),
(185,5,l),
(185,-19,o),
(164,-46,o),
(135,-46,cs),
(122,-46,o),
(93,-45,o),
(77,-42,c),
(75,-222,l),
(92,-227,o),
(139,-230,o),
(155,-230,cs)
);
}
);
width = 871;
}
);
metricLeft = H;
metricRight = H;
unicode = 413;
},
{
glyphname = Eng;
lastChange = "2025-06-02 13:43:38 +0000";
layers = (
{
anchors = (
{
name = bottom;
pos = (394,0);
},
{
name = top;
pos = (389,700);
}
);
layerId = "8C7EE80F-D163-4204-B2B9-0AE0B1A3E0A1";
shapes = (
{
closed = 1;
nodes = (
(614,-229,o),
(686,-163,o),
(686,-70,cs),
(686,700,l),
(500,700,l),
(500,317,l),
(260,700,l),
(75,700,l),
(75,0,l),
(262,0,l),
(262,373,l),
(502,0,l),
(502,6,ls),
(502,-18,o),
(483,-45,o),
(454,-45,cs),
(441,-45,o),
(406,-44,o),
(390,-41,c),
(389,-221,l),
(406,-226,o),
(453,-229,o),
(469,-229,cs)
);
}
);
width = 761;
}
);
metricLeft = H;
metricRight = H;
unicode = 330;
},
{
glyphname = O;
kernLeft = O;
kernRight = O;
lastChange = "2025-06-02 12:29:07 +0000";
layers = (
{
anchors = (
{
name = bottom;
pos = (413,-11);
},
{
name = top;
pos = (419,713);
}
);
layerId = "8C7EE80F-D163-4204-B2B9-0AE0B1A3E0A1";
shapes = (
{
closed = 1;
nodes = (
(669,-11,o),
(795,142,o),
(795,352,cs),
(795,560,o),
(669,713,o),
(419,713,cs),
(168,713,o),
(39,560,o),
(39,352,cs),
(39,142,o),
(168,-11,o),
(419,-11,cs)
);
},
{
closed = 1;
nodes = (
(314,148,o),
(256,207,o),
(256,352,cs),
(256,498,o),
(314,554,o),
(419,554,cs),
(535,554,o),
(578,498,o),
(578,352,cs),
(578,207,o),
(535,148,o),
(419,148,cs)
);
}
);
width = 834;
}
);
unicode = 79;
},
{
glyphname = Ohorn;
kernLeft = O;
lastChange = "2025-06-02 13:43:38 +0000";
layers = (
{
layerId = "8C7EE80F-D163-4204-B2B9-0AE0B1A3E0A1";
shapes = (
{
closed = 1;
nodes = (
(743,591,o),
(836,712,o),
(779,855,c),
(640,818,l),
(669,761,o),
(673,685,o),
(583,685,cs),
(546,685,o),
(527,698,o),
(456,707,c),
(456,615,l),
(599,591,l)
);
},
{
alignment = -1;
ref = O;
}
);
width = 835;
}
);
metricLeft = O;
metricRight = O;
unicode = 416;
},
{
glyphname = Oslash;
lastChange = "2025-06-02 13:43:38 +0000";
layers = (
{
layerId = "8C7EE80F-D163-4204-B2B9-0AE0B1A3E0A1";
shapes = (
{
alignment = -1;
pos = (48,0);
ref = O;
},
{
closed = 1;
nodes = (
(131,-12,l),
(832,591,l),
(716,710,l),
(20,111,l)
);
}
);
width = 900;
}
);
unicode = 216;
},
{
glyphname = OE;
lastChange = "2025-06-02 13:43:38 +0000";
layers = (
{
anchors = (
{
name = bottom;
pos = (485,0);
},
{
name = top;
pos = (485,700);
}
);
layerId = "8C7EE80F-D163-4204-B2B9-0AE0B1A3E0A1";
shapes = (
{
closed = 1;
nodes = (
(938,0,l),
(938,159,l),
(637,159,l),
(637,281,l),
(893,281,l),
(893,440,l),
(637,440,l),
(637,541,l),
(938,541,l),
(938,700,l),
(378,700,ls),
(147,700,o),
(40,551,o),
(40,349,cs),
(40,151,o),
(147,0,o),
(378,0,cs)
);
},
{
closed = 1;
nodes = (
(305,159,o),
(238,202,o),
(238,350,cs),
(238,498,o),
(305,541,o),
(375,541,cs),
(473,541,l),
(473,159,l),
(375,159,ls)
);
}
);
width = 990;
}
);
unicode = 338;
},
{
glyphname = P;
lastChange = "2025-06-02 13:43:38 +0000";
layers = (
{
layerId = "8C7EE80F-D163-4204-B2B9-0AE0B1A3E0A1";
shapes = (
{
closed = 1;
nodes = (
(283,-2,l),
(283,216,l),
(439,216,ls),
(599,216,o),
(698,331,o),
(698,461,cs),
(698,606,o),
(589,702,o),
(441,702,cs),
(75,702,l),
(75,-2,l)
);
},
{
closed = 1;
nodes = (
(279,542,l),
(398,542,ls),
(455,542,o),
(479,499,o),
(479,464,cs),
(479,430,o),
(456,375,o),
(399,375,cs),
(279,375,l)
);
}
);
width = 731;
}
);
unicode = 80;
},
{
glyphname = Thorn;
lastChange = "2025-06-02 13:43:38 +0000";
layers = (
{
layerId = "8C7EE80F-D163-4204-B2B9-0AE0B1A3E0A1";
shapes = (
{
closed = 1;
nodes = (
(264,-2,l),
(264,116,l),
(406,116,ls),
(552,116,o),
(642,230,o),
(642,361,cs),
(642,505,o),
(543,601,o),
(408,601,cs),
(75,601,l),
(75,-2,l)
);
},
{
closed = 1;
nodes = (
(261,442,l),
(369,442,ls),
(421,442,o),
(443,399,o),
(443,364,cs),
(443,330,o),
(422,275,o),
(370,275,cs),
(261,275,l)
);
},
{
closed = 1;
nodes = (
(75,437,l),
(265,437,l),
(265,700,l),
(75,700,l)
);
}
);
width = 676;
}
);
unicode = 222;
},
{
glyphname = Q;
kernLeft = O;
kernRight = Q;
lastChange = "2025-06-02 13:43:38 +0000";
layers = (
{
layerId = "8C7EE80F-D163-4204-B2B9-0AE0B1A3E0A1";
shapes = (
{
closed = 1;
nodes = (
(659,-11,o),
(775,158,o),
(775,352,cs),
(775,544,o),
(659,713,o),
(409,713,cs),
(159,713,o),
(39,544,o),
(39,352,cs),
(39,158,o),
(159,-11,o),
(409,-11,cs)
);
},
{
closed = 1;
nodes = (
(788,-28,l),
(465,319,l),
(340,227,l),
(665,-121,l)
);
},
{
closed = 1;
nodes = (
(257,142,o),
(218,251,o),
(218,352,cs),
(218,429,o),
(244,562,o),
(409,562,cs),
(574,562,o),
(592,429,o),
(592,352,cs),
(592,251,o),
(574,142,o),
(409,142,cs)
);
}
);
width = 824;
}
);
unicode = 81;
},
{
glyphname = R;
lastChange = "2025-06-02 13:43:38 +0000";
layers = (
{
anchors = (
{
name = bottom;
pos = (336,0);
},
{
name = top;
pos = (344,700);
}
);
layerId = "8C7EE80F-D163-4204-B2B9-0AE0B1A3E0A1";
shapes = (
{
closed = 1;
nodes = (
(282,-2,l),
(282,228,l),
(450,228,ls),
(610,228,o),
(705,316,o),
(705,469,cs),
(705,617,o),
(596,702,o),
(443,702,cs),
(75,702,l),
(75,-2,l)
);
},
{
closed = 1;
nodes = (
(766,0,l),
(573,265,l),
(343,256,l),
(521,0,l)
);
},
{
closed = 1;
nodes = (
(279,543,l),
(402,543,ls),
(462,543,o),
(487,504,o),
(487,472,cs),
(487,404,o),
(463,387,o),
(402,387,cs),
(279,387,l)
);
}
);
width = 786;
}
);
unicode = 82;
},
{
glyphname = S;
lastChange = "2025-06-02 13:43:38 +0000";
layers = (
{
anchors = (
{
name = bottom;
pos = (348,-1);
},
{
name = top;
pos = (351,712);
}
);
layerId = "8C7EE80F-D163-4204-B2B9-0AE0B1A3E0A1";
shapes = (
{
closed = 1;
nodes = (
(537,-12,o),
(649,66,o),
(649,203,cs),
(649,465,o),
(275,413,o),
(275,502,cs),
(275,555,o),
(337,547,o),
(358,547,cs),
(388,547,o),
(421,542,o),
(430,500,c),
(645,500,l),
(639,590,o),
(568,712,o),
(353,712,cs),
(146,712,o),
(59,599,o),
(59,497,cs),
(59,224,o),
(432,316,o),
(432,186,cs),
(432,158,o),
(392,153,o),
(349,153,cs),
(320,153,o),
(265,160,o),
(250,227,c),
(32,227,l),
(46,112,o),
(119,-12,o),
(349,-12,cs)
);
}
);
width = 689;
}
);
unicode = 83;
},
{
glyphname = Germandbls;
lastChange = "2025-06-02 13:43:38 +0000";
layers = (
{
layerId = "8C7EE80F-D163-4204-B2B9-0AE0B1A3E0A1";
shapes = (
{
closed = 1;
nodes = (
(262,0,l),
(262,700,l),
(75,700,l),
(75,0,l)
);
},
{
closed = 1;
nodes = (
(294,91,l),
(334,16,o),
(418,-14,o),
(502,-14,cs),
(685,-14,o),
(739,103,o),
(740,224,cs),
(740,340,o),
(647,426,o),
(571,426,c),
(696,544,l),
(696,700,l),
(167,700,l),
(167,541,l),
(492,541,l),
(370,424,l),
(370,294,l),
(450,294,ls),
(501,294,o),
(556,281,o),
(556,225,cs),
(556,176,o),
(524,152,o),
(496,152,cs),
(476,152,o),
(452,157,o),
(438,185,c)
);
}
);
width = 777;
}
);
unicode = 7838;
},
{
glyphname = T;
kernLeft = T;
kernRight = T;
lastChange = "2025-06-02 13:43:38 +0000";
layers = (
{
anchors = (
{
name = bottom;
pos = (333,0);
},
{
name = top;
pos = (327,700);
}
);
layerId = "8C7EE80F-D163-4204-B2B9-0AE0B1A3E0A1";
shapes = (
{
closed = 1;
nodes = (
(429,0,l),
(429,541,l),
(629,541,l),
(629,700,l),
(31,700,l),
(31,541,l),
(224,541,l),
(224,0,l)
);
}
);
width = 660;
}
);
unicode = 84;
},
{
glyphname = U;
lastChange = "2025-06-02 13:43:38 +0000";
layers = (
{
anchors = (
{
name = bottom;
pos = (392,-12);
},
{
name = top;
pos = (392,692);
}
);
layerId = "8C7EE80F-D163-4204-B2B9-0AE0B1A3E0A1";
shapes = (
{
closed = 1;
nodes = (
(597,-12,o),
(713,99,o),
(713,275,cs),
(713,701,l),
(507,701,l),
(507,275,ls),
(507,215,o),
(475,152,o),
(387,152,cs),
(292,152,o),
(266,215,o),
(266,275,cs),
(266,701,l),
(61,701,l),
(61,275,ls),
(61,99,o),
(191,-12,o),
(391,-12,cs)
);
}
);
width = 774;
}
);
unicode = 85;
},
{
glyphname = Uhorn;
kernLeft = U;
kernRight = Uhorn;
lastChange = "2025-06-02 13:43:38 +0000";
layers = (
{
layerId = "8C7EE80F-D163-4204-B2B9-0AE0B1A3E0A1";
shapes = (
{
alignment = -1;
ref = U;
},
{
closed = 1;
nodes = (
(795,603,o),
(893,728,o),
(836,871,c),
(697,834,l),
(726,778,o),
(733,701,o),
(647,701,c),
(647,603,l)
);
}
);
width = 860;
}
);
unicode = 431;
},
{
glyphname = V;
kernLeft = V;
kernRight = V;
lastChange = "2025-06-02 13:43:38 +0000";
layers = (
{
layerId = "8C7EE80F-D163-4204-B2B9-0AE0B1A3E0A1";
shapes = (
{
closed = 1;
nodes = (
(292,0,l),
(504,0,l),
(242,700,l),
(23,700,l)
);
},
{
closed = 1;
nodes = (
(344,0,l),
(539,0,l),
(806,700,l),
(590,700,l)
);
}
);
width = 829;
}
);
unicode = 86;
},
{
glyphname = W;
kernLeft = V;
kernRight = V;
lastChange = "2025-06-02 13:43:38 +0000";
layers = (
{
anchors = (
{
name = bottom;
pos = (569,0);
},
{
name = top;
pos = (566,700);
}
);
layerId = "8C7EE80F-D163-4204-B2B9-0AE0B1A3E0A1";
shapes = (
{
closed = 1;
nodes = (
(446,0,l),
(589,533,l),
(541,533,l),
(687,0,l),
(908,0,l),
(1106,700,l),
(884,700,l),
(757,173,l),
(812,173,l),
(675,700,l),
(453,700,l),
(320,173,l),
(372,173,l),
(245,700,l),
(25,700,l),
(225,0,l)
);
}
);
width = 1131;
}
);
unicode = 87;
},
{
glyphname = X;
lastChange = "2025-06-02 13:43:38 +0000";
layers = (
{
layerId = "8C7EE80F-D163-4204-B2B9-0AE0B1A3E0A1";
shapes = (
{
closed = 1;
nodes = (
(771,0,l),
(246,700,l),
(25,700,l),
(552,0,l)
);
},
{
closed = 1;
nodes = (
(252,0,l),
(778,700,l),
(557,700,l),
(32,0,l)
);
}
);
width = 802;
}
);
unicode = 88;
},
{
glyphname = Y;
lastChange = "2025-06-02 13:43:38 +0000";
layers = (
{
anchors = (
{
name = bottom;
pos = (402,0);
},
{
name = top;
pos = (400,700);
}
);
layerId = "8C7EE80F-D163-4204-B2B9-0AE0B1A3E0A1";
shapes = (
{
closed = 1;
nodes = (
(503,0,l),
(500,286,l),
(782,700,l),
(559,700,l),
(400,438,l),
(244,700,l),
(20,700,l),
(301,286,l),
(298,0,l)
);
}
);
width = 802;
}
);
unicode = 89;
},
{
glyphname = Z;
lastChange = "2025-06-02 13:43:39 +0000";
layers = (
{
anchors = (
{
name = bottom;
pos = (327,0);
},
{
name = top;
pos = (327,700);
}
);
layerId = "8C7EE80F-D163-4204-B2B9-0AE0B1A3E0A1";
shapes = (
{
closed = 1;
nodes = (
(613,1,l),
(613,160,l),
(287,160,l),
(613,549,l),
(613,700,l),
(49,700,l),
(49,541,l),
(378,541,l),
(49,152,l),
(49,1,l)
);
}
);
width = 661;
}
);
unicode = 90;
},
{
glyphname = a;
kernLeft = a2;
kernRight = a2;
lastChange = "2025-06-02 12:23:06 +0000";
layers = (
{
layerId = "8C7EE80F-D163-4204-B2B9-0AE0B1A3E0A1";
shapes = (
{
closed = 1;
nodes = (
(335,-12,o),
(400,58,o),
(400,94,cs),
(399,107,o),
(415,108,o),
(416,95,cs),
(416,41,o),
(441,0,o),
(540,0,cs),
(572,0,o),
(634,7,o),
(649,15,c),
(649,155,l),
(593,145,o),
(582,158,o),
(582,195,cs),
(582,344,ls),
(582,453,o),
(491,519,o),
(317,519,cs),
(170,519,o),
(60,449,o),
(39,372,cs),
(31,344,o),
(31,320,o),
(31,320,c),
(209,320,l),
(222,357,o),
(229,396,o),
(305,396,cs),
(370,396,o),
(397,361,o),
(397,300,c),
(357,300,ls),
(199,300,o),
(31,275,o),
(31,147,cs),
(31,54,o),
(74,-12,o),
(219,-12,cs)
);
},
{
closed = 1;
nodes = (
(282,117,o),
(229,120,o),
(229,159,cs),
(229,188,o),
(241,205,o),
(396,205,c),
(396,193,ls),
(396,123,o),
(351,117,o),
(284,117,cs)
);
}
);
vertWidth = 955;
width = 670;
}
);
unicode = 97;
},
{
glyphname = ae;
kernLeft = o;
kernRight = e;
lastChange = "2025-06-02 13:43:39 +0000";
layers = (
{
anchors = (
{
name = top;
pos = (455,525);
}
);
layerId = "8C7EE80F-D163-4204-B2B9-0AE0B1A3E0A1";
shapes = (
{
closed = 1;
nodes = (
(695,-13,o),
(808,3,o),
(868,131,c),
(699,185,l),
(680,149,o),
(637,139,o),
(632,139,cs),
(563,139,o),
(527,180,o),
(527,262,cs),
(527,319,o),
(562,373,o),
(626,373,cs),
(674,373,o),
(707,333,o),
(707,313,c),
(480,313,l),
(481,213,l),
(890,213,l),
(890,239,l),
(890,412,o),
(794,525,o),
(630,525,cs),
(502,525,o),
(376,449,o),
(376,260,cs),
(376,78,o),
(501,-13,o),
(631,-13,cs)
);
},
{
closed = 1;
nodes = (
(516,-12,o),
(461,233,o),
(461,184,c),
(490,190,l),
(490,343,ls),
(490,453,o),
(441,525,o),
(282,525,cs),
(147,525,o),
(67,454,o),
(48,382,c),
(179,330,l),
(190,367,o),
(219,390,o),
(270,390,cs),
(329,390,o),
(352,352,o),
(354,314,cs),
(354,324,l),
(145,324,o),
(22,278,o),
(22,148,cs),
(22,54,o),
(90,-12,o),
(222,-12,cs)
);
},
{
closed = 1;
nodes = (
(249,117,o),
(201,120,o),
(201,159,cs),
(201,188,o),
(216,213,o),
(354,213,c),
(354,197,ls),
(354,127,o),
(312,117,o),
(251,117,cs)
);
}
);
width = 938;
}
);
metricRight = n;
unicode = 230;
},
{
glyphname = b;
kernRight = o;
lastChange = "2025-06-02 13:43:39 +0000";
layers = (
{
layerId = "8C7EE80F-D163-4204-B2B9-0AE0B1A3E0A1";
shapes = (
{
closed = 1;
nodes = (
(602,-12,o),
(670,91,o),
(670,258,cs),
(670,424,o),
(583,525,o),
(436,525,cs),
(342,525,o),
(290,486,o),
(258,437,c),
(258,700,l),
(61,700,l),
(59,0,l),
(258,0,l),
(258,92,ls),
(258,108,o),
(275,107,o),
(275,92,cs),
(275,39,o),
(358,-12,o),
(460,-12,cs)
);
},
{
closed = 1;
nodes = (
(296,125,o),
(258,191,o),
(258,258,cs),
(258,339,o),
(296,390,o),
(357,392,cs),
(419,393,o),
(463,344,o),
(463,259,cs),
(463,187,o),
(414,125,o),
(356,125,cs)
);
}
);
width = 696;
}
);
metricLeft = n;
metricRight = o;
unicode = 98;
},
{
glyphname = c;
kernLeft = o;
kernRight = c;
lastChange = "2025-06-02 13:43:39 +0000";
layers = (
{
layerId = "8C7EE80F-D163-4204-B2B9-0AE0B1A3E0A1";
shapes = (
{
closed = 1;
nodes = (
(434,-12,o),
(546,44,o),
(577,131,cs),
(586,159,o),
(589,190,o),
(589,190,c),
(417,188,l),
(410,169,o),
(375,141,o),
(337,141,cs),
(279,141,o),
(232,181,o),
(232,258,cs),
(232,335,o),
(280,373,o),
(337,373,cs),
(375,373,o),
(408,344,o),
(416,323,c),
(586,323,l),
(586,323,o),
(590,349,o),
(576,381,cs),
(532,477,o),
(444,525,o),
(345,525,cs),
(140,525,o),
(26,418,o),
(26,257,cs),
(26,95,o),
(140,-12,o),
(345,-12,cs)
);
}
);
width = 613;
}
);
unicode = 99;
},
{
glyphname = d;
kernLeft = o;
lastChange = "2025-06-02 13:43:39 +0000";
layers = (
{
layerId = "8C7EE80F-D163-4204-B2B9-0AE0B1A3E0A1";
shapes = (
{
closed = 1;
nodes = (
(337,-12,o),
(420,39,o),
(420,92,cs),
(420,107,o),
(436,108,o),
(436,92,cs),
(436,0,l),
(686,0,l),
(686,179,l),
(635,179,o),
(635,123,o),
(635,179,cs),
(633,700,l),
(436,700,l),
(436,437,l),
(405,486,o),
(353,525,o),
(258,525,cs),
(112,525,o),
(25,424,o),
(25,258,cs),
(25,91,o),
(93,-12,o),
(235,-12,cs)
);
},
{
closed = 1;
nodes = (
(280,125,o),
(232,187,o),
(232,259,cs),
(232,344,o),
(276,393,o),
(337,392,cs),
(399,390,o),
(436,339,o),
(436,258,cs),
(436,191,o),
(399,125,o),
(339,125,cs)
);
}
);
width = 715;
}
);
metricLeft = o;
unicode = 100;
},
{
glyphname = dcaron;
kernLeft = o;
lastChange = "2025-06-02 13:43:39 +0000";
layers = (
{
layerId = "8C7EE80F-D163-4204-B2B9-0AE0B1A3E0A1";
shapes = (
{
alignment = -1;
ref = d;
},
{
closed = 1;
nodes = (
(861,700,l),
(715,700,l),
(692,506,l),
(805,506,l)
);
}
);
width = 909;
}
);
metricLeft = o;
metricRight = h;
unicode = 271;
},
{
glyphname = dcroat;
kernLeft = o;
lastChange = "2025-06-02 13:43:39 +0000";
layers = (
{
layerId = "8C7EE80F-D163-4204-B2B9-0AE0B1A3E0A1";
shapes = (
{
alignment = -1;
ref = d;
},
{
closed = 1;
nodes = (
(293,527,l),
(667,527,l),
(667,650,l),
(293,650,l)
);
}
);
width = 746;
}
);
metricLeft = o;
unicode = 273;
},
{
glyphname = eth;
kernLeft = o;
kernRight = o;
lastChange = "2025-06-02 13:43:39 +0000";
layers = (
{
anchors = (
{
name = bottom;
pos = (297,0);
},
{
name = top;
pos = (297,720);
}
);
layerId = "8C7EE80F-D163-4204-B2B9-0AE0B1A3E0A1";
shapes = (
{
closed = 1;
nodes = (
(462,-12,o),
(569,138,o),
(569,319,cs),
(569,550,o),
(414,698,o),
(220,758,c),
(159,645,l),
(188,641,o),
(353,594,o),
(411,444,c),
(395,468,o),
(333,504,o),
(273,504,cs),
(148,504,o),
(25,428,o),
(25,246,cs),
(25,78,o),
(163,-12,o),
(297,-12,cs)
);
},
{
closed = 1;
nodes = (
(239,142,o),
(207,184,o),
(207,246,cs),
(207,304,o),
(240,350,o),
(292,350,cs),
(362,350,o),
(383,304,o),
(383,246,cs),
(383,184,o),
(358,142,o),
(292,142,cs)
);
},
{
closed = 1;
nodes = (
(514,656,l),
(465,740,l),
(169,592,l),
(215,509,l)
);
}
);
width = 601;
}
);
metricLeft = o;
unicode = 240;
},
{
glyphname = e;
kernLeft = o;
kernRight = o;
lastChange = "2025-06-02 13:43:39 +0000";
layers = (
{
anchors = (
{
name = bottom;
pos = (319,-13);
},
{
name = top;
pos = (319,525);
}
);
layerId = "8C7EE80F-D163-4204-B2B9-0AE0B1A3E0A1";
shapes = (
{
closed = 1;
nodes = (
(383,-13,o),
(506,13,o),
(572,141,c),
(418,195,l),
(397,159,o),
(360,139,o),
(314,139,cs),
(237,139,o),
(198,190,o),
(198,272,cs),
(198,329,o),
(236,373,o),
(306,373,cs),
(359,373,o),
(396,335,o),
(396,313,c),
(146,313,l),
(148,213,l),
(598,213,l),
(598,249,ls),
(598,422,o),
(491,525,o),
(311,525,cs),
(171,525,o),
(25,451,o),
(25,249,cs),
(25,59,o),
(169,-13,o),
(313,-13,cs)
);
}
);
width = 624;
}
);
metricLeft = o;
metricRight = o;
unicode = 101;
},
{
glyphname = eogonek;
kernLeft = o;
lastChange = "2025-06-02 13:43:39 +0000";
layers = (
{
layerId = "8C7EE80F-D163-4204-B2B9-0AE0B1A3E0A1";
shapes = (
{
alignment = -1;
ref = e;
},
{
closed = 1;
nodes = (
(503,-203,o),
(545,-181,o),
(570,-157,c),
(523,-72,l),
(486,-107,o),
(442,-78,o),
(442,-32,cs),
(442,-17,o),
(444,15,o),
(492,61,c),
(470,103,l),
(358,50,o),
(320,6,o),
(319,-84,cs),
(317,-154,o),
(381,-203,o),
(445,-203,cs)
);
}
);
width = 624;
}
);
metricLeft = o;
metricRight = o;
unicode = 281;
},
{
glyphname = eopen;
kernLeft = o;
lastChange = "2025-06-02 13:43:39 +0000";
layers = (
{
layerId = "8C7EE80F-D163-4204-B2B9-0AE0B1A3E0A1";
shapes = (
{
closed = 1;
nodes = (
(386,192,l),
(376,174,o),
(361,140,o),
(293,140,cs),
(232,140,o),
(213,155,o),
(213,177,cs),
(213,208,o),
(233,210,o),
(284,210,cs),
(284,210,o),
(333,210,o),
(333,210,c),
(334,312,l),
(285,312,l),
(269,312,o),
(240,318,o),
(240,343,cs),
(240,365,o),
(257,373,o),
(285,373,cs),
(328,373,o),
(340,352,o),
(342,337,c),
(498,411,l),
(482,477,o),
(391,525,o),
(280,525,cs),
(139,525,o),
(56,464,o),
(56,382,cs),
(56,328,o),
(91,281,o),
(133,268,c),
(52,241,o),
(25,217,o),
(25,154,cs),
(25,49,o),
(132,-12,o),
(292,-12,cs),
(447,-12,o),
(515,66,o),
(541,158,c)
);
}
);
width = 567;
}
);
metricLeft = o;
metricRight = o;
unicode = 603;
},
{
glyphname = f;
lastChange = "2025-06-02 13:43:39 +0000";
layers = (
{
layerId = "8C7EE80F-D163-4204-B2B9-0AE0B1A3E0A1";
shapes = (
{
closed = 1;
nodes = (
(319,0,l),
(319,361,l),
(427,361,l),
(427,513,l),
(319,513,l),
(319,518,ls),
(319,540,o),
(327,574,o),
(378,574,cs),
(392,574,o),
(403,573,o),
(419,570,c),
(421,712,l),
(404,717,o),
(366,720,o),
(317,720,cs),
(240,720,o),
(135,696,o),
(132,576,cs),
(130,513,l),
(21,513,l),
(21,361,l),
(130,361,l),
(130,0,l)
);
}
);
width = 448;
}
);
unicode = 102;
},
{
glyphname = g;
kernLeft = g;
lastChange = "2025-06-02 13:43:39 +0000";
layers = (
{
layerId = "8C7EE80F-D163-4204-B2B9-0AE0B1A3E0A1";
shapes = (
{
closed = 1;
nodes = (
(440,-9,ls),
(440,-69,o),
(381,-99,o),
(304,-99,cs),
(240,-99,o),
(180,-54,o),
(155,-6,c),
(8,-97,l),
(44,-177,o),
(155,-241,o),
(299,-241,cs),
(532,-240,o),
(630,-124,o),
(630,-9,cs),
(631,513,l),
(445,513,l),
(445,421,ls),
(445,406,o),
(433,403,o),
(428,423,cs),
(417,478,o),
(347,525,o),
(257,525,cs),
(112,525,o),
(31,432,o),
(31,255,cs),
(31,89,o),
(123,-12,o),
(269,-12,cs),
(371,-12,o),
(412,24,o),
(440,69,c)
);
},
{
closed = 1;
nodes = (
(282,120,o),
(238,168,o),
(238,254,cs),
(238,325,o),
(286,388,o),
(344,388,cs),
(405,388,o),
(442,322,o),
(441,255,cs),
(442,173,o),
(399,123,o),
(343,121,cs)
);
}
);
width = 691;
}
);
unicode = 103;
},
{
glyphname = h;
kernLeft = n;
kernRight = n;
lastChange = "2025-06-02 12:29:07 +0000";
layers = (
{
layerId = "8C7EE80F-D163-4204-B2B9-0AE0B1A3E0A1";
shapes = (
{
closed = 1;
nodes = (
(257,0,l),
(257,221,ls),
(257,336,o),
(274,385,o),
(358,385,cs),
(409,385,o),
(425,349,o),
(425,286,cs),
(425,0,l),
(623,0,l),
(623,309,ls),
(623,429,o),
(571,525,o),
(400,525,cs),
(355,525,o),
(288,504,o),
(257,447,c),
(257,700,l),
(59,700,l),
(59,0,l)
);
}
);
width = 671;
}
);
metricLeft = n;
metricRight = n;
unicode = 104;
},
{
glyphname = hbar;
kernLeft = n;
kernRight = n;
lastChange = "2025-06-02 13:43:39 +0000";
layers = (
{
layerId = "8C7EE80F-D163-4204-B2B9-0AE0B1A3E0A1";
shapes = (
{
alignment = -1;
pos = (71,0);
ref = h;
},
{
closed = 1;
nodes = (
(59,527,l),
(433,527,l),
(433,650,l),
(59,650,l)
);
}
);
width = 742;
}
);
metricLeft = n;
metricRight = n;
unicode = 295;
},
{
glyphname = i;
kernLeft = i;
kernRight = i;
lastChange = "2025-06-02 13:43:39 +0000";
layers = (
{
layerId = "8C7EE80F-D163-4204-B2B9-0AE0B1A3E0A1";
shapes = (
{
closed = 1;
nodes = (
(223,542,o),
(271,590,o),
(271,647,cs),
(271,703,o),
(223,751,o),
(157,751,cs),
(98,751,o),
(45,703,o),
(45,647,cs),
(45,590,o),
(98,542,o),
(157,542,cs)
);
},
{
closed = 1;
nodes = (
(256,0,l),
(256,513,l),
(59,513,l),
(59,0,l)
);
}
);
width = 315;
}
);
unicode = 105;
},
{
glyphname = idotless;
lastChange = "2025-06-02 13:43:39 +0000";
layers = (
{
anchors = (
{
name = bottom;
pos = (149,0);
},
{
name = top;
pos = (147,513);
}
);
layerId = "8C7EE80F-D163-4204-B2B9-0AE0B1A3E0A1";
shapes = (
{
closed = 1;
nodes = (
(238,0,l),
(238,513,l),
(59,513,l),
(59,0,l)
);
}
);
width = 297;
}
);
metricLeft = n;
unicode = 305;
},
{
glyphname = j;
lastChange = "2025-06-02 13:43:39 +0000";
layers = (
{
layerId = "8C7EE80F-D163-4204-B2B9-0AE0B1A3E0A1";
shapes = (
{
closed = 1;
nodes = (
(178,-229,o),
(257,-163,o),
(257,-70,cs),
(258,513,l),
(60,513,l),
(61,6,ls),
(61,-18,o),
(40,-45,o),
(8,-45,cs),
(-6,-45,o),
(-50,-44,o),
(-67,-41,c),
(-70,-221,l),
(-51,-226,o),
(1,-229,o),
(18,-229,cs)
);
},
{
closed = 1;
nodes = (
(226,542,o),
(275,590,o),
(275,647,cs),
(275,703,o),
(226,751,o),
(161,751,cs),
(101,751,o),
(48,703,o),
(48,647,cs),
(48,590,o),
(101,542,o),
(161,542,cs)
);
}
);
width = 318;
}
);
unicode = 106;
},
{
glyphname = jdotless;
lastChange = "2025-06-02 13:43:39 +0000";
layers = (
{
anchors = (
{
name = top;
pos = (150,513);
}
);
layerId = "8C7EE80F-D163-4204-B2B9-0AE0B1A3E0A1";
shapes = (
{
closed = 1;
nodes = (
(166,-229,o),
(238,-163,o),
(238,-70,cs),
(239,513,l),
(59,513,l),
(60,6,ls),
(60,-18,o),
(41,-45,o),
(12,-45,cs),
(-1,-45,o),
(-41,-44,o),
(-57,-41,c),
(-59,-221,l),
(-42,-226,o),
(5,-229,o),
(21,-229,cs)
);
}
);
width = 299;
}
);
unicode = 567;
},
{
glyphname = k;
lastChange = "2025-06-02 13:43:39 +0000";
layers = (
{
anchors = (
{
name = bottom;
pos = (354,0);
}
);
layerId = "8C7EE80F-D163-4204-B2B9-0AE0B1A3E0A1";
shapes = (
{
closed = 1;
nodes = (
(357,218,l),
(384,226,l),
(665,513,l),
(413,513,l),
(85,205,l),
(216,107,l)
);
},
{
closed = 1;
nodes = (
(257,0,l),
(257,719,l),
(59,717,l),
(59,-2,l)
);
},
{
closed = 1;
nodes = (
(686,0,l),
(431,366,l),
(252,280,l),
(449,0,l)
);
}
);
width = 696;
}
);
metricLeft = n;
unicode = 107;
},
{
glyphname = l;
lastChange = "2025-06-02 13:43:39 +0000";
layers = (
{
anchors = (
{
name = bottom;
pos = (158,0);
},
{
name = top;
pos = (160,700);
}
);
layerId = "8C7EE80F-D163-4204-B2B9-0AE0B1A3E0A1";
shapes = (
{
closed = 1;
nodes = (
(257,0,l),
(257,700,l),
(59,700,l),
(59,0,l)
);
}
);
width = 317;
}
);
metricLeft = n;
unicode = 108;
},
{
glyphname = lcaron;
lastChange = "2025-06-02 13:43:39 +0000";
layers = (
{
layerId = "8C7EE80F-D163-4204-B2B9-0AE0B1A3E0A1";
shapes = (
{
alignment = -1;
ref = l;
},
{
closed = 1;
nodes = (
(498,700,l),
(352,700,l),
(329,506,l),
(443,506,l)
);
}
);
width = 546;
}
);
metricLeft = n;
metricRight = h;
unicode = 318;
},
{
glyphname = ldot;
lastChange = "2025-06-02 13:43:39 +0000";
layers = (
{
layerId = "8C7EE80F-D163-4204-B2B9-0AE0B1A3E0A1";
shapes = (
{
alignment = -1;
ref = l;
},
{
closed = 1;
nodes = (
(477,244,o),
(527,292,o),
(527,353,cs),
(527,411,o),
(477,457,o),
(418,457,cs),
(359,457,o),
(310,411,o),
(310,353,cs),
(310,292,o),
(359,244,o),
(418,244,cs)
);
}
);
width = 542;
}
);
metricLeft = n;
unicode = 320;
},
{
glyphname = lslash;
lastChange = "2025-06-02 13:43:39 +0000";
layers = (
{
layerId = "8C7EE80F-D163-4204-B2B9-0AE0B1A3E0A1";
shapes = (
{
alignment = -1;
pos = (135,0);
ref = l;
},
{
closed = 1;
nodes = (
(541,438,l),
(456,543,l),
(59,274,l),
(143,166,l)
);
}
);
width = 548;
}
);
metricLeft = n;
unicode = 322;
},
{
glyphname = m;
kernLeft = m;
kernRight = m;
lastChange = "2025-06-02 13:43:39 +0000";
layers = (
{
layerId = "8C7EE80F-D163-4204-B2B9-0AE0B1A3E0A1";
shapes = (
{
closed = 1;
nodes = (
(257,0,l),
(257,221,ls),
(257,336,o),
(280,385,o),
(364,385,cs),
(417,385,o),
(433,354,o),
(433,286,cs),
(433,0,l),
(631,0,l),
(631,309,ls),
(631,429,o),
(571,525,o),
(408,525,cs),
(331,525,o),
(289,470,o),
(275,421,cs),
(269,401,o),
(257,408,o),
(257,421,cs),
(257,513,l),
(59,513,l),
(59,0,l)
);
},
{
closed = 1;
nodes = (
(1005,0,l),
(1005,309,ls),
(1005,429,o),
(945,525,o),
(783,525,cs),
(744,525,o),
(653,538,o),
(610,422,c),
(631,221,l),
(631,334,o),
(654,385,o),
(738,385,cs),
(791,385,o),
(808,354,o),
(808,286,cs),
(808,0,l)
);
}
);
width = 1053;
}
);
metricLeft = n;
metricRight = n;
unicode = 109;
},
{
glyphname = n;
kernLeft = n;
kernRight = n;
lastChange = "2025-06-01 22:36:02 +0000";
layers = (
{
anchors = (
{
name = bottom;
pos = (324,0);
},
{
name = top;
pos = (332,525);
}
);
layerId = "8C7EE80F-D163-4204-B2B9-0AE0B1A3E0A1";
shapes = (
{
closed = 1;
nodes = (
(257,0,l),
(257,221,ls),
(257,336,o),
(280,385,o),
(364,385,cs),
(417,385,o),
(433,354,o),
(433,286,cs),
(433,0,l),
(631,0,l),
(631,309,ls),
(631,429,o),
(571,525,o),
(408,525,cs),
(331,525,o),
(289,470,o),
(275,421,cs),
(269,401,o),
(257,408,o),
(257,421,cs),
(257,513,l),
(59,513,l),
(59,0,l)
);
}
);
width = 679;
}
);
unicode = 110;
},
{
glyphname = nhookleft;
kernLeft = n;
kernRight = n;
lastChange = "2025-06-02 13:43:39 +0000";
layers = (
{
layerId = "8C7EE80F-D163-4204-B2B9-0AE0B1A3E0A1";
shapes = (
{
alignment = -1;
pos = (32,0);
ref = n;
},
{
closed = 1;
nodes = (
(231,-181,o),
(303,-112,o),
(303,-19,cs),
(303,78,l),
(124,78,l),
(124,56,ls),
(124,32,o),
(105,4,o),
(77,4,cs),
(64,4,o),
(23,5,o),
(7,8,c),
(6,-173,l),
(23,-178,o),
(70,-181,o),
(86,-181,cs)
);
}
);
width = 711;
}
);
unicode = 626;
},
{
glyphname = nhookretroflex;
kernLeft = n;
kernRight = n;
lastChange = "2025-06-02 13:43:39 +0000";
layers = (
{
layerId = "8C7EE80F-D163-4204-B2B9-0AE0B1A3E0A1";
shapes = (
{
alignment = -1;
ref = n;
},
{
closed = 1;
nodes = (
(682,-181,o),
(729,-178,o),
(746,-173,c),
(744,8,l),
(728,5,o),
(688,4,o),
(675,4,cs),
(646,4,o),
(628,31,o),
(628,55,cs),
(628,53,l),
(448,53,l),
(448,-11,ls),
(448,-104,o),
(521,-181,o),
(666,-181,cs)
);
}
);
width = 751;
}
);
unicode = 627;
},
{
glyphname = eng;
kernLeft = n;
kernRight = n;
lastChange = "2025-06-02 13:43:39 +0000";
layers = (
{
layerId = "8C7EE80F-D163-4204-B2B9-0AE0B1A3E0A1";
shapes = (
{
alignment = -1;
ref = n;
},
{
closed = 1;
nodes = (
(561,-181,o),
(631,-112,o),
(632,-19,cs),
(634,67,l),
(454,67,l),
(454,55,ls),
(454,31,o),
(436,4,o),
(407,4,cs),
(394,4,o),
(353,5,o),
(337,8,c),
(336,-173,l),
(353,-178,o),
(400,-181,o),
(416,-181,cs)
);
}
);
width = 680;
}
);
unicode = 331;
},
{
glyphname = o;
kernLeft = "55";
kernRight = "55";
lastChange = "2025-06-02 13:43:39 +0000";
layers = (
{
anchors = (
{
name = bottom;
pos = (312,-12);
},
{
name = top;
pos = (312,525);
}
);
layerId = "8C7EE80F-D163-4204-B2B9-0AE0B1A3E0A1";
shapes = (
{
closed = 1;
nodes = (
(491,-12,o),
(656,65,o),
(656,256,cs),
(656,451,o),
(499,525,o),
(342,525,cs),
(197,525,o),
(25,451,o),
(25,256,cs),
(25,65,o),
(186,-12,o),
(342,-12,cs)
);
},
{
closed = 1;
nodes = (
(273,140,o),
(233,184,o),
(233,256,cs),
(233,325,o),
(274,373,o),
(342,373,cs),
(419,373,o),
(448,325,o),
(448,256,cs),
(448,184,o),
(417,140,o),
(342,140,cs)
);
}
);
vertOrigin = 171;
vertWidth = 632;
width = 682;
}
);
unicode = 111;
},
{
glyphname = ohorn;
kernLeft = o;
kernRight = ohorn;
lastChange = "2025-06-02 13:43:40 +0000";
layers = (
{
layerId = "8C7EE80F-D163-4204-B2B9-0AE0B1A3E0A1";
shapes = (
{
closed = 1;
nodes = (
(638,402,o),
(731,528,o),
(674,670,c),
(536,633,l),
(564,577,o),
(568,500,o),
(479,500,cs),
(437,500,o),
(422,513,o),
(352,523,c),
(352,421,l),
(494,402,l)
);
},
{
alignment = -1;
ref = o;
}
);
width = 702;
}
);
unicode = 417;
},
{
glyphname = oslash;
kernLeft = o;
kernRight = o;
lastChange = "2025-06-02 13:43:40 +0000";
layers = (
{
layerId = "8C7EE80F-D163-4204-B2B9-0AE0B1A3E0A1";
shapes = (
{
alignment = -1;
pos = (15,0);
ref = o;
},
{
closed = 1;
nodes = (
(120,-63,l),
(626,498,l),
(529,572,l),
(24,15,l)
);
}
);
width = 697;
}
);
unicode = 248;
},
{
glyphname = oe;
kernLeft = o;
kernRight = e;
lastChange = "2025-06-02 13:43:40 +0000";
layers = (
{
anchors = (
{
name = bottom;
pos = (23,-13);
},
{
name = top;
pos = (23,525);
}
);
layerId = "8C7EE80F-D163-4204-B2B9-0AE0B1A3E0A1";
shapes = (
{
closed = 1;
nodes = (
(449,-12,o),
(579,65,o),
(579,256,cs),
(579,451,o),
(457,525,o),
(314,525,cs),
(182,525,o),
(26,451,o),
(26,256,cs),
(26,65,o),
(172,-12,o),
(314,-12,cs)
);
},
{
closed = 1;
nodes = (
(251,140,o),
(215,184,o),
(215,256,cs),
(215,325,o),
(252,373,o),
(314,373,cs),
(384,373,o),
(410,325,o),
(410,256,cs),
(410,184,o),
(382,140,o),
(314,140,cs)
);
},
{
closed = 1;
nodes = (
(759,-13,o),
(872,3,o),
(932,131,c),
(763,185,l),
(744,149,o),
(701,139,o),
(696,139,cs),
(627,139,o),
(591,180,o),
(591,262,cs),
(591,319,o),
(626,373,o),
(690,373,cs),
(738,373,o),
(771,325,o),
(771,303,c),
(544,303,l),
(545,203,l),
(954,203,l),
(954,239,l),
(954,412,o),
(858,525,o),
(694,525,cs),
(566,525,o),
(435,450,o),
(435,261,cs),
(435,79,o),
(565,-13,o),
(695,-13,cs)
);
}
);
width = 979;
}
);
unicode = 339;
},
{
glyphname = p;
kernRight = o;
lastChange = "2025-06-02 13:43:40 +0000";
layers = (
{
hints = (
{
horizontal = 1;
place = (-55,133);
type = Stem;
},
{
horizontal = 1;
place = (379,103);
type = Stem;
},
{
horizontal = 1;
place = (482,103);
type = Stem;
},
{
place = (8,197);
type = Stem;
},
{
place = (409,207);
type = Stem;
},
{
place = (8,197);
type = Stem;
}
);
layerId = "8C7EE80F-D163-4204-B2B9-0AE0B1A3E0A1";
shapes = (
{
closed = 1;
nodes = (
(603,-12,o),
(690,89,o),
(690,255,c),
(690,422,o),
(622,525,o),
(480,525,c),
(378,525,o),
(296,474,o),
(296,421,c),
(296,406,o),
(279,405,o),
(279,422,c),
(279,513,l),
(30,513,l),
(30,513,o),
(30,366,o),
(30,334,c),
(80,334,o),
(80,390,o),
(80,334,c),
(80,278,o),
(82,-230,o),
(82,-230,c),
(279,-230,l),
(279,76,l),
(311,27,o),
(362,-12,o),
(457,-12,c)
);
},
{
closed = 1;
nodes = (
(279,322,o),
(316,388,o),
(377,388,c),
(435,388,o),
(483,326,o),
(483,254,c),
(483,169,o),
(439,120,o),
(378,121,c),
(316,123,o),
(279,174,o),
(279,255,c)
);
}
);
width = 721;
}
);
unicode = 112;
},
{
glyphname = thorn;
lastChange = "2025-06-02 13:43:40 +0000";
layers = (
{
layerId = "8C7EE80F-D163-4204-B2B9-0AE0B1A3E0A1";
shapes = (
{
closed = 1;
nodes = (
(270,27,o),
(309,-12,o),
(395,-12,cs),
(528,-12,o),
(615,89,o),
(615,255,cs),
(615,422,o),
(517,525,o),
(388,525,cs),
(315,525,o),
(271,478,o),
(241,423,c),
(241,700,l),
(60,700,l),
(61,-230,l),
(241,-230,l),
(241,76,l)
);
},
{
closed = 1;
nodes = (
(275,123,o),
(241,174,o),
(241,255,c),
(241,322,o),
(275,388,o),
(330,388,cs),
(383,388,o),
(427,325,o),
(427,254,cs),
(427,168,o),
(386,120,o),
(331,121,cs)
);
}
);
width = 644;
}
);
unicode = 254;
},
{
glyphname = q;
kernLeft = o;
kernRight = h;
lastChange = "2025-06-02 13:43:40 +0000";
layers = (
{
layerId = "8C7EE80F-D163-4204-B2B9-0AE0B1A3E0A1";
shapes = (
{
closed = 1;
nodes = (
(276,120,o),
(232,169,o),
(232,254,c),
(232,326,o),
(280,388,o),
(338,388,c),
(399,388,o),
(436,322,o),
(436,255,c),
(436,174,o),
(399,123,o),
(337,121,c)
);
},
{
closed = 1;
nodes = (
(635,513,l),
(436,513,l),
(436,421,l),
(436,404,o),
(419,406,o),
(419,421,c),
(419,473,o),
(337,525,o),
(235,525,c),
(93,525,o),
(25,422,o),
(25,255,c),
(25,89,o),
(112,-12,o),
(258,-12,c),
(353,-12,o),
(404,27,o),
(436,76,c),
(436,-237,l),
(686,-237,l),
(686,-58,l),
(635,-58,o),
(634,-114,o),
(634,-58,c)
);
}
);
width = 734;
}
);
metricLeft = o;
metricRight = h;
unicode = 113;
},
{
glyphname = r;
lastChange = "2025-06-02 13:43:40 +0000";
layers = (
{
anchors = (
{
name = bottom;
pos = (163,0);
},
{
name = top;
pos = (257,532);
}
);
layerId = "8C7EE80F-D163-4204-B2B9-0AE0B1A3E0A1";
shapes = (
{
closed = 1;
nodes = (
(257,0,l),
(257,192,ls),
(257,288,o),
(263,340,o),
(344,360,cs),
(373,366,o),
(416,360,o),
(439,354,c),
(439,520,l),
(431,524,o),
(401,525,o),
(390,525,cs),
(343,525,o),
(281,496,o),
(257,439,c),
(257,513,l),
(59,513,l),
(59,0,l)
);
}
);
width = 462;
}
);
metricLeft = n;
unicode = 114;
},
{
glyphname = s;
lastChange = "2025-06-02 13:43:40 +0000";
layers = (
{
anchors = (
{
name = bottom;
pos = (306,-12);
},
{
name = top;
pos = (303,525);
}
);
layerId = "8C7EE80F-D163-4204-B2B9-0AE0B1A3E0A1";
shapes = (
{
closed = 1;
nodes = (
(481,-12,o),
(592,51,o),
(592,176,cs),
(592,354,o),
(242,313,o),
(242,357,cs),
(242,372,o),
(251,382,o),
(302,382,cs),
(351,382,o),
(386,364,o),
(386,342,c),
(575,342,l),
(575,421,o),
(506,525,o),
(303,525,cs),
(115,525,o),
(47,453,o),
(47,350,cs),
(47,153,o),
(397,201,o),
(397,166,cs),
(397,137,o),
(365,131,o),
(317,131,cs),
(241,131,o),
(209,149,o),
(209,186,c),
(22,188,l),
(22,89,o),
(99,-12,o),
(306,-12,cs)
);
}
);
width = 617;
}
);
unicode = 115;
},
{
glyphname = germandbls;
lastChange = "2025-06-02 13:43:40 +0000";
layers = (
{
layerId = "8C7EE80F-D163-4204-B2B9-0AE0B1A3E0A1";
shapes = (
{
closed = 1;
nodes = (
(250,181,l),
(250,37,o),
(348,-12,o),
(465,-12,cs),
(622,-12,o),
(681,79,o),
(681,182,cs),
(681,348,o),
(513,341,o),
(513,395,cs),
(513,445,o),
(538,463,o),
(538,527,cs),
(538,616,o),
(450,712,o),
(306,712,cs),
(100,712,o),
(59,582,o),
(59,438,cs),
(59,0,l),
(237,0,l),
(237,428,ls),
(237,533,o),
(263,569,o),
(305,569,cs),
(334,569,o),
(360,552,o),
(360,527,cs),
(360,458,o),
(334,455,o),
(334,395,cs),
(334,251,o),
(506,263,o),
(506,185,cs),
(506,149,o),
(497,131,o),
(466,131,cs),
(437,131,o),
(416,141,o),
(416,181,c)
);
}
);
width = 702;
}
);
unicode = 223;
},
{
glyphname = t;
lastChange = "2025-06-02 13:43:40 +0000";
layers = (
{
anchors = (
{
name = bottom;
pos = (264,-3);
},
{
name = top;
pos = (224,628);
}
);
layerId = "8C7EE80F-D163-4204-B2B9-0AE0B1A3E0A1";
shapes = (
{
closed = 1;
nodes = (
(385,-12,o),
(415,-9,o),
(433,-4,c),
(431,166,l),
(414,163,o),
(392,162,o),
(377,162,cs),
(361,162,o),
(328,176,o),
(328,214,cs),
(328,360,l),
(441,360,l),
(441,512,l),
(328,512,l),
(328,627,l),
(140,627,l),
(140,589,ls),
(140,537,o),
(112,513,o),
(40,513,cs),
(21,513,l),
(21,360,l),
(130,360,l),
(130,159,ls),
(130,44,o),
(202,-12,o),
(367,-12,cs)
);
}
);
width = 481;
}
);
unicode = 116;
},
{
glyphname = tcaron;
lastChange = "2025-06-02 13:43:40 +0000";
layers = (
{
layerId = "8C7EE80F-D163-4204-B2B9-0AE0B1A3E0A1";
shapes = (
{
closed = 1;
nodes = (
(447,557,l),
(503,704,l),
(357,704,l),
(333,557,l)
);
},
{
alignment = -1;
ref = t;
}
);
width = 481;
}
);
unicode = 357;
},
{
glyphname = u;
kernLeft = a;
kernRight = a;
lastChange = "2025-06-02 13:43:40 +0000";
layers = (
{
anchors = (
{
name = bottom;
pos = (313,-12);
},
{
name = top;
pos = (320,532);
}
);
layerId = "8C7EE80F-D163-4204-B2B9-0AE0B1A3E0A1";
shapes = (
{
closed = 1;
nodes = (
(613,513,l),
(415,513,l),
(415,292,ls),
(415,177,o),
(398,128,o),
(315,128,cs),
(263,128,o),
(247,164,o),
(247,227,cs),
(247,513,l),
(49,513,l),
(49,204,ls),
(49,84,o),
(77,-12,o),
(248,-12,cs),
(348,-12,o),
(386,54,o),
(393,89,cs),
(398,112,o),
(415,106,o),
(415,92,cs),
(415,0,l),
(613,0,l)
);
}
);
width = 672;
}
);
unicode = 117;
},
{
glyphname = uhorn;
kernLeft = u;
kernRight = uhorn;
lastChange = "2025-06-02 13:43:40 +0000";
layers = (
{
layerId = "8C7EE80F-D163-4204-B2B9-0AE0B1A3E0A1";
shapes = (
{
alignment = -1;
pos = (-18,0);
ref = u;
},
{
closed = 1;
nodes = (
(683,415,o),
(781,540,o),
(724,683,c),
(585,646,l),
(614,589,o),
(620,513,o),
(535,513,c),
(535,415,l)
);
}
);
width = 735;
}
);
unicode = 432;
},
{
glyphname = v;
kernLeft = v;
kernRight = v;
lastChange = "2025-06-02 13:43:40 +0000";
layers = (
{
layerId = "8C7EE80F-D163-4204-B2B9-0AE0B1A3E0A1";
shapes = (
{
closed = 1;
nodes = (
(245,0,l),
(423,0,l),
(212,513,l),
(9,513,l)
);
},
{
closed = 1;
nodes = (
(488,513,l),
(268,0,l),
(436,0,l),
(679,513,l)
);
}
);
width = 688;
}
);
unicode = 118;
},
{
glyphname = w;
kernLeft = w;
kernRight = w;
lastChange = "2025-06-02 13:43:40 +0000";
layers = (
{
anchors = (
{
name = bottom;
pos = (510,-19);
},
{
name = top;
pos = (510,532);
}
);
layerId = "8C7EE80F-D163-4204-B2B9-0AE0B1A3E0A1";
shapes = (
{
closed = 1;
nodes = (
(402,0,l),
(522,388,l),
(495,388,l),
(611,0,l),
(790,0,l),
(982,513,l),
(803,513,l),
(680,115,l),
(708,115,l),
(611,513,l),
(419,513,l),
(309,115,l),
(338,115,l),
(226,513,l),
(36,513,l),
(223,0,l)
);
}
);
width = 1018;
}
);
unicode = 119;
},
{
glyphname = x;
lastChange = "2025-06-02 13:43:40 +0000";
layers = (
{
layerId = "8C7EE80F-D163-4204-B2B9-0AE0B1A3E0A1";
shapes = (
{
closed = 1;
nodes = (
(679,0,l),
(411,318,l),
(398,324,l),
(242,513,l),
(30,513,l),
(286,206,l),
(297,202,l),
(468,0,l)
);
},
{
closed = 1;
nodes = (
(231,0,l),
(407,209,l),
(417,212,l),
(669,513,l),
(463,513,l),
(303,321,l),
(295,321,l),
(25,0,l)
);
}
);
width = 705;
}
);
metricLeft = o;
metricRight = o;
unicode = 120;
},
{
glyphname = y;
kernLeft = v;
kernRight = v;
lastChange = "2025-06-02 13:43:40 +0000";
layers = (
{
anchors = (
{
name = top;
pos = (318,532);
}
);
layerId = "8C7EE80F-D163-4204-B2B9-0AE0B1A3E0A1";
shapes = (
{
closed = 1;
nodes = (
(261,-230,o),
(356,-185,o),
(417,-34,cs),
(635,513,l),
(443,513,l),
(336,169,l),
(200,513,l),
(10,513,l),
(234,4,l),
(225,-50,o),
(156,-71,o),
(107,-71,c),
(102,-71,o),
(66,-70,o),
(52,-67,c),
(50,-219,l),
(65,-223,o),
(109,-230,o),
(165,-230,cs)
);
}
);
width = 645;
}
);
unicode = 121;
},
{
glyphname = z;
lastChange = "2025-06-02 13:43:40 +0000";
layers = (
{
anchors = (
{
name = bottom;
pos = (266,0);
},
{
name = top;
pos = (274,513);
}
);
layerId = "8C7EE80F-D163-4204-B2B9-0AE0B1A3E0A1";
shapes = (
{
closed = 1;
nodes = (
(509,1,l),
(509,153,l),
(285,153,l),
(508,371,l),
(507,512,l),
(42,512,l),
(43,360,l),
(267,360,l),
(43,143,l),
(42,1,l)
);
}
);
width = 550;
}
);
unicode = 122;
},
{
glyphname = a.ss01;
kernLeft = o;
lastChange = "2025-06-02 13:43:40 +0000";
layers = (
{
layerId = "8C7EE80F-D163-4204-B2B9-0AE0B1A3E0A1";
shapes = (
{
closed = 1;
nodes = (
(331,-12,o),
(372,47,o),
(384,89,cs),
(389,108,o),
(405,105,o),
(405,87,cs),
(405,0,l),
(583,0,l),
(585,513,l),
(405,513,l),
(405,422,l),
(375,477,o),
(332,525,o),
(250,525,cs),
(118,525,o),
(31,422,o),
(31,255,cs),
(31,89,o),
(102,-12,o),
(243,-12,cs)
);
},
{
closed = 1;
nodes = (
(260,120,o),
(219,168,o),
(219,254,cs),
(219,325,o),
(263,388,o),
(316,388,cs),
(371,388,o),
(405,322,o),
(405,255,cs),
(405,173,o),
(367,123,o),
(315,121,cs)
);
}
);
width = 643;
}
);
},
{
glyphname = g.ss01;
kernLeft = g2;
kernRight = g2;
lastChange = "2025-06-02 13:43:40 +0000";
layers = (
{
anchors = (
{
name = bottom;
pos = (294,-230);
},
{
name = top;
pos = (287,525);
}
);
layerId = "8C7EE80F-D163-4204-B2B9-0AE0B1A3E0A1";
shapes = (
{
closed = 1;
nodes = (
(525,-230,o),
(594,-126,o),
(594,-24,cs),
(594,53,o),
(518,118,o),
(398,118,cs),
(235,118,ls),
(206,118,o),
(182,115,o),
(182,142,cs),
(182,151,o),
(187,147,o),
(187,151,c),
(116,231,l),
(51,202,o),
(31,164,o),
(31,107,cs),
(31,51,o),
(55,21,o),
(105,-3,c),
(58,-19,o),
(31,-44,o),
(31,-96,cs),
(31,-165,o),
(97,-230,o),
(288,-230,cs)
);
},
{
closed = 1;
nodes = (
(213,-89,o),
(199,-69,o),
(199,-47,cs),
(199,-39,o),
(213,-18,o),
(234,-18,c),
(371,-18,l),
(395,-18,o),
(412,-25,o),
(412,-51,cs),
(412,-79,o),
(347,-89,o),
(283,-89,cs)
);
},
{
closed = 1;
nodes = (
(439,132,o),
(531,218,o),
(531,328,cs),
(531,439,o),
(439,525,o),
(287,525,cs),
(139,525,o),
(44,439,o),
(44,328,cs),
(44,218,o),
(139,132,o),
(287,132,cs)
);
},
{
closed = 1;
nodes = (
(240,271,o),
(221,301,o),
(221,328,cs),
(221,356,o),
(245,388,o),
(287,388,cs),
(334,388,o),
(355,356,o),
(355,328,cs),
(355,301,o),
(334,271,o),
(287,271,cs)
);
},
{
closed = 1;
nodes = (
(493,468,o),
(565,458,o),
(586,443,c),
(586,576,l),
(493,592,o),
(419,529,o),
(417,483,c),
(480,439,l)
);
}
);
width = 614;
}
);
},
{
glyphname = a.ss02;
kernLeft = a2;
kernRight = a2;
lastChange = "2025-06-02 13:43:40 +0000";
layers = (
{
anchors = (
{
name = bottom;
pos = (354,-10);
},
{
name = top;
pos = (356,525);
}
);
layerId = "8C7EE80F-D163-4204-B2B9-0AE0B1A3E0A1";
shapes = (
{
closed = 1;
nodes = (
(326,-12,o),
(374,-5,o),
(420,11,c),
(442,6,o),
(472,-2,o),
(514,-2,cs),
(542,-2,o),
(598,5,o),
(612,13,c),
(612,153,l),
(562,143,o),
(551,156,o),
(551,193,cs),
(551,342,ls),
(551,451,o),
(469,523,o),
(311,523,cs),
(176,523,o),
(96,452,o),
(78,380,c),
(208,328,l),
(219,365,o),
(248,388,o),
(299,388,cs),
(358,388,o),
(383,364,o),
(383,326,cs),
(383,310,l),
(22,310,l),
(22,274,ls),
(22,101,o),
(118,-12,o),
(282,-12,cs)
);
},
{
closed = 1;
nodes = (
(238,140,o),
(205,187,o),
(205,209,c),
(380,209,l),
(369,171,o),
(335,140,o),
(286,140,cs)
);
}
);
width = 633;
}
);
},
{
glyphname = e.ss02;
kernLeft = o;
kernRight = o;
lastChange = "2025-06-02 13:43:40 +0000";
layers = (
{
layerId = "8C7EE80F-D163-4204-B2B9-0AE0B1A3E0A1";
shapes = (
{
closed = 1;
nodes = (
(394,-12,o),
(474,59,o),
(492,131,c),
(362,183,l),
(350,146,o),
(322,123,o),
(270,123,cs),
(211,123,o),
(201,139,o),
(201,181,cs),
(201,183,l),
(402,183,o),
(518,237,o),
(518,365,cs),
(518,459,o),
(461,525,o),
(329,525,cs),
(142,525,o),
(33,404,o),
(33,254,cs),
(33,164,ls),
(33,49,o),
(101,-12,o),
(259,-12,cs)
);
},
{
closed = 1;
nodes = (
(201,320,ls),
(201,389,o),
(242,396,o),
(303,396,cs),
(305,396,o),
(354,392,o),
(354,353,cs),
(354,325,o),
(342,288,o),
(201,288,c)
);
}
);
width = 541;
}
);
},
{
glyphname = q.ss03;
kernLeft = o;
kernRight = h;
lastChange = "2025-06-02 13:43:40 +0000";
layers = (
{
layerId = "8C7EE80F-D163-4204-B2B9-0AE0B1A3E0A1";
shapes = (
{
closed = 1;
nodes = (
(710,-53,l),
(687,-63,o),
(633,-66,o),
(633,18,cs),
(635,513,l),
(436,513,l),
(436,421,ls),
(436,404,o),
(419,406,o),
(419,421,cs),
(419,473,o),
(337,525,o),
(235,525,cs),
(93,525,o),
(25,422,o),
(25,255,cs),
(25,89,o),
(112,-12,o),
(258,-12,cs),
(353,-12,o),
(404,27,o),
(436,76,c),
(436,-39,ls),
(436,-227,o),
(639,-260,o),
(709,-224,c)
);
},
{
closed = 1;
nodes = (
(276,120,o),
(232,169,o),
(232,254,cs),
(232,326,o),
(280,388,o),
(338,388,cs),
(399,388,o),
(436,322,o),
(436,255,cs),
(436,174,o),
(399,123,o),
(337,121,cs)
);
}
);
width = 710;
}
);
metricLeft = o;
},
{
glyphname = ordfeminine;
lastChange = "2025-06-02 13:43:40 +0000";
layers = (
{
layerId = "8C7EE80F-D163-4204-B2B9-0AE0B1A3E0A1";
shapes = (
{
closed = 1;
nodes = (
(219,342,o),
(248,412,o),
(248,412,c),
(247,377,o),
(282,350,o),
(341,350,cs),
(363,350,o),
(400,355,o),
(411,361,c),
(411,445,l),
(375,437,o),
(366,447,o),
(366,474,cs),
(366,588,ls),
(366,664,o),
(299,712,o),
(196,712,cs),
(138,712,o),
(72,697,o),
(29,637,c),
(103,569,l),
(115,587,o),
(151,604,o),
(189,604,cs),
(227,604,o),
(248,588,o),
(248,573,cs),
(248,572,l),
(103,576,o),
(23,535,o),
(23,451,cs),
(23,388,o),
(54,342,o),
(145,342,cs)
);
},
{
closed = 1;
nodes = (
(411,309,l),
(19,308,l),
(19,174,l),
(411,175,l)
);
},
{
closed = 1;
nodes = (
(175,448,o),
(159,454,o),
(159,468,cs),
(159,479,o),
(186,484,o),
(246,484,c),
(246,486,ls),
(246,470,o),
(241,448,o),
(212,448,cs)
);
}
);
width = 428;
}
);
unicode = 170;
},
{
glyphname = ordmasculine;
lastChange = "2025-06-02 13:43:40 +0000";
layers = (
{
layerId = "8C7EE80F-D163-4204-B2B9-0AE0B1A3E0A1";
shapes = (
{
closed = 1;
nodes = (
(25,174,l),
(402,175,l),
(402,309,l),
(25,308,l)
);
},
{
closed = 1;
nodes = (
(306,342,o),
(409,395,o),
(409,526,cs),
(409,660,o),
(312,712,o),
(214,712,cs),
(126,712,o),
(18,660,o),
(18,526,cs),
(18,395,o),
(118,342,o),
(214,342,cs)
);
},
{
closed = 1;
nodes = (
(184,473,o),
(170,494,o),
(170,527,cs),
(170,559,o),
(186,581,o),
(214,581,cs),
(248,581,o),
(257,559,o),
(257,526,cs),
(257,494,o),
(248,473,o),
(214,473,cs)
);
}
);
width = 428;
}
);
unicode = 186;
},
{
glyphname = zero;
lastChange = "2025-06-02 13:43:40 +0000";
layers = (
{
layerId = "8C7EE80F-D163-4204-B2B9-0AE0B1A3E0A1";
shapes = (
{
closed = 1;
nodes = (
(547,-13,o),
(646,155,o),
(646,354,cs),
(646,563,o),
(545,712,o),
(347,712,cs),
(145,712,o),
(44,563,o),
(44,354,cs),
(44,155,o),
(143,-13,o),
(347,-13,cs)
);
},
{
closed = 1;
nodes = (
(258,152,o),
(219,227,o),
(219,355,cs),
(219,486,o),
(258,547,o),
(348,547,cs),
(432,547,o),
(471,486,o),
(471,355,cs),
(471,227,o),
(432,152,o),
(347,152,cs)
);
},
{
closed = 1;
nodes = (
(308,94,l),
(543,599,l),
(383,599,l),
(149,94,l)
);
}
);
width = 690;
}
);
unicode = 48;
},
{
glyphname = one;
lastChange = "2025-06-02 13:43:40 +0000";
layers = (
{
layerId = "8C7EE80F-D163-4204-B2B9-0AE0B1A3E0A1";
shapes = (
{
closed = 1;
nodes = (
(493,0,l),
(493,159,l),
(365,159,l),
(365,699,l),
(191,699,l),
(191,611,o),
(167,599,o),
(48,599,c),
(48,441,l),
(178,441,l),
(178,159,l),
(45,159,l),
(45,0,l)
);
}
);
width = 521;
}
);
unicode = 49;
},
{
glyphname = two;
lastChange = "2025-06-02 13:43:40 +0000";
layers = (
{
layerId = "8C7EE80F-D163-4204-B2B9-0AE0B1A3E0A1";
shapes = (
{
closed = 1;
nodes = (
(542,1,l),
(542,160,l),
(256,160,l),
(256,236,o),
(531,272,o),
(531,512,cs),
(531,639,o),
(413,712,o),
(289,712,cs),
(161,712,o),
(103,677,o),
(67,615,cs),
(43,573,o),
(43,504,o),
(43,468,c),
(230,468,l),
(230,516,o),
(238,547,o),
(287,547,cs),
(314,547,o),
(331,518,o),
(331,498,cs),
(331,344,o),
(52,339,o),
(52,124,cs),
(52,1,l)
);
}
);
width = 583;
}
);
unicode = 50;
},
{
glyphname = three;
lastChange = "2025-06-02 13:43:40 +0000";
layers = (
{
layerId = "8C7EE80F-D163-4204-B2B9-0AE0B1A3E0A1";
shapes = (
{
closed = 1;
nodes = (
(469,-12,o),
(560,84,o),
(560,223,cs),
(560,356,o),
(472,409,o),
(404,423,c),
(524,544,l),
(524,700,l),
(63,700,l),
(63,541,l),
(329,541,l),
(209,423,l),
(209,293,l),
(290,293,ls),
(339,293,o),
(377,279,o),
(377,217,cs),
(377,168,o),
(325,153,o),
(291,153,cs),
(237,153,o),
(213,175,o),
(199,213,cs),
(196,225,o),
(195,236,o),
(195,248,c),
(30,203,l),
(30,182,o),
(33,162,o),
(37,144,cs),
(64,43,o),
(167,-12,o),
(300,-12,cs)
);
}
);
width = 596;
}
);
unicode = 51;
},
{
glyphname = four;
lastChange = "2025-06-02 13:43:40 +0000";
layers = (
{
layerId = "8C7EE80F-D163-4204-B2B9-0AE0B1A3E0A1";
shapes = (
{
closed = 1;
nodes = (
(540,1,l),
(540,113,l),
(640,113,l),
(640,272,l),
(540,272,l),
(540,701,l),
(326,701,l),
(29,255,l),
(29,113,l),
(353,113,l),
(353,1,l)
);
},
{
closed = 1;
nodes = (
(353,461,l),
(353,272,l),
(228,272,l)
);
}
);
width = 669;
}
);
unicode = 52;
},
{
glyphname = five;
lastChange = "2025-06-02 13:43:40 +0000";
layers = (
{
layerId = "8C7EE80F-D163-4204-B2B9-0AE0B1A3E0A1";
shapes = (
{
closed = 1;
nodes = (
(460,-12,o),
(574,91,o),
(574,248,cs),
(574,401,o),
(464,498,o),
(320,498,cs),
(272,498,o),
(232,487,o),
(226,489,c),
(243,542,l),
(518,542,l),
(518,700,l),
(103,700,l),
(41,321,l),
(197,284,l),
(207,318,o),
(238,349,o),
(290,349,cs),
(333,349,o),
(382,322,o),
(382,248,cs),
(382,208,o),
(344,153,o),
(304,153,cs),
(245,153,o),
(216,178,o),
(205,230,c),
(33,177,l),
(54,89,o),
(135,-12,o),
(309,-12,cs)
);
}
);
width = 606;
}
);
unicode = 53;
},
{
glyphname = six;
lastChange = "2025-06-02 13:43:40 +0000";
layers = (
{
layerId = "8C7EE80F-D163-4204-B2B9-0AE0B1A3E0A1";
shapes = (
{
closed = 1;
nodes = (
(457,-12,o),
(570,94,o),
(570,234,cs),
(570,373,o),
(490,482,o),
(344,482,cs),
(297,482,o),
(278,463,o),
(285,471,c),
(389,700,l),
(199,700,l),
(77,440,ls),
(42,363,o),
(35,299,o),
(35,235,cs),
(35,96,o),
(134,-12,o),
(303,-12,cs)
);
},
{
closed = 1;
nodes = (
(239,139,o),
(218,191,o),
(218,241,cs),
(218,275,o),
(239,331,o),
(300,331,cs),
(368,331,o),
(387,276,o),
(387,241,cs),
(387,193,o),
(371,139,o),
(304,139,cs)
);
}
);
width = 601;
}
);
unicode = 54;
},
{
glyphname = seven;
lastChange = "2025-06-02 13:43:40 +0000";
layers = (
{
layerId = "8C7EE80F-D163-4204-B2B9-0AE0B1A3E0A1";
shapes = (
{
closed = 1;
nodes = (
(280,1,l),
(503,540,l),
(503,700,l),
(29,700,l),
(29,541,l),
(334,541,l),
(103,1,l)
);
}
);
width = 535;
}
);
unicode = 55;
},
{
glyphname = eight;
lastChange = "2025-06-02 13:43:40 +0000";
layers = (
{
layerId = "8C7EE80F-D163-4204-B2B9-0AE0B1A3E0A1";
shapes = (
{
closed = 1;
nodes = (
(475,-12,o),
(602,80,o),
(602,203,cs),
(602,286,o),
(562,348,o),
(499,384,c),
(541,416,o),
(566,465,o),
(566,530,cs),
(566,633,o),
(477,712,o),
(316,712,cs),
(159,712,o),
(67,633,o),
(67,530,cs),
(67,465,o),
(94,415,o),
(134,384,c),
(72,348,o),
(33,286,o),
(33,203,cs),
(33,80,o),
(147,-12,o),
(317,-12,cs)
);
},
{
closed = 1;
nodes = (
(251,150,o),
(231,177,o),
(231,217,cs),
(231,250,o),
(253,284,o),
(316,284,cs),
(391,284,o),
(404,250,o),
(404,217,cs),
(404,177,o),
(391,150,o),
(318,150,cs)
);
},
{
closed = 1;
nodes = (
(296,446,o),
(260,454,o),
(260,502,cs),
(260,529,o),
(293,549,o),
(315,549,cs),
(335,549,o),
(373,529,o),
(373,502,cs),
(373,454,o),
(335,446,o),
(317,446,cs)
);
}
);
width = 634;
}
);
unicode = 56;
},
{
glyphname = nine;
lastChange = "2025-06-02 13:43:40 +0000";
layers = (
{
layerId = "8C7EE80F-D163-4204-B2B9-0AE0B1A3E0A1";
shapes = (
{
closed = 1;
nodes = (
(144,712,o),
(31,606,o),
(31,466,cs),
(31,320,o),
(110,220,o),
(257,220,cs),
(304,220,o),
(323,239,o),
(316,230,c),
(212,0,l),
(402,0,l),
(524,269,ls),
(559,346,o),
(566,410,o),
(566,465,cs),
(566,604,o),
(467,712,o),
(298,712,cs)
);
},
{
closed = 1;
nodes = (
(362,561,o),
(383,517,o),
(383,467,cs),
(383,434,o),
(362,370,o),
(301,370,cs),
(233,370,o),
(214,433,o),
(214,467,cs),
(214,515,o),
(230,561,o),
(297,561,cs)
);
}
);
width = 600;
}
);
unicode = 57;
},
{
glyphname = .notdef;
lastChange = "2026-03-30 21:42:03 +0000";
layers = (
{
layerId = "8C7EE80F-D163-4204-B2B9-0AE0B1A3E0A1";
shapes = (
{
closed = 1;
nodes = (
(698,674,l),
(706,674,o),
(714,667,o),
(714,658,c),
(714,-96,l),
(714,-105,o),
(706,-112,o),
(698,-112,c),
(590,-112,l),
(580,-112,o),
(566,-112,o),
(557,-112,c),
(557,-112,o),
(238,-92,o),
(238,382,c),
(238,386,o),
(222,394,o),
(222,378,c),
(222,-96,l),
(222,-105,o),
(215,-112,o),
(206,-112,c),
(17,-112,l),
(8,-112,o),
(0,-105,o),
(0,-96,c),
(0,658,l),
(0,667,o),
(8,674,o),
(17,674,c),
(182,674,l),
(190,674,o),
(206,674,o),
(214,674,c),
(485,192,l),
(484,658,l),
(485,667,o),
(492,674,o),
(501,674,c)
);
}
);
width = 714;
}
);
},
{
glyphname = period;
kernLeft = ".";
kernRight = ".";
lastChange = "2025-06-02 13:43:40 +0000";
layers = (
{
layerId = "8C7EE80F-D163-4204-B2B9-0AE0B1A3E0A1";
shapes = (
{
closed = 1;
nodes = (
(196,-18,o),
(246,30,o),
(246,90,cs),
(246,147,o),
(196,193,o),
(139,193,cs),
(80,193,o),
(31,147,o),
(31,90,cs),
(31,30,o),
(80,-18,o),
(139,-18,cs)
);
}
);
width = 277;
}
);
unicode = 46;
},
{
glyphname = comma;
kernLeft = ".";
kernRight = ".";
lastChange = "2025-06-02 13:43:40 +0000";
layers = (
{
layerId = "8C7EE80F-D163-4204-B2B9-0AE0B1A3E0A1";
shapes = (
{
closed = 1;
nodes = (
(182,-165,o),
(235,-16,o),
(235,72,cs),
(235,127,o),
(204,192,o),
(128,192,cs),
(70,192,o),
(34,142,o),
(34,93,cs),
(34,48,o),
(72,7,o),
(125,7,cs),
(130,7,o),
(136,7,o),
(139,9,c),
(139,-92,o),
(34,-113,o),
(34,-113,c),
(34,-113,o),
(33,-165,o),
(34,-165,cs)
);
}
);
width = 264;
}
);
unicode = 44;
},
{
glyphname = colon;
kernLeft = colon;
kernRight = colon;
lastChange = "2025-06-02 13:43:40 +0000";
layers = (
{
layerId = "8C7EE80F-D163-4204-B2B9-0AE0B1A3E0A1";
shapes = (
{
closed = 1;
nodes = (
(186,-12,o),
(233,34,o),
(233,92,cs),
(233,147,o),
(186,192,o),
(131,192,cs),
(74,192,o),
(28,147,o),
(28,92,cs),
(28,34,o),
(74,-12,o),
(131,-12,cs)
);
},
{
closed = 1;
nodes = (
(186,316,o),
(233,362,o),
(233,420,cs),
(233,475,o),
(186,520,o),
(131,520,cs),
(74,520,o),
(28,475,o),
(28,420,cs),
(28,362,o),
(74,316,o),
(131,316,cs)
);
}
);
width = 261;
}
);
unicode = 58;
},
{
glyphname = semicolon;
kernLeft = colon;
kernRight = colon;
lastChange = "2025-06-02 13:43:40 +0000";
layers = (
{
layerId = "8C7EE80F-D163-4204-B2B9-0AE0B1A3E0A1";
shapes = (
{
closed = 1;
nodes = (
(179,-165,o),
(233,-16,o),
(232,72,cs),
(232,127,o),
(202,192,o),
(126,192,cs),
(68,192,o),
(32,142,o),
(32,93,cs),
(32,48,o),
(69,7,o),
(122,7,cs),
(128,7,o),
(133,7,o),
(137,9,c),
(137,-92,o),
(32,-113,o),
(32,-113,c),
(32,-113,o),
(31,-165,o),
(32,-165,cs)
);
},
{
closed = 1;
nodes = (
(188,316,o),
(234,362,o),
(234,420,cs),
(234,475,o),
(188,520,o),
(132,520,cs),
(75,520,o),
(29,475,o),
(29,420,cs),
(29,362,o),
(75,316,o),
(132,316,cs)
);
}
);
width = 261;
}
);
unicode = 59;
},
{
glyphname = exclam;
lastChange = "2025-06-02 13:43:40 +0000";
layers = (
{
layerId = "8C7EE80F-D163-4204-B2B9-0AE0B1A3E0A1";
shapes = (
{
closed = 1;
nodes = (
(219,254,l),
(233,700,l),
(49,700,l),
(63,254,l)
);
},
{
closed = 1;
nodes = (
(198,-12,o),
(245,35,o),
(245,93,cs),
(245,149,o),
(198,194,o),
(142,194,cs),
(84,194,o),
(38,149,o),
(38,93,cs),
(38,35,o),
(84,-12,o),
(142,-12,cs)
);
}
);
width = 282;
}
);
unicode = 33;
},
{
glyphname = exclamdown;
lastChange = "2025-06-02 13:43:40 +0000";
layers = (
{
layerId = "8C7EE80F-D163-4204-B2B9-0AE0B1A3E0A1";
shapes = (
{
closed = 1;
nodes = (
(49,-187,l),
(233,-187,l),
(219,259,l),
(63,259,l)
);
},
{
closed = 1;
nodes = (
(84,525,o),
(38,478,o),
(38,420,cs),
(38,364,o),
(84,319,o),
(142,319,cs),
(198,319,o),
(245,364,o),
(245,420,cs),
(245,478,o),
(198,525,o),
(142,525,cs)
);
}
);
width = 282;
}
);
unicode = 161;
},
{
glyphname = question;
lastChange = "2025-06-02 13:43:40 +0000";
layers = (
{
hints = (
{
horizontal = 1;
origin = (0,16);
target = (0,6);
type = Stem;
},
{
horizontal = 1;
place = (3,214);
target = (0,22);
type = Stem;
},
{
origin = (0,12);
target = (0,13);
type = Stem;
},
{
origin = (0,22);
target = (0,1);
type = Stem;
},
{
origin = (0,19);
target = (0,3);
type = Stem;
},
{
origin = (0,22);
target = (0,1);
type = Stem;
}
);
layerId = "8C7EE80F-D163-4204-B2B9-0AE0B1A3E0A1";
shapes = (
{
closed = 1;
nodes = (
(320,217,l),
(320,342,o),
(481,324,o),
(481,528,cs),
(481,652,o),
(391,721,o),
(249,721,cs),
(139,721,o),
(72,687,o),
(36,625,c),
(21,599,o),
(12,531,o),
(12,495,c),
(210,495,l),
(210,530,o),
(205,555,o),
(248,555,cs),
(277,555,o),
(283,535,o),
(283,522,cs),
(283,389,o),
(125,429,o),
(125,217,c)
);
},
{
closed = 1;
nodes = (
(283,-18,o),
(330,28,o),
(330,86,cs),
(330,142,o),
(283,187,o),
(227,187,cs),
(169,187,o),
(122,142,o),
(122,86,cs),
(122,28,o),
(169,-18,o),
(227,-18,cs)
);
}
);
width = 497;
}
);
unicode = 63;
},
{
glyphname = questiondown;
lastChange = "2025-06-02 13:43:40 +0000";
layers = (
{
layerId = "8C7EE80F-D163-4204-B2B9-0AE0B1A3E0A1";
shapes = (
{
closed = 1;
nodes = (
(359,-214,o),
(425,-180,o),
(461,-118,c),
(476,-92,o),
(485,-25,o),
(485,11,c),
(288,11,l),
(288,-24,o),
(293,-49,o),
(250,-49,cs),
(221,-49,o),
(215,-29,o),
(215,-15,cs),
(215,117,o),
(373,77,o),
(373,289,c),
(178,289,l),
(178,164,o),
(16,182,o),
(16,-21,cs),
(16,-146,o),
(107,-214,o),
(249,-214,cs)
);
},
{
closed = 1;
nodes = (
(329,319,o),
(375,364,o),
(375,420,cs),
(375,478,o),
(329,525,o),
(271,525,cs),
(215,525,o),
(168,478,o),
(168,420,cs),
(168,364,o),
(215,319,o),
(271,319,cs)
);
}
);
width = 497;
}
);
unicode = 191;
},
{
glyphname = periodcentered;
lastChange = "2025-06-02 13:43:40 +0000";
layers = (
{
layerId = "8C7EE80F-D163-4204-B2B9-0AE0B1A3E0A1";
shapes = (
{
closed = 1;
nodes = (
(196,200,o),
(245,248,o),
(245,309,cs),
(245,366,o),
(196,412,o),
(139,412,cs),
(80,412,o),
(31,366,o),
(31,309,cs),
(31,248,o),
(80,200,o),
(139,200,cs)
);
}
);
width = 276;
}
);
unicode = 183;
},
{
glyphname = bullet;
lastChange = "2025-06-02 13:43:40 +0000";
layers = (
{
layerId = "8C7EE80F-D163-4204-B2B9-0AE0B1A3E0A1";
shapes = (
{
closed = 1;
nodes = (
(237,176,o),
(297,235,o),
(297,310,cs),
(297,383,o),
(237,441,o),
(163,441,cs),
(89,441,o),
(30,383,o),
(30,310,cs),
(30,235,o),
(89,176,o),
(163,176,cs)
);
}
);
width = 326;
}
);
unicode = 8226;
},
{
glyphname = asterisk;
lastChange = "2025-06-02 13:43:40 +0000";
layers = (
{
layerId = "8C7EE80F-D163-4204-B2B9-0AE0B1A3E0A1";
shapes = (
{
closed = 1;
nodes = (
(299,489,l),
(171,489,l),
(338,296,l),
(430,374,l),
(296,533,l),
(248,445,l),
(452,543,l),
(397,661,l),
(230,585,l),
(308,522,l),
(308,712,l),
(170,712,l),
(170,519,l),
(244,584,l),
(71,662,l),
(14,539,l),
(224,440,l),
(179,533,l),
(45,374,l),
(142,298,l)
);
}
);
width = 468;
}
);
unicode = 42;
},
{
glyphname = numbersign;
lastChange = "2025-06-02 13:43:40 +0000";
layers = (
{
hints = (
{
horizontal = 1;
origin = (1,3);
target = (1,2);
type = Stem;
},
{
horizontal = 1;
origin = (3,3);
target = (3,2);
type = Stem;
},
{
origin = (1,3);
target = (3,0);
type = Stem;
}
);
layerId = "8C7EE80F-D163-4204-B2B9-0AE0B1A3E0A1";
shapes = (
{
closed = 1;
nodes = (
(498,0,l),
(671,720,l),
(499,720,l),
(326,0,l)
);
},
{
closed = 1;
nodes = (
(673,133,l),
(673,291,l),
(21,291,l),
(21,133,l)
);
},
{
closed = 1;
nodes = (
(234,0,l),
(407,720,l),
(235,720,l),
(62,0,l)
);
},
{
closed = 1;
nodes = (
(710,386,l),
(710,545,l),
(68,545,l),
(68,386,l)
);
}
);
width = 734;
}
);
unicode = 35;
},
{
glyphname = slash;
lastChange = "2025-06-02 13:43:40 +0000";
layers = (
{
layerId = "8C7EE80F-D163-4204-B2B9-0AE0B1A3E0A1";
shapes = (
{
closed = 1;
nodes = (
(182,-162,l),
(537,775,l),
(362,775,l),
(6,-162,l)
);
}
);
width = 543;
}
);
unicode = 47;
},
{
glyphname = backslash;
lastChange = "2025-06-02 13:43:40 +0000";
layers = (
{
layerId = "8C7EE80F-D163-4204-B2B9-0AE0B1A3E0A1";
shapes = (
{
closed = 1;
nodes = (
(537,-162,l),
(181,775,l),
(6,775,l),
(362,-162,l)
);
}
);
width = 543;
}
);
unicode = 92;
},
{
glyphname = periodcentered.loclCAT;
lastChange = "2025-06-02 13:43:40 +0000";
layers = (
{
layerId = "8C7EE80F-D163-4204-B2B9-0AE0B1A3E0A1";
shapes = (
{
closed = 1;
nodes = (
(199,200,o),
(249,248,o),
(249,309,cs),
(249,367,o),
(199,413,o),
(140,413,cs),
(81,413,o),
(32,367,o),
(32,309,cs),
(32,248,o),
(81,200,o),
(140,200,cs)
);
}
);
width = 280;
}
);
},
{
glyphname = periodcentered.loclCAT.case;
lastChange = "2025-06-02 13:43:40 +0000";
layers = (
{
layerId = "8C7EE80F-D163-4204-B2B9-0AE0B1A3E0A1";
shapes = (
{
closed = 1;
nodes = (
(198,200,o),
(248,248,o),
(248,309,cs),
(248,367,o),
(198,413,o),
(140,413,cs),
(81,413,o),
(31,367,o),
(31,309,cs),
(31,248,o),
(81,200,o),
(140,200,cs)
);
}
);
width = 279;
}
);
},
{
glyphname = hyphen;
lastChange = "2025-06-02 13:43:40 +0000";
layers = (
{
hints = (
{
horizontal = 1;
origin = (0,3);
target = (0,2);
type = Stem;
},
{
origin = (0,3);
target = (0,0);
type = Stem;
}
);
layerId = "8C7EE80F-D163-4204-B2B9-0AE0B1A3E0A1";
shapes = (
{
closed = 1;
nodes = (
(481,213,l),
(481,374,l),
(57,374,l),
(57,213,l)
);
}
);
width = 537;
}
);
unicode = 45;
},
{
glyphname = endash;
lastChange = "2025-06-02 13:43:40 +0000";
layers = (
{
layerId = "8C7EE80F-D163-4204-B2B9-0AE0B1A3E0A1";
shapes = (
{
closed = 1;
nodes = (
(531,221,l),
(531,366,l),
(56,366,l),
(56,221,l)
);
}
);
width = 587;
}
);
unicode = 8211;
},
{
glyphname = emdash;
lastChange = "2025-06-02 13:43:40 +0000";
layers = (
{
layerId = "8C7EE80F-D163-4204-B2B9-0AE0B1A3E0A1";
shapes = (
{
closed = 1;
nodes = (
(869,222,l),
(869,366,l),
(56,366,l),
(56,222,l)
);
}
);
width = 924;
}
);
unicode = 8212;
},
{
glyphname = underscore;
lastChange = "2025-06-02 13:43:40 +0000";
layers = (
{
hints = (
{
horizontal = 1;
origin = (0,3);
target = (0,2);
type = Stem;
},
{
origin = (0,3);
target = (0,0);
type = Stem;
}
);
layerId = "8C7EE80F-D163-4204-B2B9-0AE0B1A3E0A1";
shapes = (
{
closed = 1;
nodes = (
(626,0,l),
(626,145,l),
(56,145,l),
(56,0,l)
);
}
);
width = 682;
}
);
unicode = 95;
},
{
glyphname = parenleft;
lastChange = "2025-06-02 13:43:40 +0000";
layers = (
{
layerId = "8C7EE80F-D163-4204-B2B9-0AE0B1A3E0A1";
shapes = (
{
closed = 1;
nodes = (
(360,-158,l),
(363,-156,o),
(229,4,o),
(229,310,c),
(229,612,o),
(361,773,o),
(358,775,c),
(181,775,l),
(181,775,o),
(37,579,o),
(37,310,c),
(37,37,o),
(183,-158,o),
(183,-158,c)
);
}
);
width = 381;
}
);
unicode = 40;
},
{
glyphname = parenright;
lastChange = "2025-06-02 13:43:40 +0000";
layers = (
{
layerId = "8C7EE80F-D163-4204-B2B9-0AE0B1A3E0A1";
shapes = (
{
closed = 1;
nodes = (
(197,-158,o),
(343,37,o),
(343,310,c),
(343,579,o),
(199,775,o),
(199,775,c),
(23,775,l),
(20,773,o),
(151,612,o),
(151,310,c),
(151,4,o),
(18,-156,o),
(21,-158,c),
(197,-158,l)
);
}
);
width = 380;
}
);
unicode = 41;
},
{
glyphname = braceleft;
lastChange = "2025-06-02 13:43:40 +0000";
layers = (
{
layerId = "8C7EE80F-D163-4204-B2B9-0AE0B1A3E0A1";
shapes = (
{
closed = 1;
nodes = (
(429,-159,l),
(429,0,l),
(321,0,ls),
(292,0,o),
(278,35,o),
(278,68,cs),
(278,210,ls),
(278,266,o),
(244,297,o),
(195,306,c),
(195,314,l),
(244,324,o),
(278,358,o),
(278,414,cs),
(278,548,ls),
(278,594,o),
(292,616,o),
(321,616,cs),
(429,616,l),
(429,775,l),
(256,775,ls),
(177,775,o),
(101,700,o),
(101,619,cs),
(101,468,ls),
(101,409,o),
(79,391,o),
(25,391,c),
(25,231,l),
(79,231,o),
(101,212,o),
(101,155,cs),
(101,-2,ls),
(101,-84,o),
(177,-159,o),
(256,-159,cs)
);
}
);
width = 466;
}
);
unicode = 123;
},
{
glyphname = braceright;
lastChange = "2025-06-02 13:43:40 +0000";
layers = (
{
layerId = "8C7EE80F-D163-4204-B2B9-0AE0B1A3E0A1";
shapes = (
{
closed = 1;
nodes = (
(291,-159,o),
(366,-84,o),
(366,-2,cs),
(366,155,ls),
(366,212,o),
(388,232,o),
(442,232,c),
(442,391,l),
(388,391,o),
(366,409,o),
(366,468,cs),
(366,619,ls),
(366,700,o),
(291,775,o),
(211,775,cs),
(38,775,l),
(38,616,l),
(146,616,ls),
(175,616,o),
(189,594,o),
(189,548,cs),
(189,414,ls),
(189,358,o),
(224,324,o),
(273,314,c),
(273,306,l),
(224,297,o),
(189,266,o),
(189,210,cs),
(189,68,ls),
(189,35,o),
(175,0,o),
(146,0,cs),
(38,0,l),
(38,-159,l),
(211,-159,ls)
);
}
);
width = 467;
}
);
unicode = 125;
},
{
glyphname = bracketleft;
lastChange = "2025-06-02 13:43:40 +0000";
layers = (
{
layerId = "8C7EE80F-D163-4204-B2B9-0AE0B1A3E0A1";
shapes = (
{
closed = 1;
nodes = (
(435,-157,l),
(435,3,l),
(252,3,l),
(252,615,l),
(436,615,l),
(436,775,l),
(72,775,l),
(72,-157,l)
);
}
);
width = 473;
}
);
unicode = 91;
},
{
glyphname = bracketright;
lastChange = "2025-06-02 13:43:40 +0000";
layers = (
{
layerId = "8C7EE80F-D163-4204-B2B9-0AE0B1A3E0A1";
shapes = (
{
closed = 1;
nodes = (
(402,775,l),
(37,775,l),
(37,615,l),
(222,615,l),
(222,3,l),
(38,3,l),
(38,-157,l),
(402,-157,l)
);
}
);
width = 474;
}
);
unicode = 93;
},
{
glyphname = quotedblleft;
kernLeft = quoteleft;
kernRight = quoteleft;
lastChange = "2025-06-02 13:43:40 +0000";
layers = (
{
layerId = "8C7EE80F-D163-4204-B2B9-0AE0B1A3E0A1";
shapes = (
{
closed = 1;
nodes = (
(95,724,o),
(41,574,o),
(42,486,cs),
(42,431,o),
(70,367,o),
(147,367,cs),
(203,367,o),
(242,416,o),
(242,465,c),
(242,510,o),
(200,551,o),
(151,551,cs),
(146,551,o),
(140,551,o),
(137,550,c),
(137,651,o),
(242,671,o),
(242,671,c),
(242,671,o),
(243,724,o),
(242,724,cs)
);
},
{
closed = 1;
nodes = (
(319,724,o),
(265,574,o),
(266,486,cs),
(266,431,o),
(294,367,o),
(372,367,cs),
(427,367,o),
(466,416,o),
(466,465,cs),
(466,510,o),
(424,551,o),
(376,551,cs),
(370,551,o),
(365,551,o),
(361,550,c),
(361,651,o),
(466,671,o),
(466,671,c),
(466,671,o),
(467,724,o),
(466,724,cs)
);
}
);
width = 512;
}
);
unicode = 8220;
},
{
glyphname = quotedblright;
kernLeft = quoteright;
kernRight = quoteright;
lastChange = "2025-06-02 13:43:40 +0000";
layers = (
{
layerId = "8C7EE80F-D163-4204-B2B9-0AE0B1A3E0A1";
shapes = (
{
closed = 1;
nodes = (
(418,367,o),
(472,516,o),
(472,604,cs),
(472,659,o),
(443,724,o),
(366,724,cs),
(311,724,o),
(271,674,o),
(271,625,c),
(271,580,o),
(313,539,o),
(362,539,cs),
(367,539,o),
(373,539,o),
(376,540,c),
(376,440,o),
(271,419,o),
(271,419,c),
(271,419,o),
(270,367,o),
(271,367,cs)
);
},
{
closed = 1;
nodes = (
(193,367,o),
(247,516,o),
(246,604,cs),
(246,659,o),
(218,724,o),
(141,724,cs),
(85,724,o),
(46,674,o),
(46,625,cs),
(46,580,o),
(88,539,o),
(136,539,cs),
(142,539,o),
(147,539,o),
(151,540,c),
(151,440,o),
(46,419,o),
(46,419,c),
(46,419,o),
(45,367,o),
(46,367,cs)
);
}
);
width = 513;
}
);
unicode = 8221;
},
{
glyphname = quoteleft;
kernLeft = quoteleft;
kernRight = quoteleft;
lastChange = "2025-06-02 13:43:40 +0000";
layers = (
{
layerId = "8C7EE80F-D163-4204-B2B9-0AE0B1A3E0A1";
shapes = (
{
closed = 1;
nodes = (
(202,363,o),
(241,412,o),
(241,462,c),
(241,507,o),
(199,547,o),
(151,547,cs),
(146,547,o),
(140,547,o),
(136,546,c),
(136,647,o),
(241,668,o),
(241,668,c),
(241,668,o),
(242,720,o),
(241,720,cs),
(94,720,o),
(41,571,o),
(41,482,cs),
(41,428,o),
(70,363,o),
(147,363,cs)
);
}
);
width = 287;
}
);
unicode = 8216;
},
{
glyphname = quoteright;
kernLeft = quoteright;
kernRight = quoteright;
lastChange = "2025-06-02 13:43:40 +0000";
layers = (
{
layerId = "8C7EE80F-D163-4204-B2B9-0AE0B1A3E0A1";
shapes = (
{
closed = 1;
nodes = (
(194,367,o),
(247,516,o),
(247,604,cs),
(247,659,o),
(218,724,o),
(141,724,cs),
(86,724,o),
(46,674,o),
(46,625,c),
(46,580,o),
(88,539,o),
(137,539,cs),
(142,539,o),
(148,539,o),
(151,540,c),
(151,440,o),
(46,419,o),
(46,419,c),
(46,419,o),
(45,367,o),
(46,367,cs)
);
}
);
width = 288;
}
);
unicode = 8217;
},
{
glyphname = guillemetleft;
lastChange = "2025-06-02 13:43:40 +0000";
layers = (
{
layerId = "8C7EE80F-D163-4204-B2B9-0AE0B1A3E0A1";
shapes = (
{
closed = 1;
nodes = (
(688,165,l),
(402,357,l),
(402,222,l),
(688,414,l),
(688,587,l),
(361,368,l),
(361,206,l),
(688,-13,l)
);
},
{
closed = 1;
nodes = (
(359,165,l),
(73,357,l),
(73,222,l),
(359,414,l),
(359,586,l),
(32,367,l),
(32,206,l),
(359,-13,l)
);
}
);
width = 742;
}
);
unicode = 171;
},
{
glyphname = guillemetright;
lastChange = "2025-06-02 13:43:40 +0000";
layers = (
{
layerId = "8C7EE80F-D163-4204-B2B9-0AE0B1A3E0A1";
shapes = (
{
closed = 1;
nodes = (
(709,206,l),
(709,367,l),
(382,586,l),
(382,414,l),
(668,222,l),
(668,357,l),
(382,165,l),
(382,-13,l)
);
},
{
closed = 1;
nodes = (
(381,206,l),
(381,368,l),
(54,587,l),
(54,414,l),
(340,222,l),
(340,357,l),
(54,165,l),
(54,-13,l)
);
}
);
width = 741;
}
);
unicode = 187;
},
{
glyphname = guilsinglleft;
lastChange = "2025-06-02 13:43:40 +0000";
layers = (
{
layerId = "8C7EE80F-D163-4204-B2B9-0AE0B1A3E0A1";
shapes = (
{
closed = 1;
nodes = (
(377,164,l),
(75,355,l),
(75,223,l),
(377,414,l),
(377,586,l),
(32,367,l),
(32,206,l),
(377,-13,l)
);
}
);
width = 431;
}
);
unicode = 8249;
},
{
glyphname = guilsinglright;
lastChange = "2025-06-02 13:43:40 +0000";
layers = (
{
layerId = "8C7EE80F-D163-4204-B2B9-0AE0B1A3E0A1";
shapes = (
{
closed = 1;
nodes = (
(399,206,l),
(399,367,l),
(54,586,l),
(54,414,l),
(356,223,l),
(356,355,l),
(54,164,l),
(54,-13,l)
);
}
);
width = 431;
}
);
unicode = 8250;
},
{
glyphname = quotedbl;
lastChange = "2025-06-02 13:43:40 +0000";
layers = (
{
layerId = "8C7EE80F-D163-4204-B2B9-0AE0B1A3E0A1";
shapes = (
{
closed = 1;
nodes = (
(447,357,l),
(462,415,o),
(524,551,o),
(524,615,c),
(524,681,o),
(477,722,o),
(423,722,cs),
(368,722,o),
(321,681,o),
(321,615,c),
(321,551,o),
(387,415,o),
(398,357,c)
);
},
{
closed = 1;
nodes = (
(166,357,l),
(179,415,o),
(242,551,o),
(242,615,c),
(242,681,o),
(195,722,o),
(144,722,cs),
(86,722,o),
(39,681,o),
(39,615,c),
(39,551,o),
(104,415,o),
(117,357,c)
);
}
);
width = 564;
}
);
unicode = 34;
},
{
glyphname = quotesingle;
lastChange = "2025-06-02 13:43:40 +0000";
layers = (
{
layerId = "8C7EE80F-D163-4204-B2B9-0AE0B1A3E0A1";
shapes = (
{
closed = 1;
nodes = (
(166,357,l),
(179,415,o),
(242,551,o),
(242,615,c),
(242,681,o),
(195,722,o),
(144,722,cs),
(86,722,o),
(39,681,o),
(39,615,c),
(39,551,o),
(104,415,o),
(117,357,c)
);
}
);
width = 282;
}
);
unicode = 39;
},
{
glyphname = baht;
lastChange = "2025-06-02 13:43:40 +0000";
layers = (
{
layerId = "8C7EE80F-D163-4204-B2B9-0AE0B1A3E0A1";
name = "7 Nov 24 at 18:15";
shapes = (
{
closed = 1;
nodes = (
(411,0,ls),
(588,0,o),
(674,80,o),
(674,207,cs),
(674,282,o),
(627,340,o),
(559,362,c),
(596,387,o),
(635,437,o),
(635,516,cs),
(635,610,o),
(558,701,o),
(403,701,cs),
(82,701,l),
(82,0,l)
);
},
{
closed = 1;
nodes = (
(419,650,l),
(419,824,l),
(239,824,l),
(239,650,l)
);
},
{
closed = 1;
nodes = (
(269,275,l),
(269,275,o),
(387,275,o),
(387,275,cs),
(440,275,o),
(476,260,o),
(476,218,cs),
(476,163,o),
(441,159,o),
(377,159,cs),
(269,159,l)
);
},
{
closed = 1;
nodes = (
(269,542,l),
(269,542,o),
(378,542,o),
(378,542,cs),
(414,542,o),
(438,525,o),
(438,494,cs),
(438,444,o),
(417,434,o),
(379,434,cs),
(269,434,l)
);
},
{
closed = 1;
nodes = (
(239,16,l),
(239,-124,l),
(419,-124,l),
(419,16,l)
);
}
);
width = 724;
}
);
unicode = 3647;
},
{
glyphname = u1F330;
lastChange = "2026-04-01 18:45:46 +0000";
layers = (
{
layerId = "8C7EE80F-D163-4204-B2B9-0AE0B1A3E0A1";
shapes = (
{
closed = 1;
nodes = (
(1181,247,o),
(1080,408,o),
(972,497,q),
(972,497,l),
(908,550,ls),
(827,618,o),
(769,683,o),
(686,822,o),
(642,830,q),
(639,830,l),
(592,821,o),
(503,666,o),
(411,582,o),
(265,461,o),
(167,360,o),
(100,229,o),
(100,152,qs),
(100,38,o),
(230,-159,o),
(482,-266,o),
(641,-266,qs),
(801,-266,o),
(1052,-159,o),
(1181,39,o),
(1181,152,qs)
);
},
{
closed = 1;
nodes = (
(1050,-41,o),
(947,-142,o),
(791,-193,o),
(641,-193,qs),
(493,-193,o),
(334,-143,o),
(230,-40,o),
(230,-2,qs),
(230,23,o),
(284,62,o),
(508,122,o),
(641,122,qs),
(766,122,o),
(993,65,o),
(1050,24,o),
(1050,-2,qs)
);
}
);
width = 1281;
}
);
note = u1F330;
unicode = 127792;
},
{
glyphname = u1F33E;
lastChange = "2026-04-01 18:45:46 +0000";
layers = (
{
layerId = "8C7EE80F-D163-4204-B2B9-0AE0B1A3E0A1";
shapes = (
{
closed = 1;
nodes = (
(1381,523,o),
(1367,534,o),
(1356,534,qs),
(1337,534,o),
(1281,504,o),
(1257,486,qs),
(1234,468,ls),
(1181,426,o),
(1093,322,o),
(1061,263,q),
(1063,293,ls),
(1064,307,o),
(1064,319,qs),
(1064,410,o),
(998,559,o),
(889,620,o),
(867,620,qs),
(856,620,o),
(839,607,o),
(839,588,qs),
(839,578,o),
(846,567,o),
(854,565,qs),
(859,563,ls),
(934,538,o),
(1002,411,o),
(1002,314,qs),
(1002,284,o),
(995,207,o),
(991,170,qs),
(985,126,l),
(943,168,o),
(828,217,o),
(779,217,qs),
(766,217,ls),
(752,216,o),
(732,206,o),
(732,196,qs),
(732,184,o),
(779,154,o),
(867,77,o),
(927,-24,o),
(962,-126,o),
(969,-192,qs),
(973,-232,l),
(973,-251,o),
(999,-279,o),
(1018,-279,qs),
(1038,-279,o),
(1066,-253,o),
(1071,-184,o),
(1118,29,o),
(1224,278,o),
(1341,459,o),
(1381,504,o),
(1381,516,qs)
);
},
{
closed = 1;
nodes = (
(676,692,o),
(597,756,o),
(547,756,qs),
(527,756,o),
(513,731,o),
(513,718,qs),
(513,670,o),
(576,595,o),
(617,595,qs),
(643,595,o),
(676,624,o),
(676,652,qs)
);
},
{
closed = 1;
nodes = (
(466,536,o),
(500,556,o),
(515,572,o),
(515,588,qs),
(515,625,o),
(454,673,o),
(411,673,qs),
(392,673,o),
(327,652,o),
(327,634,qs),
(327,599,o),
(407,536,o),
(443,536,qs)
);
},
{
closed = 1;
nodes = (
(328,417,o),
(374,465,o),
(374,482,qs),
(374,503,o),
(330,548,o),
(289,548,qs),
(246,548,o),
(177,498,o),
(177,482,qs),
(177,459,o),
(253,417,o),
(287,417,qs)
);
},
{
closed = 1;
nodes = (
(287,361,o),
(247,395,o),
(220,395,qs),
(173,395,o),
(100,318,o),
(100,292,qs),
(100,276,o),
(142,255,o),
(179,255,qs),
(223,255,o),
(287,303,o),
(287,345,qs)
);
},
{
closed = 1;
nodes = (
(283,181,o),
(244,229,o),
(224,229,qs),
(190,229,o),
(151,173,o),
(151,136,qs),
(151,98,o),
(190,33,o),
(205,33,qs),
(229,33,o),
(283,110,o),
(283,149,qs)
);
},
{
closed = 1;
nodes = (
(428,297,o),
(383,345,o),
(364,345,qs),
(334,345,o),
(297,293,o),
(297,259,qs),
(297,217,o),
(345,148,o),
(362,148,qs),
(372,148,o),
(394,165,o),
(402,179,qs),
(411,193,ls),
(428,225,o),
(428,258,qs)
);
},
{
closed = 1;
nodes = (
(533,418,o),
(511,461,o),
(471,483,o),
(461,483,qs),
(436,483,o),
(401,435,o),
(401,405,qs),
(401,358,o),
(459,288,o),
(478,288,qs),
(497,288,o),
(533,359,o),
(533,391,qs)
);
},
{
closed = 1;
nodes = (
(675,507,o),
(631,554,o),
(614,554,qs),
(582,554,o),
(544,502,o),
(544,465,qs),
(544,424,o),
(587,358,o),
(603,358,qs),
(627,358,o),
(675,434,o),
(675,471,qs)
);
},
{
closed = 1;
nodes = (
(770,398,o),
(838,471,o),
(838,514,qs),
(838,538,o),
(808,587,o),
(785,587,qs),
(747,587,o),
(702,526,o),
(702,483,qs),
(702,462,o),
(723,398,o),
(742,398,qs)
);
},
{
closed = 1;
nodes = (
(819,626,o),
(843,664,o),
(843,685,qs),
(843,728,o),
(759,793,o),
(718,793,qs),
(702,793,o),
(686,772,o),
(686,750,qs),
(686,701,o),
(744,626,o),
(787,626,qs)
);
}
);
width = 1481;
}
);
note = u1F33E;
unicode = 127806;
},
{
glyphname = u1F33F;
lastChange = "2026-04-01 18:45:46 +0000";
layers = (
{
layerId = "8C7EE80F-D163-4204-B2B9-0AE0B1A3E0A1";
shapes = (
{
closed = 1;
nodes = (
(1086,68,o),
(951,164,o),
(781,211,o),
(698,211,qs),
(641,211,o),
(546,189,o),
(511,167,qs),
(490,153,ls),
(450,126,o),
(387,115,o),
(371,105,o),
(365,105,qs),
(362,105,o),
(362,109,qs),
(362,111,o),
(371,127,o),
(373,129,qs),
(381,142,ls),
(391,156,o),
(454,232,o),
(490,232,qs),
(533,232,ls),
(593,233,o),
(751,309,o),
(877,419,o),
(1046,627,o),
(1101,733,o),
(1101,757,qs),
(1101,772,o),
(1066,787,o),
(1034,787,qs),
(1011,787,o),
(983,786,o),
(968,783,qs),
(909,774,ls),
(777,753,o),
(552,634,o),
(417,431,o),
(417,347,qs),
(417,327,o),
(421,300,o),
(421,295,qs),
(421,258,o),
(370,197,o),
(329,143,o),
(327,143,q),
(321,144,o),
(321,162,qs),
(321,192,o),
(356,247,o),
(386,310,o),
(386,381,qs),
(386,541,o),
(236,808,o),
(187,808,qs),
(164,808,o),
(109,661,o),
(104,574,qs),
(101,534,ls),
(100,512,o),
(100,490,qs),
(100,365,o),
(170,209,o),
(281,184,o),
(281,118,qs),
(281,74,o),
(237,-23,o),
(222,-44,qs),
(214,-55,ls),
(209,-61,o),
(204,-73,o),
(204,-78,qs),
(204,-95,o),
(246,-117,o),
(266,-117,qs),
(299,-117,o),
(304,-36,o),
(374,74,o),
(425,74,qs),
(454,74,o),
(494,-14,o),
(618,-66,o),
(729,-66,qs),
(854,-66,o),
(1086,6,o),
(1086,38,qs)
);
}
);
width = 1201;
}
);
note = u1F33F;
unicode = 127807;
},
{
glyphname = u1F344;
lastChange = "2026-04-01 18:45:46 +0000";
layers = (
{
layerId = "8C7EE80F-D163-4204-B2B9-0AE0B1A3E0A1";
shapes = (
{
closed = 1;
nodes = (
(1232,357,o),
(1159,633,o),
(1058,777,o),
(902,858,o),
(778,858,qs),
(706,858,o),
(471,829,o),
(296,753,o),
(202,615,o),
(202,517,qs),
(202,427,o),
(283,236,o),
(351,165,q),
(310,142,o),
(201,95,o),
(100,-36,o),
(100,-110,qs),
(100,-202,o),
(241,-316,o),
(344,-316,qs),
(444,-316,o),
(638,-177,o),
(690,-54,q),
(747,-77,o),
(866,-104,o),
(926,-104,qs),
(1075,-104,o),
(1232,79,o),
(1232,247,qs)
);
},
{
closed = 1;
nodes = (
(709,259,o),
(703,202,o),
(661,72,o),
(586,-61,o),
(477,-156,o),
(371,-198,o),
(318,-198,qs),
(256,-198,o),
(175,-138,o),
(175,-86,qs),
(175,-42,o),
(250,46,o),
(393,112,o),
(527,227,o),
(582,320,o),
(582,340,qs),
(582,346,o),
(575,354,o),
(568,354,qs),
(547,354,o),
(507,286,o),
(475,254,o),
(438,222,q),
(379,279,o),
(312,383,o),
(312,419,qs),
(312,448,o),
(351,482,o),
(379,482,qs),
(408,482,o),
(543,443,o),
(709,345,o),
(875,182,o),
(949,71,o),
(949,31,qs),
(949,13,o),
(921,-12,o),
(885,-12,qs),
(850,-12,o),
(762,13,o),
(719,33,q),
(729,73,o),
(744,200,o),
(744,224,qs),
(744,234,ls),
(744,244,o),
(735,259,o),
(727,259,qs)
);
},
{
closed = 1;
nodes = (
(721,791,l),
(724,784,o),
(729,768,o),
(729,758,qs),
(729,704,o),
(643,641,o),
(577,641,qs),
(514,641,o),
(409,693,o),
(409,731,q),
(456,753,o),
(593,781,o),
(698,790,qs),
(710,791,l)
);
},
{
closed = 1;
nodes = (
(1167,247,qs),
(1167,187,o),
(1142,78,o),
(1114,39,q),
(1080,62,o),
(1047,131,o),
(1047,167,qs),
(1047,221,o),
(1115,310,o),
(1163,315,q),
(1166,281,ls),
(1167,264,o)
);
},
{
closed = 1;
nodes = (
(987,731,o),
(1028,709,o),
(1103,595,o),
(1131,484,q),
(1123,450,o),
(1077,407,o),
(1042,407,qs),
(966,407,o),
(841,533,o),
(841,614,qs),
(841,664,o),
(909,731,o),
(959,731,qs)
);
}
);
width = 1332;
}
);
note = u1F344;
unicode = 127812;
},
{
glyphname = u1F346;
lastChange = "2026-04-01 18:45:46 +0000";
layers = (
{
layerId = "8C7EE80F-D163-4204-B2B9-0AE0B1A3E0A1";
shapes = (
{
closed = 1;
nodes = (
(1157,409,o),
(1136,438,o),
(1136,461,qs),
(1136,478,o),
(1152,557,o),
(1152,588,qs),
(1152,619,o),
(1133,669,o),
(1119,690,q),
(1123,696,o),
(1134,720,o),
(1134,735,qs),
(1134,770,o),
(1058,823,o),
(1040,823,qs),
(1024,823,o),
(991,802,o),
(981,802,qs),
(964,802,o),
(930,806,o),
(911,806,qs),
(866,806,o),
(776,768,o),
(760,768,qs),
(753,768,ls),
(742,768,o),
(734,769,qs),
(709,776,ls),
(702,777,o),
(692,777,qs),
(668,777,o),
(636,743,o),
(636,719,qs),
(636,685,o),
(688,627,o),
(733,608,q),
(669,550,o),
(574,517,o),
(372,512,o),
(247,470,o),
(151,384,o),
(100,262,o),
(100,191,qs),
(100,50,o),
(296,-135,o),
(455,-135,qs),
(592,-135,o),
(817,6,o),
(977,256,o),
(1014,380,q),
(1050,344,o),
(1101,344,qs),
(1128,344,o),
(1157,368,o),
(1157,391,qs)
);
},
{
closed = 1;
nodes = (
(1114,389,o),
(1108,387,o),
(1101,387,qs),
(1066,387,o),
(1021,435,o),
(1015,460,qs),
(1010,479,ls),
(1007,491,o),
(1004,504,qs),
(995,548,ls),
(992,555,o),
(992,557,q),
(987,556,o),
(974,544,o),
(968,536,qs),
(963,528,ls),
(943,499,o),
(918,474,o),
(910,474,qs),
(891,474,o),
(865,545,o),
(865,564,qs),
(865,592,o),
(887,630,o),
(887,635,qs),
(887,637,o),
(883,643,o),
(878,643,qs),
(874,643,o),
(869,642,qs),
(858,638,ls),
(850,636,o),
(831,633,o),
(816,633,qs),
(767,633,o),
(680,688,o),
(680,719,qs),
(680,726,o),
(685,735,o),
(692,735,qs),
(699,735,o),
(731,725,o),
(753,725,qs),
(773,725,o),
(805,734,o),
(817,740,qs),
(843,751,ls),
(853,755,o),
(889,762,o),
(911,762,qs),
(931,762,o),
(971,759,o),
(991,759,qs),
(1007,759,o),
(1032,779,o),
(1040,779,qs),
(1050,779,o),
(1091,746,o),
(1091,733,qs),
(1091,725,o),
(1073,701,o),
(1073,692,qs),
(1073,677,o),
(1109,627,o),
(1109,588,qs),
(1109,564,o),
(1093,485,o),
(1093,462,qs),
(1093,433,o),
(1114,393,o),
(1114,391,qs)
);
}
);
width = 1257;
}
);
note = u1F346;
unicode = 127814;
},
{
glyphname = u1F347;
lastChange = "2026-04-01 18:45:46 +0000";
layers = (
{
layerId = "8C7EE80F-D163-4204-B2B9-0AE0B1A3E0A1";
shapes = (
{
closed = 1;
nodes = (
(176,510,o),
(214,566,o),
(225,577,qs),
(232,585,ls),
(238,592,o),
(255,606,o),
(262,606,qs),
(280,606,o),
(344,531,o),
(378,531,qs),
(392,531,o),
(410,573,o),
(410,584,qs),
(410,607,o),
(341,666,o),
(341,673,qs),
(341,680,o),
(387,726,o),
(454,759,o),
(454,787,qs),
(454,803,o),
(430,833,o),
(415,833,qs),
(403,833,o),
(289,763,o),
(189,673,o),
(100,581,o),
(100,547,qs),
(100,530,o),
(133,510,o),
(150,510,qs)
);
},
{
closed = 1;
nodes = (
(1091,-10,o),
(1068,29,o),
(1052,29,qs),
(1046,29,o),
(1032,24,o),
(1025,20,qs),
(1012,13,ls),
(1003,9,o),
(970,-1,o),
(952,-1,qs),
(946,-1,o),
(931,2,o),
(925,2,qs),
(913,2,o),
(904,-9,o),
(904,-18,qs),
(904,-27,o),
(908,-48,o),
(908,-52,qs),
(908,-63,o),
(904,-82,o),
(901,-91,qs),
(896,-110,ls),
(893,-116,o),
(888,-134,o),
(888,-138,qs),
(888,-154,o),
(925,-171,o),
(959,-171,qs),
(1013,-171,o),
(1091,-93,o),
(1091,-39,qs)
);
},
{
closed = 1;
nodes = (
(991,286,o),
(974,261,o),
(940,226,o),
(929,221,qs),
(911,212,ls),
(904,209,o),
(894,200,o),
(894,193,qs),
(894,187,o),
(919,139,o),
(919,101,qs),
(919,93,o),
(915,78,o),
(915,71,qs),
(915,62,o),
(920,51,o),
(930,51,qs),
(1002,51,o),
(1072,136,o),
(1072,186,qs),
(1072,230,o),
(1022,286,o),
(1003,286,qs)
);
},
{
closed = 1;
nodes = (
(861,-49,o),
(856,-36,o),
(849,-36,qs),
(842,-36,o),
(805,-55,o),
(777,-55,qs),
(751,-55,o),
(704,-39,o),
(658,-8,o),
(649,-8,qs),
(635,-8,o),
(608,-52,o),
(608,-73,qs),
(608,-117,o),
(682,-177,o),
(728,-177,qs),
(776,-177,o),
(861,-104,o),
(861,-57,qs)
);
},
{
closed = 1;
nodes = (
(878,147,o),
(836,199,o),
(817,199,qs),
(809,199,o),
(792,204,o),
(784,207,qs),
(768,212,ls),
(761,215,o),
(753,215,qs),
(737,215,o),
(722,161,o),
(678,104,o),
(650,95,o),
(650,84,qs),
(650,66,o),
(716,-4,o),
(763,-4,qs),
(807,-4,o),
(878,63,o),
(878,106,qs)
);
},
{
closed = 1;
nodes = (
(264,192,o),
(186,248,o),
(167,286,o),
(156,286,qs),
(142,286,o),
(121,229,o),
(121,204,qs),
(121,150,o),
(198,72,o),
(251,72,qs),
(280,72,o),
(321,96,o),
(345,160,o),
(345,174,qs),
(345,184,o),
(333,192,o),
(325,192,qs),
(306,192,ls)
);
},
{
closed = 1;
nodes = (
(745,592,o),
(745,544,qs),
(745,537,o),
(744,524,o),
(743,517,q),
(764,530,o),
(810,545,o),
(836,545,qs),
(848,545,l),
(859,544,l),
(871,559,o),
(885,600,o),
(885,623,qs),
(885,677,o),
(808,754,o),
(754,754,qs),
(721,754,o),
(666,726,o),
(648,701,q),
(694,677,o)
);
},
{
closed = 1;
nodes = (
(610,68,o),
(595,75,o),
(570,75,qs),
(525,75,o),
(445,119,o),
(425,163,o),
(410,163,qs),
(390,163,o),
(347,94,o),
(347,58,qs),
(347,4,o),
(424,-74,o),
(479,-74,qs),
(531,-74,o),
(610,1,o),
(610,51,qs)
);
},
{
closed = 1;
nodes = (
(782,502,o),
(705,423,o),
(705,371,qs),
(705,319,o),
(779,238,o),
(834,238,qs),
(888,238,o),
(968,314,o),
(968,370,qs),
(968,424,o),
(890,502,o),
(836,502,qs)
);
},
{
closed = 1;
nodes = (
(438,197,o),
(518,118,o),
(570,118,qs),
(623,118,o),
(702,198,o),
(702,250,qs),
(702,304,o),
(624,382,o),
(570,382,qs),
(517,382,o),
(438,304,o),
(438,250,qs)
);
},
{
closed = 1;
nodes = (
(516,676,o),
(438,598,o),
(438,544,qs),
(438,490,o),
(517,412,o),
(570,412,qs),
(624,412,o),
(702,491,o),
(702,544,qs),
(702,597,o),
(624,676,o),
(570,676,qs)
);
},
{
closed = 1;
nodes = (
(451,421,o),
(373,499,o),
(319,499,qs),
(265,499,o),
(188,420,o),
(188,367,qs),
(188,313,o),
(265,235,o),
(319,235,qs),
(373,235,o),
(451,313,o),
(451,367,qs)
);
}
);
width = 1191;
}
);
note = u1F347;
unicode = 127815;
},
{
glyphname = u1F348;
lastChange = "2026-04-01 18:45:46 +0000";
layers = (
{
layerId = "8C7EE80F-D163-4204-B2B9-0AE0B1A3E0A1";
shapes = (
{
closed = 1;
nodes = (
(754,632,o),
(764,632,qs),
(767,632,ls),
(760,632,o),
(916,603,o),
(1016,603,qs),
(1035,603,o),
(1061,629,o),
(1061,647,qs),
(1061,664,o),
(1034,690,o),
(1017,690,qs),
(1003,690,ls),
(921,692,o),
(758,719,o),
(611,783,o),
(501,863,o),
(501,867,q),
(495,873,o),
(478,879,o),
(471,879,qs),
(453,879,o),
(426,855,o),
(426,837,qs),
(426,813,o),
(479,772,o),
(532,732,o),
(623,684,o),
(662,667,o),
(662,645,qs),
(662,641,o),
(659,632,o),
(659,628,q),
(640,631,o),
(604,634,o),
(586,634,qs),
(375,634,o),
(100,389,o),
(100,196,qs),
(100,69,o),
(212,-139,o),
(419,-258,o),
(555,-258,qs),
(762,-258,o),
(1019,-9,o),
(1019,189,qs),
(1019,323,o),
(863,559,o),
(742,606,q),
(742,611,o)
);
},
{
closed = 1;
nodes = (
(742,469,o),
(730,453,q),
(753,434,o),
(793,413,o),
(819,394,qs),
(838,381,ls),
(845,375,o),
(851,372,q),
(898,409,l),
(905,398,o),
(918,374,o),
(925,361,q),
(912,349,o),
(885,328,o),
(872,318,qs),
(844,298,ls),
(829,288,o),
(816,276,q),
(824,265,o),
(838,243,o),
(845,232,qs),
(860,209,ls),
(868,196,o),
(881,181,q),
(899,197,o),
(939,231,o),
(957,247,q),
(960,251,l),
(962,233,o),
(965,200,o),
(965,183,q),
(911,136,ls),
(876,106,o),
(808,57,o),
(780,29,q),
(783,27,o),
(831,-20,o),
(874,-56,qs),
(880,-62,l),
(872,-73,o),
(855,-93,o),
(845,-102,q),
(829,-91,o),
(801,-66,o),
(788,-53,qs),
(761,-28,ls),
(748,-16,o),
(733,-5,q),
(684,-42,o),
(629,-74,q),
(637,-98,ls),
(643,-116,o),
(665,-162,o),
(671,-182,o),
(676,-194,q),
(663,-196,o),
(636,-201,o),
(621,-202,q),
(617,-186,o),
(587,-127,o),
(574,-74,o),
(566,-54,q),
(563,-54,o),
(549,-58,o),
(548,-59,q),
(522,-65,o),
(457,-81,o),
(442,-84,q),
(452,-104,ls),
(458,-115,o),
(461,-124,qs),
(476,-161,ls),
(480,-170,o),
(490,-186,o),
(495,-199,q),
(462,-195,o),
(428,-188,q),
(419,-159,o),
(398,-116,o),
(388,-98,q),
(364,-105,o),
(340,-111,qs),
(293,-122,l),
(280,-111,o),
(260,-91,o),
(248,-78,q),
(280,-67,o),
(335,-56,o),
(363,-48,q),
(335,13,ls),
(317,56,o),
(305,74,o),
(303,82,q),
(256,84,ls),
(233,84,o),
(210,84,qs),
(197,84,o),
(175,86,o),
(166,87,q),
(163,101,o),
(160,131,o),
(157,142,q),
(171,141,o),
(196,138,o),
(208,138,qs),
(233,138,o),
(280,137,o),
(304,136,q),
(311,153,o),
(326,179,o),
(332,189,qs),
(346,212,ls),
(354,224,o),
(368,253,o),
(377,265,q),
(308,309,l),
(302,304,ls),
(282,288,o),
(224,255,o),
(178,216,o),
(155,205,q),
(155,239,o),
(161,273,q),
(177,285,ls),
(196,302,o),
(248,331,o),
(263,342,q),
(247,353,o),
(220,377,o),
(207,390,q),
(214,403,o),
(229,425,o),
(239,435,q),
(256,416,o),
(299,381,o),
(322,365,qs),
(371,334,ls),
(385,324,o),
(411,308,o),
(416,305,qs),
(423,300,l),
(430,300,ls),
(447,301,o),
(486,306,o),
(501,310,q),
(467,369,o),
(410,480,o),
(377,537,q),
(390,543,o),
(403,548,qs),
(428,557,l),
(437,541,o),
(455,508,o),
(463,492,q),
(468,497,o),
(513,515,o),
(579,548,o),
(626,566,o),
(646,577,q),
(641,565,o),
(632,526,o),
(632,517,qs),
(632,502,o),
(664,482,o),
(689,482,qs),
(707,482,o),
(723,506,o),
(724,519,qs),
(727,538,l),
(729,541,o),
(733,548,o),
(735,551,q),
(749,545,o),
(772,532,o),
(784,525,q),
(769,507,o)
);
},
{
closed = 1;
nodes = (
(619,249,o),
(607,265,qs),
(593,284,l),
(563,271,o),
(469,248,o),
(428,246,q),
(417,232,o),
(398,189,o),
(367,145,o),
(362,133,q),
(401,133,o),
(480,126,o),
(516,126,qs),
(526,126,o),
(546,127,o),
(555,128,q),
(558,131,l),
(581,148,o),
(603,167,qs),
(646,205,l),
(637,219,o)
);
},
{
closed = 1;
nodes = (
(634,332,o),
(631,326,q),
(644,305,o),
(683,249,o),
(688,241,q),
(693,245,ls),
(722,270,o),
(778,315,o),
(807,338,q),
(782,359,o),
(716,395,o),
(698,409,q),
(687,397,o),
(666,370,o),
(653,357,q),
(641,342,ls)
);
},
{
closed = 1;
nodes = (
(478,72,o),
(403,79,o),
(365,79,q),
(376,58,o),
(393,12,o),
(405,-12,qs),
(417,-35,l),
(432,-32,o),
(521,-9,o),
(550,-3,q),
(551,-3,o),
(552,-3,q),
(546,16,o),
(542,34,qs),
(533,73,l),
(516,72,ls)
);
},
{
closed = 1;
nodes = (
(571,334,l),
(577,354,o),
(644,428,o),
(654,442,q),
(648,448,o),
(640,454,qs),
(623,466,ls),
(614,472,o),
(597,486,o),
(590,493,q),
(570,483,o),
(529,463,o),
(508,455,q),
(506,455,o),
(493,448,o),
(488,444,q),
(503,416,o),
(533,364,o),
(549,335,qs),
(554,325,l)
);
},
{
closed = 1;
nodes = (
(697,71,o),
(678,125,o),
(670,155,q),
(661,145,o),
(649,136,qs),
(604,100,ls),
(594,91,o),
(587,83,q),
(587,79,o),
(611,-15,o),
(613,-21,q),
(654,3,o),
(696,35,o),
(706,42,q),
(705,46,ls)
);
},
{
closed = 1;
nodes = (
(745,218,qs),
(717,194,l),
(722,178,o),
(724,155,o),
(735,123,qs),
(751,77,l),
(754,79,ls),
(775,99,o),
(796,115,qs),
(838,148,l),
(829,161,o),
(811,183,o),
(788,224,o),
(774,242,q),
(760,229,o)
);
}
);
width = 1161;
}
);
note = u1F348;
unicode = 127816;
},
{
glyphname = u1F349;
lastChange = "2026-04-01 18:45:46 +0000";
layers = (
{
layerId = "8C7EE80F-D163-4204-B2B9-0AE0B1A3E0A1";
shapes = (
{
closed = 1;
nodes = (
(1070,770,o),
(1024,819,o),
(996,819,qs),
(985,819,o),
(973,815,o),
(970,813,q),
(147,448,ls),
(118,435,o),
(100,386,o),
(100,353,qs),
(100,239,o),
(121,153,o),
(197,55,o),
(311,-15,o),
(457,-53,o),
(538,-53,qs),
(686,-53,o),
(992,74,o),
(1136,284,o),
(1136,434,qs),
(1136,493,o),
(1114,620,o),
(1098,672,qs),
(1084,721,ls)
);
},
{
closed = 1;
nodes = (
(803,578,o),
(820,587,o),
(834,587,qs),
(852,587,o),
(883,569,o),
(883,554,qs),
(883,544,o),
(864,529,o),
(854,529,qs),
(836,529,o),
(803,556,o),
(803,570,qs)
);
},
{
closed = 1;
nodes = (
(809,419,o),
(794,408,o),
(785,408,qs),
(768,408,o),
(742,443,o),
(742,460,qs),
(742,468,o),
(748,479,o),
(757,479,qs),
(775,479,o),
(809,449,o),
(809,432,qs)
);
},
{
closed = 1;
nodes = (
(638,422,o),
(657,390,o),
(657,372,qs),
(657,361,o),
(642,340,o),
(630,340,qs),
(616,340,o),
(602,362,o),
(602,377,qs),
(602,391,o),
(617,422,o),
(628,422,qs)
);
},
{
closed = 1;
nodes = (
(525,396,o),
(504,364,o),
(488,364,qs),
(477,364,o),
(465,380,o),
(465,391,qs),
(465,408,o),
(494,442,o),
(509,442,qs),
(516,442,o),
(525,430,o),
(525,416,qs)
);
},
{
closed = 1;
nodes = (
(162,205,o),
(157,243,o),
(157,274,qs),
(157,290,o),
(154,320,o),
(154,334,q),
(174,307,ls),
(184,292,o),
(196,276,q),
(195,272,o),
(195,268,qs),
(195,260,ls),
(195,243,o),
(218,214,o),
(218,202,qs),
(218,166,o),
(243,148,o),
(243,137,qs),
(243,120,ls),
(243,107,o),
(264,90,o),
(266,77,q),
(232,100,o),
(183,158,o),
(168,193,qs),
(165,199,ls)
);
},
{
closed = 1;
nodes = (
(405,61,o),
(438,33,o),
(438,17,qs),
(438,10,l),
(424,13,o),
(396,19,o),
(382,23,q),
(373,33,o),
(366,40,qs),
(353,51,ls),
(341,61,o),
(336,76,o),
(336,83,qs),
(336,89,o),
(334,105,o),
(328,110,qs),
(315,122,ls),
(308,129,o),
(298,146,o),
(298,159,qs),
(298,164,o),
(298,167,q),
(323,146,o),
(377,108,o),
(407,92,q),
(406,87,o),
(405,79,o),
(405,75,qs)
);
},
{
closed = 1;
nodes = (
(515,22,o),
(483,46,o),
(483,58,q),
(532,40,o),
(614,17,o),
(652,12,q),
(624,6,o),
(556,1,o),
(518,1,q),
(518,5,l)
);
},
{
closed = 1;
nodes = (
(1081,252,o),
(850,49,o),
(721,49,qs),
(637,49,o),
(385,137,o),
(205,321,o),
(166,397,q),
(231,426,l),
(264,376,ls),
(334,268,o),
(586,126,o),
(712,126,qs),
(817,126,o),
(956,216,o),
(1021,374,o),
(1021,454,qs),
(1021,529,o),
(977,701,o),
(951,746,q),
(993,764,l),
(996,764,ls),
(1003,764,o),
(1023,737,o),
(1032,707,qs),
(1036,691,ls),
(1053,631,o),
(1081,500,o),
(1081,432,qs)
);
}
);
width = 1236;
}
);
note = u1F349;
unicode = 127817;
},
{
glyphname = u1F34A;
lastChange = "2026-04-01 18:45:46 +0000";
layers = (
{
layerId = "8C7EE80F-D163-4204-B2B9-0AE0B1A3E0A1";
shapes = (
{
closed = 1;
nodes = (
(1040,693,o),
(1063,765,o),
(1063,775,qs),
(1063,784,o),
(1052,795,o),
(1044,798,q),
(1044,798,l),
(1033,802,ls),
(997,818,o),
(919,837,o),
(880,837,qs),
(796,837,o),
(666,736,o),
(648,658,q),
(487,658,o),
(236,533,o),
(100,317,o),
(100,193,qs),
(100,70,o),
(222,-124,o),
(468,-235,o),
(646,-235,qs),
(823,-235,o),
(1070,-125,o),
(1192,70,o),
(1192,193,qs),
(1192,316,o),
(1060,528,o),
(944,589,q),
(984,618,o)
);
},
{
closed = 1;
nodes = (
(1128,24,o),
(873,-171,o),
(646,-171,qs),
(419,-171,o),
(164,24,o),
(164,193,qs),
(164,334,o),
(359,551,o),
(522,582,q),
(520,576,o),
(517,563,o),
(517,556,qs),
(517,517,o),
(581,464,o),
(624,464,qs),
(660,464,o),
(717,500,o),
(728,533,q),
(748,530,o),
(768,530,qs),
(821,530,o),
(875,552,q),
(993,502,o),
(1128,307,o),
(1128,193,qs)
);
},
{
closed = 1;
nodes = (
(668,544,o),
(641,528,o),
(624,528,qs),
(604,528,o),
(581,548,o),
(581,556,qs),
(581,566,o),
(606,584,o),
(624,584,qs),
(644,584,o),
(668,565,o),
(668,556,qs)
);
},
{
closed = 1;
nodes = (
(435,367,o),
(411,384,o),
(395,384,qs),
(379,384,o),
(358,361,o),
(358,347,qs),
(358,335,o),
(375,317,o),
(392,317,qs),
(411,317,o),
(435,339,o),
(435,354,qs)
);
},
{
closed = 1;
nodes = (
(821,230,o),
(797,250,o),
(782,250,qs),
(768,250,o),
(746,233,o),
(746,218,qs),
(746,203,o),
(767,184,o),
(781,184,qs),
(796,184,o),
(821,202,o),
(821,215,qs)
);
},
{
closed = 1;
nodes = (
(838,433,o),
(818,418,o),
(818,401,qs),
(818,384,o),
(843,364,o),
(859,364,qs),
(872,364,o),
(891,377,o),
(891,391,qs),
(891,411,o),
(865,433,o),
(850,433,qs)
);
},
{
closed = 1;
nodes = (
(302,154,o),
(285,134,o),
(285,121,qs),
(285,105,o),
(312,83,o),
(328,83,qs),
(339,83,o),
(357,98,o),
(357,113,qs),
(357,132,o),
(333,154,o),
(317,154,qs)
);
},
{
closed = 1;
nodes = (
(960,208,o),
(978,189,o),
(991,189,qs),
(1005,189,o),
(1029,208,o),
(1029,222,qs),
(1029,233,o),
(1008,255,o),
(995,255,qs),
(982,255,o),
(960,236,o),
(960,222,qs)
);
},
{
closed = 1;
nodes = (
(548,10,o),
(528,-8,o),
(528,-25,qs),
(528,-40,o),
(549,-54,o),
(562,-54,qs),
(575,-54,o),
(597,-40,o),
(597,-27,qs),
(597,-11,o),
(575,10,o),
(561,10,qs)
);
},
{
closed = 1;
nodes = (
(817,4,o),
(834,-14,o),
(846,-14,qs),
(860,-14,o),
(885,5,o),
(885,19,qs),
(885,30,o),
(864,51,o),
(851,51,qs),
(837,51,o),
(817,32,o),
(817,18,qs)
);
},
{
closed = 1;
nodes = (
(577,256,o),
(555,274,o),
(543,274,qs),
(530,274,o),
(509,256,o),
(509,241,qs),
(509,228,o),
(526,209,o),
(539,209,qs),
(553,209,o),
(577,228,o),
(577,242,qs)
);
}
);
width = 1292;
}
);
note = u1F34A;
unicode = 127818;
},
{
glyphname = u1F34D;
lastChange = "2026-04-01 18:45:46 +0000";
layers = (
{
layerId = "8C7EE80F-D163-4204-B2B9-0AE0B1A3E0A1";
shapes = (
{
closed = 1;
nodes = (
(887,582,o),
(868,588,o),
(854,588,qs),
(844,588,o),
(820,586,o),
(809,586,qs),
(788,585,ls),
(779,584,o),
(774,584,qs),
(768,584,o),
(759,586,o),
(759,592,qs),
(759,595,o),
(784,652,o),
(855,719,o),
(883,742,o),
(883,749,qs),
(883,759,o),
(850,761,o),
(832,761,qs),
(767,761,o),
(692,731,o),
(689,731,qs),
(685,731,o),
(682,738,o),
(682,740,q),
(691,801,o),
(728,876,o),
(728,874,qs),
(728,881,o),
(712,884,o),
(703,884,qs),
(638,884,o),
(541,839,o),
(504,798,o),
(489,798,qs),
(475,798,o),
(442,832,o),
(355,874,o),
(296,883,qs),
(290,883,ls),
(280,883,o),
(269,875,o),
(269,867,qs),
(269,856,o),
(322,775,o),
(334,731,q),
(335,724,l),
(335,718,ls),
(335,709,o),
(328,706,o),
(315,706,qs),
(314,706,o),
(253,720,o),
(213,720,qs),
(197,720,o),
(104,699,o),
(104,687,qs),
(104,676,o),
(163,653,o),
(257,571,o),
(257,534,qs),
(257,529,o),
(254,522,o),
(249,522,qs),
(235,522,o),
(208,523,o),
(194,523,qs),
(159,523,o),
(100,503,o),
(100,487,qs),
(100,479,o),
(130,470,o),
(204,440,o),
(237,406,o),
(237,398,qs),
(237,387,o),
(162,375,o),
(162,358,qs),
(162,354,o),
(173,348,o),
(181,346,qs),
(188,344,ls),
(210,337,o),
(250,316,o),
(269,303,q),
(208,238,o),
(143,59,o),
(143,-39,qs),
(143,-149,o),
(238,-321,o),
(412,-408,o),
(515,-408,qs),
(618,-408,o),
(784,-320,o),
(868,-146,o),
(868,-33,qs),
(868,59,o),
(808,234,o),
(752,297,q),
(764,307,o),
(786,330,o),
(796,341,qs),
(817,364,ls),
(829,377,o),
(852,397,o),
(852,404,qs),
(852,413,o),
(821,422,o),
(801,422,qs),
(775,422,l),
(768,421,ls),
(758,421,o),
(758,429,q),
(768,454,o),
(846,536,o),
(887,562,o),
(887,574,qs)
);
},
{
closed = 1;
nodes = (
(808,-126,o),
(743,-272,o),
(603,-347,o),
(515,-347,qs),
(379,-347,o),
(203,-185,o),
(203,-41,qs),
(203,52,o),
(267,221,o),
(322,269,q),
(361,244,o),
(449,219,o),
(501,219,qs),
(558,219,o),
(662,245,o),
(701,264,q),
(751,210,o),
(808,51,o),
(808,-33,qs)
);
},
{
closed = 1;
nodes = (
(631,-66,o),
(625,-52,o),
(620,-46,qs),
(605,-28,l),
(588,-10,ls),
(571,8,o),
(536,31,o),
(520,31,qs),
(483,31,o),
(405,-55,o),
(405,-71,qs),
(405,-75,o),
(412,-84,o),
(422,-84,qs),
(441,-84,o),
(495,-26,o),
(521,-26,qs),
(541,-26,o),
(596,-84,o),
(614,-84,qs),
(620,-84,o),
(631,-77,o),
(631,-71,qs)
);
},
{
closed = 1;
nodes = (
(280,76,o),
(289,69,o),
(296,69,qs),
(313,69,o),
(364,106,o),
(376,106,qs),
(392,106,o),
(450,63,o),
(461,63,qs),
(468,63,o),
(481,72,o),
(481,81,qs),
(481,93,o),
(443,133,o),
(405,169,o),
(383,169,qs),
(357,169,o),
(280,99,o),
(280,82,qs)
);
},
{
closed = 1;
nodes = (
(430,-152,o),
(390,-126,o),
(375,-126,qs),
(356,-126,o),
(320,-148,o),
(307,-161,qs),
(296,-171,ls),
(287,-182,o),
(275,-203,o),
(275,-212,qs),
(275,-219,o),
(288,-226,o),
(294,-226,qs),
(308,-226,o),
(357,-184,o),
(373,-184,qs),
(393,-184,o),
(451,-242,o),
(468,-242,qs),
(475,-242,o),
(486,-236,o),
(486,-229,qs),
(486,-222,o),
(478,-208,o),
(467,-195,qs),
(459,-186,ls)
);
},
{
closed = 1;
nodes = (
(346,-74,o),
(355,-63,o),
(355,-56,qs),
(355,-35,o),
(278,36,o),
(259,36,qs),
(251,36,o),
(236,27,o),
(236,16,qs),
(236,-9,o),
(309,-54,o),
(328,-74,o),
(339,-74,qs)
);
},
{
closed = 1;
nodes = (
(699,146,o),
(668,169,o),
(649,169,qs),
(626,169,o),
(585,129,o),
(551,93,o),
(551,79,qs),
(551,72,o),
(564,63,o),
(571,63,qs),
(586,63,o),
(637,106,o),
(657,106,qs),
(670,106,o),
(721,69,o),
(736,69,qs),
(745,69,o),
(752,77,o),
(752,82,qs),
(752,90,o),
(734,116,o),
(723,126,qs),
(713,134,ls)
);
},
{
closed = 1;
nodes = (
(713,-148,o),
(676,-126,o),
(657,-126,qs),
(630,-126,o),
(547,-211,o),
(547,-229,qs),
(547,-236,o),
(557,-242,o),
(563,-242,qs),
(581,-242,o),
(639,-184,o),
(659,-184,qs),
(679,-184,o),
(728,-226,o),
(740,-226,qs),
(748,-226,o),
(757,-218,o),
(757,-210,qs),
(757,-201,o),
(746,-182,o),
(736,-171,qs),
(726,-161,ls)
);
},
{
closed = 1;
nodes = (
(741,36,o),
(662,-35,o),
(662,-55,qs),
(662,-61,o),
(670,-74,o),
(677,-74,qs),
(690,-74,o),
(711,-50,o),
(780,-8,o),
(780,16,qs),
(780,25,o),
(766,36,o),
(758,36,qs)
);
}
);
width = 987;
}
);
note = u1F34D;
unicode = 127821;
},
{
glyphname = u1F351;
lastChange = "2026-04-01 18:45:46 +0000";
layers = (
{
layerId = "8C7EE80F-D163-4204-B2B9-0AE0B1A3E0A1";
shapes = (
{
closed = 1;
nodes = (
(1096,54,o),
(1031,120,o),
(989,147,q),
(1031,192,o),
(1073,303,o),
(1073,377,qs),
(1073,509,o),
(889,739,o),
(618,881,o),
(576,881,qs),
(561,881,o),
(516,853,o),
(513,852,qs),
(421,799,ls),
(294,725,o),
(132,492,o),
(132,372,qs),
(132,306,o),
(186,175,o),
(234,130,q),
(169,83,o),
(100,-56,o),
(100,-93,qs),
(100,-106,o),
(110,-116,o),
(121,-116,qs),
(123,-116,o),
(206,-125,o),
(255,-125,qs),
(381,-125,o),
(570,-44,o),
(597,40,q),
(612,40,o),
(641,37,o),
(655,35,q),
(685,-47,o),
(871,-125,o),
(995,-125,qs),
(1039,-125,o),
(1127,-118,o),
(1150,-114,o),
(1150,-94,qs),
(1150,-78,o),
(1135,-28,o),
(1126,-6,qs),
(1118,10,ls)
);
},
{
closed = 1;
nodes = (
(1019,236,o),
(828,87,o),
(728,87,qs),
(602,87,o),
(456,279,o),
(456,478,qs),
(457,490,ls),
(457,503,o),
(447,503,qs),
(441,503,o),
(430,484,o),
(426,470,qs),
(423,461,l),
(414,416,o),
(414,373,qs),
(414,295,o),
(467,168,o),
(501,124,o),
(501,112,qs),
(501,102,o),
(486,94,o),
(473,94,qs),
(386,94,o),
(257,168,o),
(187,301,o),
(187,372,qs),
(187,477,o),
(332,684,o),
(448,752,qs),
(513,791,ls),
(545,809,o),
(576,827,q),
(741,783,o),
(1019,525,o),
(1019,377,qs)
);
}
);
width = 1250;
}
);
note = u1F351;
unicode = 127825;
},
{
glyphname = u1F352;
lastChange = "2026-04-01 18:45:46 +0000";
layers = (
{
layerId = "8C7EE80F-D163-4204-B2B9-0AE0B1A3E0A1";
shapes = (
{
closed = 1;
nodes = (
(1093,781,o),
(1060,805,o),
(1039,805,qs),
(1030,805,o),
(1015,799,o),
(1009,796,qs),
(996,787,ls),
(988,783,o),
(980,781,q),
(978,781,o),
(977,780,o),
(976,780,qs),
(779,745,o),
(487,537,o),
(407,363,qs),
(398,344,o),
(394,333,q),
(381,336,o),
(352,341,o),
(336,341,qs),
(241,341,o),
(100,200,o),
(100,105,qs),
(100,5,o),
(254,-127,o),
(360,-127,q),
(342,-83,o),
(342,-29,qs),
(342,61,o),
(455,213,o),
(541,239,q),
(520,265,o),
(466,305,o),
(435,318,q),
(438,328,o),
(447,348,qs),
(521,507,o),
(789,700,o),
(955,732,q),
(903,686,o),
(807,563,o),
(722,394,o),
(670,232,o),
(666,203,q),
(655,206,o),
(630,208,o),
(619,208,qs),
(527,208,o),
(384,67,o),
(384,-29,qs),
(384,-130,o),
(540,-261,o),
(643,-261,qs),
(742,-261,o),
(868,-128,o),
(868,-26,qs),
(868,50,o),
(783,161,o),
(707,191,q),
(727,280,o),
(784,429,o),
(853,553,o),
(936,658,o),
(1014,726,o),
(1018,727,qs),
(1026,728,l),
(1030,728,o),
(1037,726,o),
(1041,726,qs),
(1059,726,o),
(1093,747,o),
(1093,764,qs)
);
}
);
width = 1193;
}
);
note = u1F352;
unicode = 127826;
},
{
glyphname = u1F354;
lastChange = "2026-04-01 18:45:46 +0000";
layers = (
{
layerId = "8C7EE80F-D163-4204-B2B9-0AE0B1A3E0A1";
shapes = (
{
closed = 1;
nodes = (
(1118,211,o),
(1065,275,o),
(1041,288,q),
(1037,306,o),
(1031,326,q),
(1039,355,l),
(1048,365,o),
(1073,403,o),
(1084,451,o),
(1084,475,qs),
(1084,526,o),
(1046,652,o),
(949,740,o),
(802,798,o),
(654,827,o),
(580,827,qs),
(433,827,o),
(192,712,o),
(100,546,o),
(100,459,qs),
(100,424,o),
(118,369,o),
(139,349,q),
(111,320,o),
(111,284,qs),
(111,261,o),
(134,218,o),
(156,207,q),
(158,201,ls),
(159,198,o),
(160,195,q),
(135,177,o),
(108,133,o),
(108,100,qs),
(108,79,o),
(119,44,o),
(130,36,q),
(134,-41,o),
(216,-174,o),
(430,-259,o),
(577,-259,qs),
(679,-259,o),
(915,-219,o),
(1056,-70,o),
(1056,34,qs),
(1056,46,o),
(1052,70,o),
(1048,82,q),
(1073,89,o),
(1118,139,o),
(1118,174,qs)
);
},
{
closed = 1;
nodes = (
(859,-177,o),
(657,-205,o),
(577,-205,qs),
(469,-205,o),
(304,-157,o),
(202,-73,o),
(188,5,q),
(198,2,o),
(206,1,qs),
(219,-2,ls),
(228,-3,o),
(234,-9,o),
(244,-67,o),
(299,-110,o),
(338,-110,qs),
(356,-110,o),
(383,-101,o),
(393,-96,qs),
(413,-87,ls),
(421,-82,o),
(429,-82,qs),
(446,-82,o),
(513,-137,o),
(563,-137,qs),
(597,-137,o),
(649,-100,o),
(659,-98,qs),
(671,-96,ls),
(678,-95,o),
(688,-95,q),
(704,-109,o),
(735,-123,o),
(756,-123,qs),
(819,-123,o),
(887,-54,o),
(903,-29,o),
(949,-29,qs),
(963,-29,o),
(985,-24,o),
(996,-16,q),
(994,-21,ls),
(980,-86,o)
);
},
{
closed = 1;
nodes = (
(153,530,o),
(227,668,o),
(446,773,o),
(580,773,qs),
(652,773,o),
(795,744,o),
(921,693,o),
(1001,620,o),
(1030,518,o),
(1030,474,qs),
(1030,378,o),
(787,280,o),
(566,280,qs),
(455,280,o),
(305,311,o),
(206,360,o),
(153,409,o),
(153,458,qs)
);
},
{
closed = 1;
nodes = (
(787,52,o),
(599,52,qs),
(539,52,o),
(368,67,o),
(243,130,o),
(222,184,q),
(217,193,ls),
(215,198,o),
(215,200,q),
(241,200,o),
(284,163,o),
(337,134,o),
(362,134,qs),
(370,134,o),
(386,138,o),
(395,141,q),
(437,134,o),
(539,126,o),
(597,126,qs),
(757,126,o),
(943,196,o),
(989,251,q),
(975,157,o)
);
},
{
closed = 1;
nodes = (
(242,279,o),
(423,227,o),
(566,227,qs),
(583,227,o),
(617,228,o),
(635,228,q),
(620,212,o),
(594,192,o),
(585,192,qs),
(561,192,o),
(540,207,o),
(504,223,o),
(480,223,qs),
(457,223,o),
(415,209,o),
(399,201,qs),
(381,193,ls),
(371,188,o),
(362,188,qs),
(344,188,o),
(263,246,o),
(229,254,o),
(192,254,qs),
(178,254,o),
(165,270,o),
(165,283,qs),
(165,293,o),
(175,309,o),
(181,315,q),
(212,297,ls)
);
},
{
closed = 1;
nodes = (
(1064,146,o),
(993,118,o),
(979,48,o),
(974,40,qs),
(970,32,ls),
(966,25,o),
(953,25,o),
(949,25,qs),
(897,25,o),
(857,1,o),
(806,-68,o),
(756,-68,qs),
(749,-68,ls),
(737,-67,o),
(709,-41,o),
(681,-41,q),
(628,-45,o),
(585,-83,o),
(560,-83,qs),
(544,-83,o),
(519,-73,o),
(506,-62,qs),
(486,-48,ls),
(477,-42,o),
(447,-28,o),
(428,-28,qs),
(406,-28,o),
(355,-57,o),
(338,-57,qs),
(297,-57,o),
(285,15,o),
(255,49,o),
(161,62,o),
(161,100,qs),
(161,114,o),
(168,130,o),
(182,144,q),
(219,85,o),
(320,28,o),
(454,-1,o),
(599,-1,qs),
(791,-1,o),
(1011,114,o),
(1038,221,q),
(1064,195,o),
(1064,174,qs)
);
},
{
closed = 1;
nodes = (
(576,682,o),
(599,695,o),
(599,706,qs),
(599,716,o),
(580,730,o),
(568,730,qs),
(551,730,o),
(529,716,o),
(529,704,qs),
(529,691,o),
(548,682,o),
(560,682,qs)
);
},
{
closed = 1;
nodes = (
(600,630,o),
(580,618,o),
(580,607,qs),
(580,593,o),
(602,582,o),
(616,582,qs),
(635,582,o),
(651,597,o),
(651,605,qs),
(651,616,o),
(630,630,o),
(616,630,qs)
);
},
{
closed = 1;
nodes = (
(711,662,o),
(733,672,o),
(733,683,qs),
(733,694,o),
(711,710,o),
(697,710,qs),
(684,710,o),
(662,697,o),
(662,684,qs),
(662,674,o),
(684,662,o),
(699,662,qs)
);
},
{
closed = 1;
nodes = (
(457,608,o),
(473,596,o),
(487,596,qs),
(501,596,o),
(527,611,o),
(527,622,qs),
(527,631,o),
(505,644,o),
(492,644,qs),
(479,644,o),
(457,630,o),
(457,618,qs)
);
},
{
closed = 1;
nodes = (
(715,595,o),
(736,578,o),
(747,578,qs),
(756,578,o),
(780,593,o),
(780,604,qs),
(780,613,o),
(762,629,o),
(751,629,qs),
(732,629,o),
(715,616,o),
(715,608,qs)
);
},
{
closed = 1;
nodes = (
(867,625,o),
(876,641,o),
(876,648,qs),
(876,660,o),
(855,673,o),
(841,673,qs),
(832,673,o),
(817,665,o),
(817,653,qs),
(817,643,o),
(846,625,o),
(858,625,qs)
);
},
{
closed = 1;
nodes = (
(756,530,o),
(734,543,o),
(721,543,qs),
(712,543,o),
(697,535,o),
(697,525,qs),
(698,514,o),
(723,496,o),
(737,496,qs),
(745,496,o),
(756,510,o),
(756,518,qs)
);
},
{
closed = 1;
nodes = (
(540,532,o),
(515,515,o),
(515,502,qs),
(515,494,o),
(533,485,o),
(544,485,qs),
(556,485,o),
(578,497,o),
(578,508,qs),
(578,518,o),
(564,532,o),
(555,532,qs)
);
},
{
closed = 1;
nodes = (
(397,591,o),
(381,603,o),
(371,603,qs),
(358,603,o),
(333,587,o),
(333,575,qs),
(333,565,o),
(351,557,o),
(362,557,qs),
(375,557,o),
(397,568,o),
(397,580,qs)
);
},
{
closed = 1;
nodes = (
(460,698,o),
(445,710,o),
(436,710,qs),
(420,710,o),
(397,695,o),
(397,682,qs),
(397,672,o),
(413,663,o),
(424,663,qs),
(437,663,o),
(460,675,o),
(460,687,qs)
);
}
);
width = 1218;
}
);
note = u1F354;
unicode = 127828;
},
{
glyphname = u1F355;
lastChange = "2026-04-01 18:45:46 +0000";
layers = (
{
layerId = "8C7EE80F-D163-4204-B2B9-0AE0B1A3E0A1";
shapes = (
{
closed = 1;
nodes = (
(1286,416,o),
(1083,671,o),
(784,815,o),
(690,815,qs),
(649,815,o),
(586,785,o),
(546,733,o),
(526,667,o),
(524,623,o),
(498,590,qs),
(486,574,l),
(330,374,ls),
(215,226,o),
(100,32,o),
(100,-64,qs),
(100,-130,o),
(152,-281,o),
(208,-281,qs),
(239,-281,o),
(289,-233,o),
(295,-172,o),
(319,-134,o),
(337,-134,qs),
(344,-134,o),
(352,-136,qs),
(369,-142,ls),
(377,-145,o),
(397,-151,o),
(409,-151,qs),
(439,-151,o),
(484,-126,o),
(513,-86,o),
(537,-86,qs),
(550,-86,o),
(562,-92,qs),
(587,-104,ls),
(599,-112,o),
(628,-124,o),
(646,-124,qs),
(677,-124,o),
(717,-95,o),
(740,-51,o),
(786,-20,o),
(816,-11,qs),
(857,3,l),
(1021,58,ls),
(1102,85,o),
(1184,116,qs),
(1213,127,ls),
(1266,147,o),
(1286,226,o),
(1286,272,qs)
);
},
{
closed = 1;
nodes = (
(689,-28,o),
(670,-69,o),
(646,-69,qs),
(625,-69,o),
(565,-32,o),
(537,-32,qs),
(512,-32,o),
(469,-54,o),
(438,-97,o),
(409,-97,qs),
(403,-97,o),
(396,-95,qs),
(380,-88,ls),
(370,-85,o),
(349,-79,o),
(337,-79,qs),
(300,-79,o),
(251,-135,o),
(233,-227,o),
(208,-227,qs),
(189,-227,o),
(153,-115,o),
(153,-64,qs),
(153,-19,o),
(188,78,o),
(239,157,qs),
(261,190,l),
(277,168,o),
(330,147,o),
(355,147,qs),
(399,147,o),
(476,200,o),
(476,243,qs),
(476,282,o),
(410,332,o),
(365,332,q),
(396,370,o),
(425,408,qs),
(483,483,l),
(490,456,o),
(542,426,o),
(576,426,qs),
(625,426,o),
(702,492,o),
(702,526,qs),
(702,546,o),
(690,573,o),
(680,583,q),
(765,572,o),
(893,498,o),
(948,427,q),
(937,430,o),
(916,433,o),
(906,433,qs),
(867,433,o),
(802,375,o),
(802,342,qs),
(802,332,ls),
(802,293,o),
(861,249,o),
(905,249,qs),
(937,249,o),
(1001,278,o),
(1017,304,q),
(1029,275,o),
(1036,243,q),
(1028,235,o),
(944,211,o),
(890,205,o),
(822,176,o),
(763,157,qs),
(655,123,ls),
(617,110,o),
(354,23,o),
(275,2,qs),
(251,-4,ls),
(228,-11,o),
(196,-31,o),
(196,-43,qs),
(196,-53,o),
(209,-65,o),
(217,-65,qs),
(222,-65,o),
(244,-52,o),
(285,-41,qs),
(318,-32,ls),
(356,-22,o),
(614,64,o),
(669,81,qs),
(777,116,ls),
(833,134,o),
(893,158,o),
(915,163,qs),
(948,170,ls),
(995,179,o),
(1088,215,o),
(1088,267,qs),
(1088,306,o),
(1130,353,o),
(1172,353,qs),
(1200,353,o),
(1228,315,o),
(1233,293,o),
(1233,268,qs),
(1233,248,o),
(1224,200,o),
(1218,187,o),
(1192,177,qs),
(1165,167,ls),
(1074,132,o),
(986,103,qs),
(821,47,ls),
(741,21,o)
);
},
{
closed = 1;
nodes = (
(583,699,o),
(641,762,o),
(690,762,qs),
(763,762,o),
(1002,655,o),
(1176,484,o),
(1211,389,q),
(1200,394,o),
(1176,396,o),
(1162,396,qs),
(1128,396,o),
(1070,359,o),
(1055,326,q),
(1035,376,o),
(974,470,o),
(884,557,o),
(781,607,o),
(661,632,o),
(633,633,qs),
(587,636,l),
(578,638,l)
);
},
{
closed = 1;
nodes = (
(551,137,o),
(585,137,qs),
(613,137,o),
(660,166,o),
(673,188,q),
(682,186,o),
(702,183,o),
(713,183,qs),
(750,183,o),
(800,222,o),
(800,257,qs),
(800,291,o),
(755,335,o),
(725,335,qs),
(714,335,o),
(707,333,q),
(703,356,o),
(664,381,o),
(634,381,qs),
(602,381,o),
(551,347,o),
(551,316,qs),
(551,307,o),
(554,294,o),
(558,286,q),
(542,277,ls),
(525,266,o),
(507,234,o),
(507,213,qs),
(508,180,o)
);
},
{
closed = 1;
nodes = (
(584,244,o),
(587,244,qs),
(593,245,ls),
(602,245,o),
(616,258,o),
(616,271,qs),
(616,284,o),
(605,299,o),
(598,300,q),
(596,303,o),
(595,311,o),
(595,316,qs),
(595,322,o),
(613,338,o),
(634,338,qs),
(665,338,o),
(665,321,q),
(664,319,o),
(664,314,o),
(664,308,qs),
(664,300,o),
(675,281,o),
(686,281,qs),
(696,281,o),
(707,285,o),
(711,289,q),
(716,291,o),
(722,292,o),
(725,292,qs),
(740,292,o),
(756,271,o),
(756,257,qs),
(756,239,o),
(733,228,o),
(692,228,q),
(688,231,o),
(676,236,o),
(669,236,qs),
(658,236,o),
(641,223,o),
(639,216,qs),
(636,210,l),
(627,196,o),
(599,180,o),
(585,180,qs),
(571,180,o),
(550,199,o),
(550,215,qs),
(550,225,o),
(564,240,o),
(575,245,q),
(576,245,o)
);
}
);
width = 1386;
}
);
note = u1F355;
unicode = 127829;
},
{
glyphname = u1F356;
lastChange = "2026-04-01 18:45:46 +0000";
layers = (
{
layerId = "8C7EE80F-D163-4204-B2B9-0AE0B1A3E0A1";
shapes = (
{
closed = 1;
nodes = (
(1172,687,o),
(1086,764,o),
(913,832,o),
(835,832,qs),
(745,832,o),
(582,761,o),
(465,632,o),
(397,467,o),
(327,310,o),
(258,251,qs),
(215,215,ls),
(168,175,o),
(133,118,o),
(100,40,o),
(100,-5,qs),
(100,-28,o),
(110,-80,o),
(122,-109,qs),
(155,-184,ls),
(178,-239,o),
(321,-318,o),
(391,-318,qs),
(449,-318,o),
(577,-267,o),
(641,-219,qs),
(732,-152,ls),
(847,-66,o),
(902,-47,o),
(1046,25,o),
(1169,109,o),
(1229,177,o),
(1272,296,o),
(1272,361,qs),
(1272,406,o),
(1251,501,o),
(1229,553,qs),
(1198,626,ls)
);
},
{
closed = 1;
nodes = (
(1188,399,o),
(1166,318,o),
(1128,251,o),
(1027,174,o),
(870,88,o),
(787,59,o),
(668,-30,qs),
(577,-98,ls),
(517,-142,o),
(404,-188,o),
(355,-188,qs),
(335,-188,o),
(323,-185,qs),
(303,-179,l),
(254,-171,o),
(184,-121,o),
(173,-99,qs),
(166,-86,l),
(156,-63,o),
(149,-22,o),
(149,-4,qs),
(149,41,o),
(194,126,o),
(229,163,o),
(348,261,o),
(421,394,o),
(491,575,o),
(581,692,o),
(689,757,o),
(784,783,o),
(835,783,qs),
(902,783,o),
(1056,724,o),
(1136,655,o),
(1188,507,o),
(1188,442,qs)
);
},
{
closed = 1;
nodes = (
(1141,509,o),
(1097,610,o),
(1022,673,o),
(1002,673,qs),
(979,673,o),
(962,655,o),
(962,642,qs),
(962,632,o),
(965,612,o),
(965,604,qs),
(965,588,o),
(947,557,o),
(935,557,qs),
(924,557,o),
(909,577,o),
(909,604,qs),
(909,618,o),
(908,645,o),
(907,659,qs),
(904,682,ls),
(902,706,o),
(869,734,o),
(835,734,qs),
(758,734,o),
(672,682,o),
(672,635,qs),
(672,605,o),
(720,520,o),
(720,487,qs),
(720,445,o),
(651,326,o),
(649,301,o),
(629,278,o),
(621,278,qs),
(606,278,o),
(591,300,o),
(591,319,qs),
(591,341,o),
(641,426,o),
(641,475,qs),
(641,493,o),
(630,537,o),
(616,558,o),
(600,592,o),
(586,592,qs),
(574,592,o),
(555,577,o),
(549,566,qs),
(541,551,ls),
(530,531,o),
(507,477,o),
(494,447,qs),
(469,387,ls),
(441,322,o),
(384,231,o),
(341,195,qs),
(301,161,ls),
(239,107,o),
(198,33,o),
(198,-4,qs),
(198,-50,o),
(221,-68,o),
(227,-68,qs),
(238,-68,o),
(257,-24,o),
(268,-24,qs),
(282,-24,o),
(287,-81,o),
(338,-129,o),
(387,-129,qs),
(423,-129,o),
(501,-93,o),
(564,-46,o),
(619,-4,o),
(698,54,o),
(767,98,o),
(797,140,o),
(797,181,qs),
(797,195,o),
(795,223,o),
(795,238,qs),
(795,288,o),
(817,332,o),
(837,332,qs),
(848,332,o),
(862,317,o),
(862,302,qs),
(862,287,o),
(859,265,o),
(858,256,qs),
(855,241,ls),
(853,234,o),
(853,225,qs),
(853,205,o),
(886,176,o),
(907,176,qs),
(923,176,o),
(959,190,o),
(978,202,qs),
(998,214,ls),
(1084,272,o),
(1141,381,o),
(1141,448,qs)
);
}
);
width = 1372;
}
);
note = u1F356;
unicode = 127830;
},
{
glyphname = u1F357;
lastChange = "2026-04-01 18:45:46 +0000";
layers = (
{
layerId = "8C7EE80F-D163-4204-B2B9-0AE0B1A3E0A1";
shapes = (
{
closed = 1;
nodes = (
(1277,617,o),
(1244,652,o),
(1244,683,qs),
(1244,723,o),
(1180,764,o),
(1174,763,o),
(1132,818,o),
(1089,818,qs),
(1063,818,o),
(1010,789,o),
(973,690,o),
(919,671,o),
(824,660,o),
(795,634,o),
(791,608,q),
(742,608,ls),
(606,608,o),
(305,493,o),
(100,241,o),
(100,100,qs),
(100,-27,o),
(233,-212,o),
(340,-212,qs),
(381,-212,o),
(490,-162,o),
(595,-53,o),
(674,113,o),
(689,186,qs),
(701,247,ls),
(720,339,o),
(779,413,o),
(825,431,q),
(835,418,o),
(849,409,o),
(862,409,qs),
(870,409,o),
(1005,439,o),
(1030,439,qs),
(1048,439,o),
(1106,414,o),
(1141,414,qs),
(1160,414,o),
(1202,443,o),
(1213,467,qs),
(1219,480,ls),
(1226,499,o),
(1254,514,o),
(1277,561,o),
(1277,588,qs)
);
},
{
closed = 1;
nodes = (
(503,399,o),
(514,418,o),
(526,418,qs),
(540,418,o),
(566,390,o),
(566,375,qs),
(566,359,o),
(547,341,o),
(537,341,qs),
(525,341,o),
(503,362,o),
(503,386,qs)
);
},
{
closed = 1;
nodes = (
(394,-100,o),
(362,-70,o),
(362,-53,qs),
(362,-41,o),
(376,-24,o),
(387,-24,qs),
(401,-24,o),
(435,-55,o),
(435,-73,qs),
(435,-84,o),
(420,-100,o),
(409,-100,qs)
);
},
{
closed = 1;
nodes = (
(466,222,o),
(438,255,o),
(438,271,qs),
(438,283,o),
(455,296,o),
(464,296,qs),
(481,296,o),
(513,270,o),
(513,256,qs),
(513,240,o),
(493,222,o),
(482,222,qs)
);
},
{
closed = 1;
nodes = (
(513,-9,o),
(484,23,o),
(484,40,qs),
(484,52,o),
(500,65,o),
(511,65,qs),
(527,65,o),
(557,37,o),
(557,15,qs),
(557,5,o),
(542,-9,o),
(531,-9,qs)
);
},
{
closed = 1;
nodes = (
(578,126,o),
(552,160,o),
(552,178,qs),
(552,191,o),
(568,203,o),
(578,203,qs),
(594,203,o),
(621,172,o),
(621,150,qs),
(621,139,o),
(606,126,o),
(595,126,qs)
);
},
{
closed = 1;
nodes = (
(669,313,o),
(650,297,o),
(637,297,qs),
(623,297,o),
(605,319,o),
(605,332,qs),
(605,345,o),
(624,364,o),
(637,364,qs),
(650,364,o),
(669,340,o),
(669,327,qs)
);
},
{
closed = 1;
nodes = (
(695,450,o),
(674,432,o),
(662,432,qs),
(648,432,o),
(625,452,o),
(625,467,qs),
(625,483,o),
(642,496,o),
(653,496,qs),
(669,496,o),
(695,475,o),
(695,463,qs)
);
},
{
closed = 1;
nodes = (
(1223,571,o),
(1203,543,o),
(1179,543,qs),
(1168,543,o),
(1151,549,o),
(1140,549,qs),
(1132,549,o),
(1132,542,qs),
(1132,534,o),
(1171,525,o),
(1171,511,qs),
(1171,498,o),
(1148,469,o),
(1134,468,qs),
(1116,468,o),
(1056,494,o),
(1033,494,qs),
(994,494,o),
(881,466,o),
(867,464,q),
(853,481,o),
(842,506,o),
(840,559,qs),
(840,573,o),
(843,595,o),
(845,606,q),
(857,609,o),
(889,612,o),
(908,616,qs),
(940,623,ls),
(980,631,o),
(1033,688,o),
(1054,763,o),
(1089,763,qs),
(1103,763,o),
(1119,749,o),
(1119,733,qs),
(1119,716,o),
(1102,688,o),
(1102,686,qs),
(1102,682,o),
(1107,679,o),
(1110,679,qs),
(1120,679,o),
(1142,711,o),
(1155,711,qs),
(1168,711,o),
(1191,691,o),
(1191,678,qs),
(1191,661,o),
(1171,639,o),
(1132,626,o),
(1132,620,qs),
(1132,616,o),
(1139,613,o),
(1142,613,qs),
(1154,613,o),
(1176,621,o),
(1187,621,qs),
(1201,621,o),
(1223,598,o),
(1223,588,qs)
);
}
);
width = 1377;
}
);
note = u1F357;
unicode = 127831;
},
{
glyphname = u1F358;
lastChange = "2026-04-01 18:45:46 +0000";
layers = (
{
layerId = "8C7EE80F-D163-4204-B2B9-0AE0B1A3E0A1";
shapes = (
{
closed = 1;
nodes = (
(1196,441,o),
(1095,638,o),
(929,775,o),
(729,819,o),
(641,819,qs),
(409,819,o),
(100,499,o),
(100,291,qs),
(100,156,o),
(226,-70,o),
(474,-188,o),
(616,-188,qs),
(775,-188,o),
(1054,-44,o),
(1196,193,o),
(1196,344,qs)
);
},
{
closed = 1;
nodes = (
(1127,347,o),
(1102,370,o),
(1086,383,qs),
(1051,414,l),
(1013,445,ls),
(987,467,o),
(970,484,o),
(935,502,o),
(851,564,o),
(823,583,o),
(791,599,o),
(780,599,qs),
(760,599,o),
(689,547,o),
(652,526,o),
(623,494,o),
(554,442,o),
(517,394,o),
(493,375,q),
(494,375,l),
(474,358,l),
(456,341,ls),
(451,336,o),
(428,321,o),
(423,314,qs),
(415,301,l),
(400,286,ls),
(386,271,o),
(370,243,o),
(370,229,qs),
(370,220,o),
(375,213,qs),
(383,201,o),
(410,183,o),
(425,164,o),
(476,127,o),
(565,31,o),
(656,-51,o),
(695,-89,o),
(710,-112,o),
(712,-122,q),
(711,-125,o),
(711,-126,q),
(664,-135,o),
(616,-135,qs),
(579,-135,o),
(551,-129,o),
(541,-65,o),
(522,-65,qs),
(512,-65,o),
(495,-82,o),
(495,-99,qs),
(495,-105,o),
(497,-116,o),
(499,-122,q),
(481,-119,o),
(465,-114,qs),
(432,-104,l),
(413,-90,o),
(402,-24,o),
(379,-24,qs),
(368,-24,o),
(355,-46,o),
(355,-61,qs),
(355,-71,l),
(336,-58,o),
(305,-42,o),
(267,-8,o),
(238,25,o),
(206,73,o),
(183,126,o),
(165,186,o),
(155,256,o),
(155,292,qs),
(155,481,o),
(433,765,o),
(641,765,qs),
(717,765,o),
(901,727,o),
(1057,598,o),
(1141,427,o),
(1141,342,qs),
(1141,328,l)
);
},
{
closed = 1;
nodes = (
(657,655,o),
(644,652,o),
(638,652,qs),
(628,652,o),
(606,676,o),
(596,676,qs),
(591,676,o),
(583,671,o),
(583,665,qs),
(583,659,o),
(605,617,o),
(634,617,qs),
(654,617,o),
(683,631,o),
(683,641,qs),
(683,645,o),
(674,655,o),
(665,655,qs)
);
},
{
closed = 1;
nodes = (
(997,595,o),
(952,602,o),
(943,611,qs),
(936,617,ls),
(932,621,o),
(924,625,o),
(919,625,qs),
(911,625,o),
(905,617,o),
(905,612,qs),
(905,607,o),
(910,597,o),
(913,594,qs),
(914,592,l),
(929,577,o),
(952,569,o),
(966,569,qs),
(980,569,o),
(997,582,o),
(997,586,qs)
);
},
{
closed = 1;
nodes = (
(462,579,o),
(454,592,o),
(448,592,qs),
(435,592,o),
(410,562,o),
(364,558,o),
(364,542,qs),
(364,533,o),
(386,523,o),
(403,523,qs),
(423,523,o),
(462,559,o),
(462,573,qs)
);
},
{
closed = 1;
nodes = (
(298,350,o),
(293,340,o),
(293,335,qs),
(293,328,o),
(304,317,o),
(310,317,qs),
(323,317,o),
(338,345,o),
(338,366,qs),
(338,386,o),
(325,410,o),
(312,410,qs),
(299,410,o),
(287,399,o),
(287,394,qs),
(287,386,o),
(298,366,o),
(298,357,qs)
);
},
{
closed = 1;
nodes = (
(344,128,o),
(338,130,qs),
(313,141,ls),
(306,143,o),
(300,143,qs),
(295,143,o),
(286,133,o),
(286,126,qs),
(286,108,o),
(332,89,o),
(347,89,qs),
(359,89,o),
(377,100,o),
(377,110,qs),
(377,120,o),
(364,128,o),
(359,128,qs),
(348,128,ls)
);
}
);
width = 1296;
}
);
note = u1F358;
unicode = 127832;
},
{
glyphname = u1F359;
lastChange = "2026-04-01 18:45:46 +0000";
layers = (
{
layerId = "8C7EE80F-D163-4204-B2B9-0AE0B1A3E0A1";
shapes = (
{
closed = 1;
nodes = (
(1120,401,o),
(1055,527,o),
(948,631,o),
(724,752,o),
(515,814,o),
(438,814,qs),
(302,814,o),
(138,607,o),
(100,239,o),
(100,159,qs),
(100,-26,o),
(281,-222,o),
(435,-222,qs),
(539,-222,o),
(750,-136,o),
(1027,100,o),
(1120,254,o),
(1120,334,qs)
);
},
{
closed = 1;
nodes = (
(1066,287,o),
(1032,208,o),
(994,161,q),
(994,202,o),
(931,315,o),
(862,397,o),
(800,469,o),
(778,469,qs),
(767,469,o),
(756,464,qs),
(736,453,ls),
(672,417,o),
(611,373,qs),
(490,286,ls),
(487,283,o),
(433,249,o),
(433,230,qs),
(433,205,o),
(525,95,o),
(630,-45,o),
(630,-93,qs),
(630,-116,o),
(616,-133,q),
(569,-151,o),
(476,-168,o),
(435,-168,qs),
(308,-168,o),
(154,-10,o),
(154,165,qs),
(154,224,o),
(161,283,qs),
(176,440,ls),
(189,578,o),
(322,760,o),
(438,760,qs),
(568,760,o),
(932,588,o),
(1066,416,o),
(1066,334,qs)
);
}
);
width = 1220;
}
);
note = u1F359;
unicode = 127833;
},
{
glyphname = u1F35A;
lastChange = "2026-04-01 18:45:46 +0000";
layers = (
{
layerId = "8C7EE80F-D163-4204-B2B9-0AE0B1A3E0A1";
shapes = (
{
closed = 1;
nodes = (
(1105,441,o),
(1096,454,q),
(1095,457,o),
(1095,460,q),
(1094,468,ls),
(1090,492,o),
(1067,528,o),
(1054,540,q),
(1049,569,ls),
(1046,589,o),
(1025,627,o),
(1006,647,o),
(982,663,o),
(968,668,q),
(962,675,o),
(933,722,o),
(879,752,o),
(848,757,q),
(822,789,o),
(756,814,o),
(715,814,qs),
(699,813,ls),
(682,813,o),
(647,827,o),
(622,827,qs),
(583,827,o),
(533,807,o),
(519,793,o),
(506,793,qs),
(485,792,ls),
(441,789,o),
(388,754,o),
(375,731,qs),
(367,717,l),
(323,707,o),
(272,655,o),
(261,616,q),
(230,600,o),
(186,536,o),
(186,499,qs),
(186,488,l),
(175,476,o),
(158,443,o),
(154,424,q),
(123,397,o),
(100,323,o),
(100,279,qs),
(100,210,o),
(193,51,o),
(346,-64,o),
(420,-92,q),
(419,-104,ls),
(419,-112,o),
(419,-118,qs),
(419,-176,o),
(560,-237,o),
(648,-237,qs),
(764,-237,o),
(878,-170,o),
(878,-107,qs),
(878,-76,l),
(946,-44,o),
(1076,63,o),
(1160,213,o),
(1160,279,qs),
(1160,319,o),
(1144,383,o),
(1121,409,q),
(1118,420,o)
);
},
{
closed = 1;
nodes = (
(1033,246,o),
(925,183,o),
(814,160,qs),
(797,156,l),
(798,158,o),
(801,173,o),
(801,178,qs),
(801,194,o),
(787,216,o),
(775,216,qs),
(763,216,o),
(744,179,o),
(743,177,qs),
(735,165,ls),
(730,159,o),
(724,155,qs),
(716,151,ls),
(712,148,o),
(709,144,q),
(690,143,o),
(650,140,o),
(631,140,qs),
(495,140,o),
(266,224,o),
(191,299,o),
(191,331,qs),
(191,344,o),
(212,375,o),
(212,396,qs),
(212,427,o),
(247,463,o),
(247,498,q),
(249,524,o),
(281,561,o),
(311,567,o),
(317,585,q),
(317,585,l),
(323,606,ls),
(329,627,o),
(350,646,o),
(362,650,qs),
(376,655,ls),
(397,662,o),
(413,677,o),
(417,683,qs),
(428,698,ls),
(450,732,o),
(540,730,o),
(580,766,o),
(622,766,qs),
(639,766,o),
(672,750,o),
(741,750,o),
(787,737,o),
(814,699,o),
(862,694,o),
(892,673,o),
(925,620,o),
(937,614,qs),
(947,610,ls),
(974,598,o),
(992,550,o),
(992,510,o),
(1033,478,o),
(1034,442,qs),
(1034,425,o),
(1066,398,o),
(1068,352,qs),
(1068,338,ls),
(1068,312,o)
);
},
{
closed = 1;
nodes = (
(795,593,o),
(782,553,o),
(750,539,o),
(750,528,qs),
(750,519,o),
(769,504,o),
(778,504,qs),
(801,504,o),
(833,538,o),
(833,554,qs),
(833,563,o),
(818,593,o),
(807,593,qs)
);
},
{
closed = 1;
nodes = (
(818,406,o),
(807,425,o),
(794,425,qs),
(786,425,o),
(779,415,o),
(776,409,qs),
(771,396,ls),
(768,386,o),
(738,369,o),
(738,355,qs),
(738,345,o),
(758,332,o),
(769,332,qs),
(788,332,o),
(818,365,o),
(818,393,qs)
);
},
{
closed = 1;
nodes = (
(651,251,o),
(640,270,o),
(628,270,qs),
(614,270,o),
(605,234,o),
(598,229,qs),
(581,218,ls),
(572,212,o),
(572,200,qs),
(572,190,o),
(591,178,o),
(602,178,qs),
(623,178,o),
(651,211,o),
(651,239,qs)
);
},
{
closed = 1;
nodes = (
(923,463,o),
(921,436,o),
(913,428,qs),
(903,417,ls),
(898,411,o),
(891,400,o),
(891,394,qs),
(891,386,o),
(912,373,o),
(920,373,qs),
(939,373,o),
(958,404,o),
(958,426,qs),
(958,446,o),
(950,463,o),
(940,463,qs)
);
},
{
closed = 1;
nodes = (
(923,308,o),
(914,298,o),
(914,293,qs),
(914,288,o),
(911,279,o),
(907,273,qs),
(897,262,ls),
(892,257,o),
(884,245,o),
(884,240,qs),
(884,232,o),
(904,220,o),
(913,220,qs),
(932,220,o),
(951,252,o),
(951,275,qs),
(951,292,o),
(942,308,o),
(933,308,qs)
);
}
);
width = 1260;
}
);
note = u1F35A;
unicode = 127834;
},
{
glyphname = u1F35B;
lastChange = "2026-04-01 18:45:46 +0000";
layers = (
{
layerId = "8C7EE80F-D163-4204-B2B9-0AE0B1A3E0A1";
shapes = (
{
closed = 1;
nodes = (
(1406,339,o),
(1354,450,o),
(1279,525,o),
(1277,529,qs),
(1272,536,ls),
(1266,545,o),
(1259,551,qs),
(1244,562,l),
(1240,623,o),
(1149,693,o),
(1085,693,qs),
(1073,693,o),
(1060,691,q),
(1039,706,o),
(996,728,o),
(970,737,q),
(951,765,o),
(881,799,o),
(837,799,qs),
(824,799,o),
(785,793,o),
(767,783,q),
(751,784,l),
(735,784,ls),
(679,784,o),
(570,745,o),
(561,714,q),
(556,710,l),
(520,711,ls),
(487,711,o),
(433,688,o),
(413,663,q),
(410,664,o),
(407,664,qs),
(363,664,o),
(276,604,o),
(266,560,q),
(262,558,ls),
(248,549,o),
(219,522,o),
(207,503,q),
(155,454,o),
(100,341,o),
(100,276,qs),
(100,164,o),
(271,-26,o),
(576,-139,o),
(753,-139,qs),
(930,-139,o),
(1235,-27,o),
(1406,165,o),
(1406,276,qs)
);
},
{
closed = 1;
nodes = (
(1343,181,o),
(1180,18,o),
(909,-76,o),
(753,-76,qs),
(592,-76,o),
(320,21,o),
(163,185,o),
(163,276,qs),
(163,300,o),
(174,345,o),
(184,367,q),
(183,357,o),
(183,347,qs),
(183,320,o),
(205,273,o),
(232,253,q),
(233,197,o),
(314,120,o),
(380,120,q),
(397,93,o),
(462,61,o),
(509,61,qs),
(521,61,ls),
(528,62,o),
(534,62,q),
(555,43,o),
(601,24,o),
(629,24,qs),
(644,24,o),
(669,28,o),
(680,30,qs),
(684,31,ls),
(697,34,o),
(717,41,o),
(724,45,q),
(728,43,ls),
(751,34,o),
(799,28,o),
(822,28,qs),
(833,28,o),
(843,30,qs),
(863,35,ls),
(890,40,o),
(936,54,o),
(1043,74,o),
(1101,98,o),
(1173,132,o),
(1203,166,o),
(1275,209,o),
(1306,238,o),
(1330,287,o),
(1336,327,q),
(1340,315,o),
(1343,289,o),
(1343,276,qs)
);
},
{
closed = 1;
nodes = (
(332,566,o),
(379,597,o),
(399,600,qs),
(404,601,ls),
(410,601,o),
(420,599,o),
(426,599,qs),
(442,599,o),
(481,648,o),
(520,648,qs),
(525,648,l),
(540,646,ls),
(547,646,o),
(555,646,qs),
(568,646,ls),
(573,646,o),
(587,651,o),
(591,656,qs),
(599,664,ls),
(603,668,o),
(615,674,o),
(627,674,qs),
(643,674,o),
(663,647,o),
(667,629,qs),
(669,612,ls),
(673,584,o),
(733,509,o),
(737,480,qs),
(738,465,ls),
(740,433,o),
(783,383,o),
(783,340,qs),
(783,269,o),
(806,204,o),
(806,184,qs),
(806,153,o),
(776,105,o),
(752,105,qs),
(747,105,o),
(730,112,o),
(723,112,qs),
(716,112,o),
(704,107,o),
(698,104,qs),
(685,98,ls),
(678,94,o),
(639,87,o),
(629,87,qs),
(612,87,o),
(578,105,o),
(562,127,o),
(549,127,qs),
(541,127,o),
(520,124,o),
(509,124,qs),
(469,124,o),
(430,155,o),
(420,181,o),
(333,186,o),
(295,228,o),
(295,255,qs),
(295,270,ls),
(295,289,o),
(246,321,o),
(246,348,qs),
(246,359,o),
(254,385,o),
(254,397,qs),
(254,405,o),
(246,423,o),
(246,433,qs),
(246,451,o),
(273,490,o),
(295,503,qs),
(310,512,ls),
(321,518,o)
);
},
{
closed = 1;
nodes = (
(1052,224,o),
(1036,196,o),
(1009,196,qs),
(980,196,o),
(927,232,o),
(927,258,qs),
(927,280,o),
(953,320,o),
(972,320,qs),
(991,320,o),
(1031,300,o),
(1052,279,o),
(1052,256,qs)
);
},
{
closed = 1;
nodes = (
(862,515,o),
(884,522,qs),
(892,524,ls),
(901,527,o),
(921,531,o),
(931,531,qs),
(952,531,o),
(986,492,o),
(986,464,qs),
(986,438,o),
(885,411,o),
(875,411,qs),
(858,411,o),
(840,440,o),
(840,464,q),
(844,495,o)
);
},
{
closed = 1;
nodes = (
(1122,314,o),
(1098,338,o),
(1098,358,qs),
(1098,382,o),
(1125,428,o),
(1142,431,qs),
(1153,432,ls),
(1158,433,o),
(1164,433,qs),
(1207,433,o),
(1241,395,o),
(1241,352,qs),
(1241,332,o),
(1192,314,o),
(1152,314,qs)
);
},
{
closed = 1;
nodes = (
(1126,629,o),
(1181,589,o),
(1181,554,qs),
(1181,529,o),
(1136,502,o),
(1105,502,qs),
(1071,502,o),
(1023,542,o),
(1023,566,qs),
(1023,584,o),
(1041,617,o),
(1063,629,o),
(1085,629,qs)
);
},
{
closed = 1;
nodes = (
(864,736,o),
(908,716,o),
(927,689,o),
(927,660,qs),
(927,640,o),
(914,615,o),
(894,615,qs),
(841,615,o),
(766,652,o),
(766,670,qs),
(766,704,o),
(807,736,o),
(837,736,qs)
);
},
{
closed = 1;
nodes = (
(459,278,o),
(480,266,o),
(489,266,qs),
(510,266,o),
(529,299,o),
(529,320,qs),
(529,340,o),
(519,358,o),
(509,358,qs),
(493,358,o),
(490,330,o),
(482,321,qs),
(472,310,ls),
(467,304,o),
(459,293,o),
(459,287,qs)
);
},
{
closed = 1;
nodes = (
(625,317,o),
(642,305,o),
(651,305,qs),
(652,305,o),
(655,304,o),
(656,304,qs),
(674,304,o),
(694,337,o),
(694,363,qs),
(694,378,o),
(685,397,o),
(675,397,qs),
(658,397,o),
(656,370,o),
(647,360,qs),
(638,349,ls),
(633,343,o),
(625,331,o),
(625,326,qs)
);
},
{
closed = 1;
nodes = (
(587,160,o),
(608,148,o),
(617,148,qs),
(635,148,o),
(657,179,o),
(657,201,qs),
(657,221,o),
(646,239,o),
(636,239,qs),
(621,239,o),
(618,213,o),
(610,203,qs),
(600,192,ls),
(595,186,o),
(587,175,o),
(587,169,qs)
);
}
);
width = 1506;
}
);
note = u1F35B;
unicode = 127835;
},
{
glyphname = u1F35C;
lastChange = "2026-04-01 18:45:46 +0000";
layers = (
{
layerId = "8C7EE80F-D163-4204-B2B9-0AE0B1A3E0A1";
shapes = (
{
closed = 1;
nodes = (
(1200,360,o),
(1109,517,o),
(935,615,o),
(913,615,qs),
(907,615,o),
(894,605,o),
(894,594,qs),
(894,587,o),
(900,584,qs),
(911,577,l),
(1022,532,o),
(1135,418,o),
(1153,338,q),
(1146,351,o),
(1125,378,o),
(1043,444,o),
(1027,447,o),
(988,463,q),
(977,499,o),
(914,539,o),
(874,539,qs),
(842,539,o),
(811,527,q),
(794,543,o),
(751,557,o),
(730,557,qs),
(703,557,o),
(653,539,o),
(632,523,q),
(436,518,o),
(153,381,o),
(139,280,q),
(141,324,o),
(162,396,o),
(212,470,o),
(288,530,o),
(382,574,o),
(415,583,o),
(415,600,qs),
(415,605,o),
(409,615,o),
(403,617,q),
(392,617,l),
(249,569,o),
(100,391,o),
(100,257,qs),
(100,164,o),
(199,-23,o),
(366,-163,o),
(455,-194,q),
(455,-203,ls),
(455,-255,o),
(584,-310,o),
(665,-310,qs),
(751,-310,o),
(877,-254,o),
(878,-204,qs),
(878,-199,o),
(879,-186,o),
(879,-180,q),
(955,-147,o),
(1111,-8,o),
(1200,183,o),
(1200,269,qs)
);
},
{
closed = 1;
nodes = (
(1114,319,o),
(1116,313,q),
(1104,309,o),
(1093,309,q),
(1096,316,o),
(1100,327,o),
(1102,336,q),
(1109,326,ls)
);
},
{
closed = 1;
nodes = (
(1120,269,o),
(1131,272,q),
(1131,261,l),
(1131,259,o),
(1131,247,o),
(1044,247,qs),
(1041,247,l),
(1037,249,o),
(1031,249,q),
(1043,257,ls),
(1049,260,o),
(1055,264,q),
(1070,264,ls),
(1077,265,o),
(1085,265,qs),
(1097,265,o)
);
},
{
closed = 1;
nodes = (
(1108,194,o),
(1105,191,q),
(1093,205,l),
(1116,206,l),
(1110,198,ls)
);
},
{
closed = 1;
nodes = (
(911,164,o),
(870,166,q),
(859,177,ls),
(856,179,o),
(853,184,q),
(902,184,o),
(940,177,o),
(993,144,o),
(1017,120,q),
(992,107,l),
(981,122,o)
);
},
{
closed = 1;
nodes = (
(906,74,o),
(892,71,q),
(891,84,o),
(887,109,o),
(882,121,q),
(887,121,o),
(888,120,q),
(891,120,l),
(906,117,o),
(935,100,o),
(949,89,q),
(921,79,ls)
);
},
{
closed = 1;
nodes = (
(1050,188,o),
(1076,159,q),
(1071,155,o),
(1065,151,qs),
(1054,143,l),
(1034,164,o),
(988,200,o),
(960,212,q),
(1003,210,o)
);
},
{
closed = 1;
nodes = (
(762,265,o),
(796,308,o),
(861,371,o),
(936,415,o),
(972,415,qs),
(1006,415,o),
(1059,378,o),
(1059,346,qs),
(1059,327,o),
(1018,288,o),
(953,263,o),
(918,252,qs),
(858,231,ls),
(840,225,o),
(808,220,o),
(791,220,qs),
(778,220,o),
(762,232,o),
(762,244,qs)
);
},
{
closed = 1;
nodes = (
(788,176,o),
(798,176,q),
(801,177,l),
(805,177,l),
(829,140,o),
(848,88,o),
(850,61,q),
(806,52,l),
(803,96,o),
(780,159,o),
(759,183,q),
(768,178,o)
);
},
{
closed = 1;
nodes = (
(747,45,qs),
(731,44,l),
(729,68,o),
(719,91,q),
(726,99,o),
(739,119,o),
(744,130,q),
(753,111,o),
(762,68,o),
(763,47,q),
(755,45,o)
);
},
{
closed = 1;
nodes = (
(762,445,o),
(839,496,o),
(874,496,qs),
(907,496,o),
(945,462,o),
(945,456,q),
(877,446,o),
(737,313,o),
(727,281,q),
(717,291,o),
(697,309,o),
(683,315,q),
(687,331,o)
);
},
{
closed = 1;
nodes = (
(680,513,o),
(730,513,qs),
(753,513,o),
(770,502,q),
(739,478,o),
(704,440,o),
(651,357,o),
(642,327,q),
(634,329,o),
(619,330,o),
(611,330,qs),
(597,330,o),
(571,326,o),
(559,323,q),
(591,419,o)
);
},
{
closed = 1;
nodes = (
(578,465,ls),
(575,461,o),
(571,454,o),
(571,452,q),
(565,466,o),
(557,475,q),
(589,478,l)
);
},
{
closed = 1;
nodes = (
(460,191,o),
(549,287,o),
(611,287,qs),
(657,287,o),
(715,234,o),
(715,195,qs),
(715,137,o),
(608,55,o),
(546,55,qs),
(510,55,o),
(460,92,o),
(460,122,qs)
);
},
{
closed = 1;
nodes = (
(664,41,o),
(656,41,q),
(663,45,o),
(670,50,qs),
(685,59,l),
(687,49,o),
(687,42,q),
(680,42,o)
);
},
{
closed = 1;
nodes = (
(543,399,q),
(536,385,o),
(531,370,qs),
(519,341,l),
(515,374,o),
(487,435,o),
(465,461,q),
(475,463,o),
(495,467,o),
(506,468,q),
(536,440,o)
);
},
{
closed = 1;
nodes = (
(446,422,o),
(478,348,o),
(478,307,qs),
(478,299,o),
(474,276,o),
(471,271,q),
(468,269,o),
(462,262,o),
(462,258,q),
(426,262,l),
(431,280,o),
(439,312,o),
(439,330,qs),
(439,359,o),
(415,418,o),
(394,443,q),
(416,450,l)
);
},
{
closed = 1;
nodes = (
(371,87,q),
(360,90,o),
(351,94,qs),
(331,102,l),
(343,137,o),
(395,186,o),
(428,195,q),
(423,180,o),
(417,149,o),
(417,132,qs),
(418,122,l),
(392,110,o)
);
},
{
closed = 1;
nodes = (
(275,132,qs),
(259,142,l),
(261,178,o),
(306,235,o),
(334,237,q),
(346,233,o),
(371,225,o),
(385,224,q),
(352,209,o),
(306,155,o),
(293,122,q),
(284,126,o)
);
},
{
closed = 1;
nodes = (
(430,73,ls),
(431,71,o),
(433,68,q),
(429,69,o),
(425,70,qs),
(418,72,l),
(428,78,l)
);
},
{
closed = 1;
nodes = (
(389,369,o),
(395,346,q),
(366,353,o),
(337,396,o),
(337,422,q),
(343,424,ls),
(346,425,o),
(349,427,q),
(366,413,o)
);
},
{
closed = 1;
nodes = (
(289,398,o),
(295,401,q),
(304,360,o),
(352,309,o),
(393,303,q),
(388,281,o),
(381,269,q),
(335,277,o),
(273,337,o),
(273,377,q),
(273,383,ls),
(274,386,o),
(274,389,q),
(279,392,o)
);
},
{
closed = 1;
nodes = (
(285,266,q),
(261,250,o),
(228,202,o),
(220,175,q),
(208,187,o),
(194,211,o),
(189,224,q),
(199,246,o),
(239,288,o),
(256,297,q),
(268,279,o)
);
},
{
closed = 1;
nodes = (
(227,353,o),
(231,357,q),
(232,351,o),
(234,346,qs),
(236,335,l),
(222,327,o),
(200,308,o),
(188,296,q),
(192,307,o),
(205,329,o),
(214,340,qs),
(223,349,ls)
);
},
{
closed = 1;
nodes = (
(1046,-18,o),
(913,-124,o),
(840,-152,o),
(840,-180,qs),
(840,-192,l),
(839,-202,ls),
(838,-232,o),
(733,-271,o),
(665,-271,qs),
(596,-271,o),
(494,-232,o),
(494,-202,qs),
(494,-163,o),
(428,-146,o),
(319,-78,o),
(214,27,o),
(140,178,o),
(139,243,q),
(150,140,o),
(449,-2,o),
(657,-2,qs),
(827,-2,o),
(1092,95,o),
(1148,175,q),
(1131,114,o)
);
},
{
closed = 1;
nodes = (
(646,132,o),
(679,168,o),
(679,193,qs),
(679,221,o),
(644,254,o),
(617,254,qs),
(587,254,o),
(544,220,o),
(544,194,qs),
(544,169,o),
(588,132,o),
(618,132,qs)
);
},
{
closed = 1;
nodes = (
(450,661,o),
(462,630,o),
(462,609,q),
(461,601,o),
(456,584,o),
(456,577,qs),
(456,568,o),
(466,559,o),
(470,559,qs),
(491,559,o),
(538,642,o),
(488,772,o),
(488,805,qs),
(488,834,o),
(508,887,o),
(517,897,o),
(517,908,qs),
(517,924,o),
(501,924,qs),
(469,924,o),
(404,830,o),
(404,780,qs),
(404,759,o),
(412,727,o),
(425,704,qs),
(440,678,ls)
);
},
{
closed = 1;
nodes = (
(736,747,o),
(757,703,o),
(793,646,o),
(795,624,qs),
(795,616,ls),
(795,609,o),
(789,588,o),
(789,578,qs),
(789,568,o),
(798,559,o),
(802,559,qs),
(818,559,o),
(858,614,o),
(858,646,qs),
(858,675,o),
(821,773,o),
(821,804,qs),
(821,829,o),
(833,871,o),
(849,897,o),
(849,908,qs),
(849,924,o),
(833,924,qs),
(803,924,o),
(736,832,o),
(736,780,qs)
);
},
{
closed = 1;
nodes = (
(563,732,o),
(621,646,o),
(621,609,q),
(620,602,o),
(615,585,o),
(615,577,qs),
(615,568,o),
(625,559,o),
(629,559,qs),
(640,559,o),
(680,602,o),
(685,642,q),
(685,673,o),
(647,772,o),
(647,805,qs),
(647,835,o),
(667,886,o),
(676,897,o),
(676,908,qs),
(676,924,o),
(660,924,qs),
(629,924,o),
(563,831,o),
(563,780,qs)
);
}
);
width = 1300;
}
);
note = u1F35C;
unicode = 127836;
},
{
glyphname = u1F35D;
lastChange = "2026-04-01 18:45:46 +0000";
layers = (
{
layerId = "8C7EE80F-D163-4204-B2B9-0AE0B1A3E0A1";
shapes = (
{
closed = 1;
nodes = (
(672,571,o),
(672,611,q),
(690,621,o),
(706,634,qs),
(739,661,ls),
(784,698,o),
(836,729,o),
(923,758,o),
(1045,776,o),
(1074,781,qs),
(1120,790,ls),
(1154,795,o),
(1216,808,o),
(1216,833,qs),
(1216,853,o),
(1179,874,o),
(1155,874,qs),
(1140,874,o),
(1126,870,qs),
(1096,863,ls),
(1066,856,o),
(1034,851,qs),
(972,839,ls),
(881,823,o),
(766,794,o),
(737,777,qs),
(714,761,ls),
(690,747,o),
(657,735,o),
(638,733,q),
(623,759,o),
(569,790,o),
(538,790,qs),
(522,790,o),
(495,780,o),
(488,776,q),
(483,777,o),
(466,781,o),
(457,781,qs),
(453,781,ls),
(439,781,o),
(415,772,o),
(408,768,q),
(392,770,ls),
(383,771,o),
(375,771,qs),
(334,771,o),
(283,706,o),
(283,659,qs),
(283,618,o),
(309,549,o),
(338,519,q),
(338,331,l),
(309,328,o),
(269,306,o),
(243,280,o),
(222,248,o),
(191,227,o),
(165,192,o),
(164,182,o),
(125,131,o),
(100,73,o),
(100,37,qs),
(100,-50,o),
(252,-192,o),
(510,-272,o),
(656,-272,qs),
(805,-272,o),
(1067,-190,o),
(1214,-48,o),
(1214,37,qs),
(1214,95,o),
(1146,192,o),
(1090,232,q),
(1080,247,o),
(1068,260,qs),
(1045,284,o),
(988,317,o),
(980,315,o),
(919,357,o),
(835,381,o),
(781,381,qs),
(769,381,o),
(744,385,o),
(732,389,qs),
(708,395,ls),
(694,397,o),
(662,401,o),
(645,401,qs),
(621,401,o),
(599,398,q),
(599,508,l),
(634,515,o)
);
},
{
closed = 1;
nodes = (
(365,149,qs),
(375,130,l),
(371,125,o),
(348,86,o),
(348,47,qs),
(348,18,o),
(365,-35,o),
(381,-59,q),
(338,-55,o),
(309,-38,o),
(284,25,o),
(284,56,qs),
(284,93,o),
(315,153,o),
(350,167,q),
(359,159,o)
);
},
{
closed = 1;
nodes = (
(205,148,o),
(224,186,o),
(256,205,o),
(268,222,q),
(276,214,o),
(290,196,o),
(300,189,q),
(269,165,o),
(243,99,o),
(241,62,q),
(239,65,o),
(205,104,o),
(205,127,qs)
);
},
{
closed = 1;
nodes = (
(1056,173,o),
(1063,183,q),
(1085,167,o),
(1115,134,o),
(1115,113,qs),
(1115,103,o),
(1104,75,o),
(1096,69,q),
(1084,88,o),
(1044,117,o),
(1023,127,q),
(1038,142,o)
);
},
{
closed = 1;
nodes = (
(996,93,qs),
(1020,79,ls),
(1035,70,o),
(1058,50,o),
(1063,40,q),
(1061,21,o),
(1020,-20,o),
(1000,-29,o),
(972,-35,q),
(980,-12,o),
(980,12,qs),
(980,35,o),
(968,79,o),
(959,100,q),
(965,100,ls),
(968,100,o),
(971,101,q),
(982,101,o)
);
},
{
closed = 1;
nodes = (
(922,-116,o),
(951,-90,o),
(1024,-84,o),
(1101,-24,o),
(1112,15,q),
(1124,22,o),
(1146,42,o),
(1156,62,q),
(1158,56,o),
(1159,43,o),
(1159,37,qs),
(1159,-28,o),
(1025,-149,o),
(794,-218,o),
(656,-218,qs),
(522,-218,o),
(287,-148,o),
(155,-29,o),
(155,37,qs),
(155,57,o),
(161,77,q),
(170,60,o),
(208,22,o),
(214,-9,o),
(235,-49,o),
(276,-87,o),
(342,-112,o),
(463,-120,o),
(492,-134,o),
(571,-159,o),
(619,-159,qs),
(641,-159,o),
(686,-150,o),
(705,-149,q),
(709,-148,l),
(719,-148,o),
(748,-154,o),
(771,-154,qs),
(860,-154,o)
);
},
{
closed = 1;
nodes = (
(481,256,o),
(528,226,o),
(528,209,qs),
(528,194,o),
(499,169,o),
(483,169,qs),
(459,169,o),
(405,200,o),
(405,214,qs),
(405,231,o),
(435,256,o),
(455,256,qs)
);
},
{
closed = 1;
nodes = (
(507,489,o),
(541,495,o),
(556,505,q),
(556,386,l),
(550,384,o),
(537,384,o),
(530,384,qs),
(513,384,o),
(495,383,o),
(488,382,q),
(488,489,l)
);
},
{
closed = 1;
nodes = (
(466,37,o),
(499,-24,o),
(525,-43,q),
(510,-49,o),
(469,-62,o),
(458,-64,qs),
(450,-65,l),
(447,-65,o),
(442,-64,o),
(440,-64,q),
(419,-44,o),
(391,17,o),
(391,47,qs),
(391,62,o),
(398,88,o),
(406,98,q),
(420,90,o),
(451,84,o),
(467,82,q),
(467,75,ls),
(466,71,o),
(466,67,qs)
);
},
{
closed = 1;
nodes = (
(509,40,o),
(509,67,qs),
(509,75,o),
(511,79,q),
(563,78,ls),
(588,78,o),
(613,72,q),
(615,69,l),
(618,61,o),
(618,53,qs),
(618,35,o),
(593,-1,o),
(571,-17,q),
(552,-17,o)
);
},
{
closed = 1;
nodes = (
(429,361,o),
(398,343,o),
(381,337,q),
(381,492,l),
(391,489,o),
(411,485,o),
(420,485,qs),
(426,485,o),
(439,487,o),
(445,489,q),
(445,368,l)
);
},
{
closed = 1;
nodes = (
(936,-30,o),
(880,-84,o),
(847,-94,q),
(863,-72,o),
(877,-25,o),
(877,1,qs),
(877,24,o),
(868,70,o),
(860,90,q),
(879,99,ls),
(888,103,o),
(900,103,qs),
(909,103,l),
(921,80,o),
(936,34,o),
(936,12,qs)
);
},
{
closed = 1;
nodes = (
(820,314,o),
(842,325,o),
(855,325,qs),
(877,325,o),
(919,291,o),
(919,271,qs),
(919,255,o),
(893,238,o),
(877,238,qs),
(860,238,o),
(815,283,o),
(815,299,q),
(816,300,o),
(816,302,q),
(817,305,ls)
);
},
{
closed = 1;
nodes = (
(833,18,o),
(833,1,qs),
(833,-33,o),
(805,-85,o),
(768,-100,q),
(754,-100,o),
(727,-94,o),
(713,-94,q),
(739,-66,o),
(763,3,o),
(763,38,qs),
(763,49,l),
(761,58,l),
(776,60,o),
(807,66,o),
(820,71,q),
(827,54,o)
);
},
{
closed = 1;
nodes = (
(672,224,o),
(706,238,o),
(723,238,qs),
(745,238,o),
(788,202,o),
(788,178,qs),
(788,165,o),
(759,148,o),
(739,148,qs),
(724,148,o),
(703,159,o),
(695,170,qs),
(687,182,ls),
(681,191,o),
(672,205,o),
(672,213,qs)
);
},
{
closed = 1;
nodes = (
(719,43,qs),
(719,-7,o),
(672,-84,o),
(628,-105,q),
(600,-105,o),
(552,-98,o),
(528,-88,q),
(584,-68,o),
(661,9,o),
(661,53,qs),
(660,64,l),
(675,61,o),
(703,56,o),
(719,56,q),
(719,52,o)
);
},
{
closed = 1;
nodes = (
(628,332,o),
(648,307,o),
(648,291,qs),
(648,281,o),
(629,276,o),
(579,263,o),
(562,263,qs),
(549,263,o),
(529,284,o),
(529,299,qs),
(529,314,o),
(573,330,o),
(598,331,qs),
(613,332,ls)
);
},
{
closed = 1;
nodes = (
(585,606,o),
(560,673,o),
(543,684,q),
(541,687,o),
(535,688,o),
(534,688,qs),
(528,688,o),
(522,680,o),
(522,673,qs),
(522,671,o),
(523,665,qs),
(531,639,ls),
(534,631,o),
(540,601,o),
(540,585,qs),
(540,565,o),
(515,543,o),
(496,543,qs),
(492,543,o),
(485,544,o),
(485,549,qs),
(485,570,ls),
(485,606,o),
(452,676,o),
(436,676,qs),
(432,676,o),
(426,667,o),
(426,661,qs),
(426,651,o),
(444,600,o),
(444,576,qs),
(444,560,o),
(433,539,o),
(420,539,qs),
(380,539,o),
(337,622,o),
(337,659,qs),
(337,690,o),
(360,717,o),
(377,717,qs),
(385,717,o),
(405,712,o),
(412,712,qs),
(420,712,o),
(447,728,o),
(457,728,qs),
(466,728,o),
(481,720,o),
(490,720,qs),
(496,720,o),
(502,722,qs),
(513,727,ls),
(518,730,o),
(530,735,o),
(538,735,qs),
(576,735,o),
(617,659,o),
(617,612,qs),
(617,588,o),
(600,560,o),
(585,560,q),
(585,570,ls)
);
}
);
width = 1316;
}
);
note = u1F35D;
unicode = 127837;
},
{
glyphname = u1F360;
lastChange = "2026-04-01 18:45:46 +0000";
layers = (
{
layerId = "8C7EE80F-D163-4204-B2B9-0AE0B1A3E0A1";
shapes = (
{
closed = 1;
nodes = (
(1240,-17,o),
(1181,22,o),
(1139,170,qs),
(1133,188,o),
(1095,234,o),
(1078,311,o),
(1068,336,o),
(992,479,o),
(913,586,o),
(865,629,o),
(785,714,o),
(734,755,o),
(709,785,o),
(642,816,o),
(597,816,qs),
(575,816,o),
(538,819,o),
(521,819,qs),
(512,820,ls),
(451,820,o),
(313,768,o),
(264,733,qs),
(227,707,o),
(182,656,o),
(149,600,o),
(143,567,o),
(116,511,o),
(104,482,o),
(100,420,qs),
(100,414,o),
(101,403,o),
(101,398,qs),
(101,387,ls),
(101,370,o),
(105,351,qs),
(110,313,o),
(134,263,o),
(149,250,o),
(149,242,o),
(163,223,qs),
(182,198,ls),
(268,78,o),
(654,-129,o),
(889,-129,qs),
(935,-129,o),
(1034,-115,o),
(1086,-111,o),
(1130,-98,qs),
(1162,-88,ls),
(1156,-90,o),
(1240,-70,o),
(1240,-37,qs)
);
},
{
closed = 1;
nodes = (
(692,29,o),
(674,16,o),
(665,16,qs),
(649,16,o),
(622,57,o),
(607,60,qs),
(591,61,ls),
(571,64,o),
(540,75,o),
(540,83,qs),
(540,95,o),
(569,109,o),
(595,109,qs),
(647,109,o),
(692,58,o),
(692,42,qs)
);
},
{
closed = 1;
nodes = (
(743,568,o),
(701,375,o),
(573,254,o),
(418,208,o),
(375,208,qs),
(324,208,o),
(209,260,o),
(161,342,o),
(161,421,qs),
(161,473,o),
(198,535,o),
(211,599,o),
(292,688,o),
(448,759,o),
(513,759,qs),
(534,759,o),
(573,755,o),
(592,755,qs),
(627,755,o),
(676,733,o),
(689,716,o),
(729,662,o),
(743,614,o),
(743,593,qs)
);
},
{
closed = 1;
nodes = (
(922,44,o),
(910,31,o),
(904,31,qs),
(899,31,o),
(890,38,o),
(885,43,qs),
(876,53,ls),
(867,61,o),
(812,67,o),
(812,88,qs),
(812,101,o),
(841,122,o),
(854,122,qs),
(879,122,o),
(922,79,o),
(922,55,qs)
);
},
{
closed = 1;
nodes = (
(926,258,o),
(911,248,o),
(902,248,qs),
(865,248,o),
(827,290,o),
(827,333,qs),
(827,352,o),
(837,374,o),
(847,374,qs),
(865,374,o),
(877,322,o),
(890,312,qs),
(906,299,ls),
(914,293,o),
(926,278,o),
(926,269,qs)
);
},
{
closed = 1;
nodes = (
(1106,-11,o),
(1099,-17,o),
(1094,-17,qs),
(1062,-17,o),
(1024,29,o),
(1024,61,qs),
(1024,72,o),
(1037,83,o),
(1045,83,qs),
(1065,83,o),
(1079,21,o),
(1106,3,o),
(1106,-6,qs)
);
}
);
width = 1340;
}
);
note = u1F360;
unicode = 127840;
},
{
glyphname = u1F361;
lastChange = "2026-04-01 18:45:46 +0000";
layers = (
{
layerId = "8C7EE80F-D163-4204-B2B9-0AE0B1A3E0A1";
shapes = (
{
closed = 1;
nodes = (
(1024,-195,o),
(1000,-171,o),
(991,-160,qs),
(973,-139,l),
(997,-112,o),
(1024,-30,o),
(1024,2,qs),
(1024,67,o),
(938,171,o),
(869,187,q),
(869,197,o),
(873,218,o),
(873,229,qs),
(873,307,o),
(768,426,o),
(690,443,q),
(693,454,o),
(695,482,o),
(695,493,qs),
(695,597,o),
(535,742,o),
(428,742,qs),
(385,742,o),
(304,718,o),
(271,699,q),
(223,762,l),
(209,780,ls),
(196,797,o),
(168,817,o),
(151,817,qs),
(130,817,o),
(100,786,o),
(100,768,qs),
(100,743,o),
(163,679,o),
(174,665,qs),
(197,640,l),
(164,603,o),
(125,500,o),
(125,438,qs),
(125,389,o),
(181,262,o),
(290,191,o),
(373,191,q),
(373,188,ls),
(373,185,o),
(373,182,qs),
(373,136,o),
(425,23,o),
(521,-36,o),
(587,-36,q),
(587,-77,o),
(631,-176,o),
(716,-229,o),
(772,-229,qs),
(808,-229,o),
(880,-207,o),
(912,-188,q),
(929,-207,ls),
(948,-229,o),
(971,-246,o),
(982,-246,qs),
(997,-246,o),
(1024,-226,o),
(1024,-210,qs)
);
},
{
closed = 1;
nodes = (
(534,19,o),
(463,65,o),
(427,151,o),
(427,181,q),
(428,186,o),
(428,190,qs),
(428,197,l),
(484,208,o),
(583,261,o),
(653,330,o),
(675,389,q),
(717,372,o),
(766,282,o),
(766,223,qs),
(766,180,o),
(736,95,o),
(686,45,o),
(654,35,o),
(618,19,o),
(585,19,qs)
);
},
{
closed = 1;
nodes = (
(267,560,o),
(285,560,qs),
(303,560,o),
(334,584,o),
(334,603,qs),
(334,616,o),
(314,644,o),
(303,656,q),
(328,670,o),
(393,688,o),
(426,688,qs),
(490,688,o),
(580,566,o),
(580,500,qs),
(580,447,o),
(540,354,o),
(465,283,o),
(372,244,o),
(330,246,o),
(267,266,o),
(211,320,o),
(179,408,o),
(179,437,qs),
(179,486,o),
(208,567,o),
(233,599,q),
(234,597,o)
);
},
{
closed = 1;
nodes = (
(696,-18,o),
(781,31,o),
(832,80,o),
(850,125,q),
(885,105,o),
(927,26,o),
(927,-16,qs),
(927,-77,o),
(835,-174,o),
(772,-174,qs),
(727,-174,o),
(669,-134,o),
(641,-62,o),
(641,-40,qs),
(641,-30,l)
);
}
);
width = 1124;
}
);
note = u1F361;
unicode = 127841;
},
{
glyphname = u1F362;
lastChange = "2026-04-01 18:45:46 +0000";
layers = (
{
layerId = "8C7EE80F-D163-4204-B2B9-0AE0B1A3E0A1";
shapes = (
{
closed = 1;
nodes = (
(1143,232,o),
(1143,291,qs),
(1143,356,o),
(1039,454,o),
(972,454,qs),
(939,454,o),
(875,431,o),
(848,411,q),
(831,465,o),
(758,530,o),
(707,546,q),
(736,574,o),
(766,629,o),
(766,655,qs),
(766,704,o),
(678,775,o),
(561,822,o),
(351,836,o),
(318,836,qs),
(229,836,o),
(145,801,o),
(100,717,o),
(100,631,qs),
(100,516,o),
(121,321,o),
(141,239,o),
(236,165,o),
(288,165,qs),
(313,165,o),
(356,186,o),
(379,204,q),
(396,166,o),
(453,107,o),
(494,93,q),
(462,61,o),
(420,-13,o),
(420,-54,qs),
(420,-114,o),
(530,-237,o),
(613,-237,qs),
(667,-237,o),
(772,-172,o),
(829,-109,qs),
(889,-42,l),
(908,-62,o),
(1002,-169,o),
(1029,-190,o),
(1041,-190,qs),
(1056,-190,o),
(1081,-168,o),
(1081,-157,qs),
(1081,-141,o),
(1071,-130,qs),
(1050,-108,ls),
(1042,-100,o),
(1035,-91,qs),
(1021,-73,ls),
(1002,-50,o),
(964,-5,o),
(946,18,q),
(1030,103,o)
);
},
{
closed = 1;
nodes = (
(742,-126,o),
(654,-183,o),
(613,-183,qs),
(573,-183,o),
(521,-148,o),
(474,-91,o),
(474,-55,qs),
(474,-24,o),
(516,42,o),
(559,79,q),
(573,78,ls),
(579,78,o),
(587,78,qs),
(668,78,o),
(799,141,o),
(859,240,o),
(859,322,q),
(859,330,o),
(859,336,qs),
(858,350,l),
(882,374,o),
(941,399,o),
(972,399,qs),
(1025,399,o),
(1088,326,o),
(1088,289,qs),
(1088,251,o),
(1004,157,o),
(980,132,qs),
(799,-60,l)
);
},
{
closed = 1;
nodes = (
(401,292,o),
(364,262,qs),
(324,231,l),
(299,231,o),
(288,339,o),
(269,500,o),
(269,575,qs),
(269,624,o),
(294,669,o),
(350,684,o),
(417,684,qs),
(444,683,o),
(467,683,qs),
(552,681,ls),
(572,680,o),
(592,680,qs),
(644,680,o),
(702,667,o),
(713,655,q),
(713,640,o),
(683,599,o),
(660,575,qs),
(632,546,ls),
(603,515,o)
);
},
{
closed = 1;
nodes = (
(711,202,o),
(696,189,o),
(691,189,qs),
(687,189,l),
(678,189,ls),
(672,189,o),
(661,184,o),
(655,184,qs),
(648,184,o),
(640,193,o),
(640,197,qs),
(640,209,o),
(669,222,o),
(688,222,qs),
(701,222,o),
(711,216,o),
(711,210,qs)
);
},
{
closed = 1;
nodes = (
(707,385,o),
(719,399,o),
(725,399,qs),
(731,399,o),
(738,391,o),
(741,385,qs),
(748,373,ls),
(752,367,o),
(770,355,o),
(770,343,qs),
(770,337,o),
(760,325,o),
(750,325,qs),
(732,325,o),
(707,353,o),
(707,372,qs)
);
},
{
closed = 1;
nodes = (
(154,703,o),
(187,761,o),
(252,782,o),
(318,782,qs),
(340,782,o),
(385,779,o),
(408,778,q),
(407,775,o),
(406,769,o),
(406,766,qs),
(406,760,o),
(414,748,o),
(424,748,qs),
(438,748,o),
(452,763,o),
(452,774,q),
(511,774,o),
(620,745,o),
(656,719,q),
(638,722,o),
(493,727,o),
(461,727,qs),
(436,726,o),
(413,726,qs),
(364,725,l),
(313,721,o),
(272,704,o),
(243,673,o),
(226,621,o),
(226,575,qs),
(226,502,o),
(242,364,o),
(249,294,qs),
(254,259,ls),
(257,240,o),
(269,221,q),
(235,228,o),
(187,275,o),
(177,321,o),
(159,457,o),
(156,534,q),
(159,533,o),
(166,531,o),
(169,531,qs),
(183,531,o),
(196,546,o),
(196,552,qs),
(196,562,o),
(180,578,o),
(169,578,qs),
(166,578,o),
(158,574,o),
(155,574,q),
(155,592,o),
(154,628,o),
(154,646,qs)
);
},
{
closed = 1;
nodes = (
(489,294,o),
(489,308,qs),
(489,318,o),
(504,318,qs),
(530,318,o),
(557,298,o),
(557,279,qs),
(557,261,o),
(541,235,o),
(530,235,qs),
(526,235,o),
(521,247,o),
(521,256,qs),
(522,264,ls),
(522,279,o)
);
},
{
closed = 1;
nodes = (
(550,-45,ls),
(534,-45,o),
(510,-53,o),
(510,-61,qs),
(510,-75,o),
(556,-95,o),
(564,-132,o),
(592,-153,o),
(610,-153,qs),
(628,-153,o),
(645,-132,o),
(645,-117,qs),
(645,-91,o),
(594,-51,o),
(563,-46,qs),
(558,-45,l)
);
},
{
closed = 1;
nodes = (
(333,580,o),
(346,562,o),
(354,562,qs),
(364,562,o),
(380,588,o),
(380,601,qs),
(380,611,o),
(370,627,o),
(358,627,qs),
(346,627,o),
(333,605,o),
(333,592,qs)
);
},
{
closed = 1;
nodes = (
(495,578,o),
(495,589,qs),
(495,599,o),
(477,613,o),
(467,613,qs),
(456,613,o),
(447,600,o),
(447,595,qs),
(447,586,o),
(464,570,o),
(475,569,qs),
(486,569,o)
);
},
{
closed = 1;
nodes = (
(234,683,o),
(251,695,o),
(251,710,qs),
(251,722,o),
(239,738,o),
(228,738,qs),
(219,738,o),
(208,720,o),
(208,709,qs),
(208,696,o),
(220,683,o),
(227,683,qs)
);
},
{
closed = 1;
nodes = (
(365,481,o),
(350,468,o),
(350,458,qs),
(350,449,o),
(366,435,o),
(377,435,qs),
(391,435,o),
(403,449,o),
(403,457,qs),
(403,466,o),
(388,481,o),
(377,481,qs)
);
},
{
closed = 1;
nodes = (
(477,476,o),
(489,495,o),
(489,503,qs),
(489,513,o),
(478,530,o),
(467,530,qs),
(457,530,o),
(449,514,o),
(449,505,qs),
(449,494,o),
(458,476,o),
(467,476,qs)
);
},
{
closed = 1;
nodes = (
(224,347,o),
(235,365,o),
(235,374,qs),
(235,384,o),
(224,401,o),
(213,401,qs),
(203,401,o),
(194,385,o),
(194,375,qs),
(194,364,o),
(204,347,o),
(213,347,qs)
);
},
{
closed = 1;
nodes = (
(563,601,o),
(580,574,o),
(589,574,qs),
(600,574,o),
(612,592,o),
(612,601,qs),
(612,612,o),
(593,625,o),
(582,625,qs),
(574,625,o),
(563,618,o),
(563,609,qs)
);
},
{
closed = 1;
nodes = (
(385,369,o),
(370,376,o),
(362,376,qs),
(351,376,o),
(332,365,o),
(332,355,qs),
(332,346,o),
(351,334,o),
(361,334,qs),
(372,334,o),
(385,348,o),
(385,359,qs)
);
}
);
width = 1243;
}
);
note = u1F362;
unicode = 127842;
},
{
glyphname = u1F363;
lastChange = "2026-04-01 18:45:46 +0000";
layers = (
{
layerId = "8C7EE80F-D163-4204-B2B9-0AE0B1A3E0A1";
shapes = (
{
closed = 1;
nodes = (
(1266,194,o),
(1266,214,qs),
(1266,254,o),
(1209,325,o),
(1098,383,o),
(984,394,q),
(1000,420,o),
(1012,479,o),
(1012,509,qs),
(1012,538,o),
(1008,564,q),
(1038,581,o),
(1060,612,o),
(1060,629,qs),
(1060,668,ls),
(1060,707,o),
(1032,763,o),
(989,778,qs),
(964,787,ls),
(859,819,o),
(763,834,o),
(723,834,qs),
(619,834,o),
(372,740,o),
(251,653,qs),
(214,628,ls),
(142,578,o),
(100,498,o),
(100,455,qs),
(100,420,o),
(135,363,o),
(173,350,q),
(172,345,o),
(172,336,qs),
(172,242,o),
(258,146,o),
(384,130,q),
(362,106,o),
(338,48,o),
(338,20,qs),
(338,-13,o),
(375,-57,o),
(405,-60,q),
(403,-72,o),
(401,-95,o),
(401,-107,qs),
(401,-178,o),
(460,-274,o),
(625,-314,o),
(686,-314,qs),
(766,-314,o),
(931,-257,o),
(1157,-118,o),
(1241,-12,o),
(1241,71,qs),
(1241,105,o),
(1234,139,q),
(1250,152,o)
);
},
{
closed = 1;
nodes = (
(1187,-14,o),
(1052,-125,o),
(800,-261,o),
(686,-261,qs),
(636,-261,o),
(525,-235,o),
(479,-210,o),
(455,-146,o),
(455,-107,qs),
(455,-83,o),
(460,-60,q),
(564,-60,o),
(696,-104,o),
(746,-104,qs),
(772,-104,o),
(813,-84,o),
(990,15,o),
(1003,19,o),
(1060,48,qs),
(1099,68,ls),
(1119,78,o),
(1162,97,o),
(1185,108,q),
(1186,98,o),
(1187,77,o),
(1187,67,qs)
);
},
{
closed = 1;
nodes = (
(244,239,o),
(225,298,o),
(225,331,qs),
(225,335,o),
(227,337,q),
(233,336,o),
(385,298,o),
(438,298,qs),
(471,298,o),
(518,310,o),
(577,336,o),
(625,367,o),
(681,396,o),
(695,405,q),
(697,389,o),
(698,358,o),
(698,342,q),
(643,323,o),
(478,220,o),
(431,178,q),
(411,180,o),
(363,188,o),
(338,195,qs),
(312,201,ls),
(275,210,o)
);
},
{
closed = 1;
nodes = (
(677,781,o),
(723,781,qs),
(778,781,o),
(882,756,o),
(935,739,q),
(890,729,o),
(808,695,o),
(773,680,q),
(754,689,ls),
(736,699,o),
(593,743,o),
(543,746,q),
(586,761,o)
);
},
{
closed = 1;
nodes = (
(1005,621,o),
(935,596,o),
(839,546,q),
(835,586,o),
(823,628,o),
(814,639,q),
(873,665,o),
(961,692,o),
(994,692,qs),
(1000,691,o),
(1004,691,q),
(1005,668,l),
(1005,629,ls)
);
},
{
closed = 1;
nodes = (
(451,51,o),
(437,56,o),
(437,65,qs),
(437,79,o),
(484,94,o),
(530,94,qs),
(571,94,o),
(668,76,o),
(735,52,o),
(760,52,qs),
(776,52,o),
(867,117,o),
(1008,193,o),
(1135,231,o),
(1170,231,qs),
(1183,231,o),
(1202,223,o),
(1202,213,qs),
(1202,198,o),
(1129,194,o),
(927,108,o),
(799,6,o),
(753,6,qs),
(736,6,o),
(591,52,o),
(550,52,qs),
(526,52,o),
(478,51,o),
(461,51,qs)
);
},
{
closed = 1;
nodes = (
(898,394,o),
(861,389,o),
(843,385,q),
(843,398,o),
(841,421,o),
(841,433,qs),
(842,486,l),
(868,500,o),
(922,528,o),
(950,541,qs),
(956,543,l),
(957,534,o),
(958,514,o),
(958,505,qs),
(958,476,o),
(943,424,o),
(928,407,qs),
(917,395,l)
);
},
{
closed = 1;
nodes = (
(368,663,o),
(370,663,qs),
(395,663,o),
(525,636,o),
(608,618,o),
(630,604,q),
(593,580,ls),
(561,560,o),
(498,507,o),
(470,489,q),
(466,488,ls),
(465,488,o),
(461,488,qs),
(451,488,o),
(423,499,o),
(311,523,qs),
(219,542,l),
(198,546,l),
(227,572,o),
(308,630,o),
(362,662,q),
(365,662,o)
);
},
{
closed = 1;
nodes = (
(387,352,o),
(233,391,o),
(154,409,o),
(154,455,qs),
(154,465,o),
(157,485,o),
(162,495,q),
(189,495,o),
(288,472,o),
(392,452,o),
(442,433,o),
(461,433,qs),
(482,433,o),
(525,461,o),
(544,475,qs),
(585,506,ls),
(605,521,o),
(645,550,o),
(667,562,q),
(676,543,o),
(684,496,o),
(689,463,q),
(622,423,ls),
(568,391,o),
(503,361,o),
(467,352,o),
(438,352,qs)
);
}
);
width = 1366;
}
);
note = u1F363;
unicode = 127843;
},
{
glyphname = u1F364;
lastChange = "2026-04-01 18:45:46 +0000";
layers = (
{
layerId = "8C7EE80F-D163-4204-B2B9-0AE0B1A3E0A1";
shapes = (
{
closed = 1;
nodes = (
(1265,663,o),
(1246,691,o),
(1216,695,o),
(1216,702,qs),
(1216,707,o),
(1225,723,o),
(1225,735,qs),
(1225,765,o),
(1161,811,o),
(1126,811,qs),
(1118,811,o),
(1095,800,o),
(1088,800,qs),
(1076,800,o),
(1050,823,o),
(1034,823,qs),
(989,823,o),
(923,704,o),
(923,608,qs),
(923,596,o),
(923,590,q),
(915,590,o),
(902,593,o),
(898,593,qs),
(874,593,o),
(835,564,o),
(826,540,q),
(803,531,o),
(775,500,o),
(770,481,q),
(745,476,o),
(711,442,o),
(705,421,q),
(687,418,o),
(645,406,o),
(630,391,qs),
(627,388,l),
(619,380,ls),
(615,377,o),
(611,371,q),
(604,374,o),
(589,375,o),
(578,375,qs),
(557,375,o),
(514,352,o),
(505,336,q),
(492,341,o),
(478,341,qs),
(456,341,o),
(413,322,o),
(397,307,q),
(378,318,o),
(356,318,qs),
(340,318,o),
(307,306,o),
(295,294,q),
(272,302,o),
(247,302,qs),
(213,302,o),
(162,251,o),
(159,215,q),
(134,204,o),
(100,147,o),
(100,112,qs),
(100,92,o),
(116,55,o),
(132,42,q),
(132,36,o),
(131,27,o),
(131,23,qs),
(131,-3,o),
(162,-45,o),
(184,-49,q),
(193,-80,o),
(246,-112,o),
(280,-112,qs),
(291,-112,l),
(305,-129,o),
(354,-147,o),
(382,-147,qs),
(395,-147,o),
(419,-137,o),
(426,-132,q),
(435,-137,o),
(459,-143,o),
(473,-143,qs),
(497,-143,o),
(545,-124,o),
(558,-107,q),
(566,-108,l),
(574,-109,ls),
(579,-110,o),
(584,-110,qs),
(602,-110,o),
(643,-89,o),
(659,-69,q),
(701,-69,o),
(756,-41,o),
(771,-12,qs),
(774,-6,l),
(808,-2,o),
(865,52,o),
(870,83,q),
(887,87,o),
(915,105,o),
(942,136,o),
(964,199,o),
(965,209,q),
(984,218,o),
(1016,256,o),
(1024,279,q),
(1045,288,o),
(1069,323,o),
(1071,349,q),
(1085,359,o),
(1100,393,o),
(1100,413,qs),
(1100,427,o),
(1093,455,o),
(1083,468,q),
(1097,475,o),
(1111,483,qs),
(1139,500,ls),
(1168,519,o),
(1224,556,o),
(1265,612,o),
(1265,643,qs)
);
},
{
closed = 1;
nodes = (
(1007,696,o),
(1027,725,o),
(1038,725,qs),
(1047,725,o),
(1057,709,o),
(1057,698,qs),
(1057,673,o),
(1022,611,o),
(1007,611,qs),
(1001,611,o),
(996,622,o),
(996,632,qs),
(996,646,o),
(1000,662,qs),
(1005,684,ls)
);
},
{
closed = 1;
nodes = (
(1033,362,o),
(1033,358,qs),
(1033,321,o),
(988,313,o),
(988,302,q),
(989,300,l),
(989,285,o),
(951,239,o),
(924,239,q),
(924,231,o),
(926,220,o),
(926,214,qs),
(926,208,o),
(918,193,o),
(915,163,o),
(881,127,o),
(841,116,o),
(831,102,o),
(831,93,qs),
(831,87,ls),
(831,70,o),
(787,33,o),
(766,32,qs),
(739,32,o),
(741,6,o),
(703,-32,o),
(635,-32,q),
(632,-46,o),
(596,-71,o),
(584,-71,qs),
(574,-71,o),
(558,-66,o),
(546,-66,qs),
(541,-66,o),
(535,-71,o),
(533,-74,qs),
(529,-80,ls),
(523,-91,o),
(492,-104,o),
(473,-104,qs),
(464,-104,o),
(451,-100,o),
(445,-97,qs),
(435,-92,ls),
(431,-90,o),
(425,-90,qs),
(420,-90,o),
(390,-107,o),
(379,-108,q),
(359,-108,o),
(327,-95,o),
(320,-85,qs),
(315,-77,ls),
(313,-73,o),
(308,-67,o),
(306,-67,qs),
(300,-67,o),
(288,-73,o),
(284,-73,qs),
(280,-73,ls),
(251,-73,o),
(220,-46,o),
(219,-16,o),
(170,-7,o),
(170,21,qs),
(170,28,o),
(172,43,o),
(172,50,qs),
(172,65,o),
(158,69,o),
(139,94,o),
(139,112,qs),
(139,140,o),
(172,184,o),
(195,185,o),
(197,200,q),
(197,237,o),
(234,263,o),
(247,263,qs),
(259,263,o),
(274,259,o),
(281,257,qs),
(292,253,ls),
(297,251,o),
(304,251,qs),
(310,251,o),
(334,279,o),
(356,279,qs),
(373,279,o),
(397,258,o),
(403,258,qs),
(411,258,o),
(422,280,o),
(459,303,o),
(478,303,qs),
(486,303,o),
(510,290,o),
(518,290,qs),
(524,290,o),
(538,319,o),
(566,336,o),
(578,336,qs),
(589,336,o),
(601,333,o),
(606,332,qs),
(614,328,ls),
(618,327,o),
(623,327,qs),
(628,327,o),
(631,330,qs),
(635,338,l),
(639,347,o),
(675,380,o),
(738,382,o),
(741,394,qs),
(744,411,ls),
(748,428,o),
(772,443,o),
(787,443,qs),
(804,443,o),
(807,481,o),
(839,509,o),
(857,509,q),
(857,523,o),
(882,554,o),
(898,554,qs),
(905,554,o),
(914,552,o),
(917,550,qs),
(922,547,ls),
(924,546,o),
(927,546,qs),
(929,546,o),
(942,558,o),
(953,558,qs),
(984,558,o),
(1000,523,o),
(1008,525,o),
(1041,511,o),
(1041,489,qs),
(1040,471,ls),
(1040,460,o),
(1061,430,o),
(1061,413,qs),
(1061,399,o),
(1046,374,o),
(1030,373,q),
(1030,368,o)
);
},
{
closed = 1;
nodes = (
(1168,618,o),
(1106,578,o),
(1087,578,qs),
(1083,578,o),
(1075,581,o),
(1075,585,qs),
(1075,608,o),
(1124,652,o),
(1147,652,qs),
(1153,652,o),
(1168,643,o),
(1168,633,qs)
);
}
);
width = 1365;
}
);
note = u1F364;
unicode = 127844;
},
{
glyphname = u1F365;
lastChange = "2026-04-01 18:45:46 +0000";
layers = (
{
layerId = "8C7EE80F-D163-4204-B2B9-0AE0B1A3E0A1";
shapes = (
{
closed = 1;
nodes = (
(1030,198,o),
(1051,218,o),
(1075,254,o),
(1075,276,qs),
(1075,302,o),
(1027,350,o),
(1027,372,qs),
(1027,391,o),
(1057,447,o),
(1057,463,qs),
(1057,489,o),
(1011,571,o),
(986,584,qs),
(969,592,ls),
(949,602,o),
(928,625,o),
(922,641,qs),
(908,670,ls),
(885,719,o),
(833,750,o),
(793,750,qs),
(780,750,o),
(760,747,o),
(754,747,q),
(739,773,ls),
(730,791,o),
(687,822,o),
(660,822,qs),
(623,822,o),
(560,776,o),
(553,775,q),
(531,788,ls),
(511,799,o),
(470,814,o),
(452,814,qs),
(408,814,o),
(360,743,o),
(360,716,q),
(352,716,o),
(336,717,o),
(327,717,qs),
(275,717,o),
(219,656,o),
(219,595,qs),
(219,573,ls),
(219,566,o),
(218,561,q),
(157,537,o),
(123,497,o),
(123,470,qs),
(123,448,o),
(151,397,o),
(153,389,qs),
(158,378,ls),
(160,371,o),
(162,367,q),
(161,366,o),
(100,289,o),
(100,253,qs),
(100,220,o),
(138,159,o),
(186,127,q),
(184,112,o),
(182,83,o),
(182,69,qs),
(182,8,o),
(268,-56,o),
(341,-56,qs),
(384,-56,o),
(410,-110,o),
(462,-152,o),
(494,-152,qs),
(510,-152,o),
(542,-140,o),
(556,-128,qs),
(567,-118,ls),
(573,-114,o),
(586,-107,o),
(592,-107,qs),
(604,-107,o),
(664,-150,o),
(699,-150,qs),
(720,-150,o),
(753,-132,o),
(763,-120,qs),
(770,-109,l),
(773,-105,l),
(785,-89,o),
(807,-79,o),
(822,-79,qs),
(828,-79,o),
(845,-80,o),
(854,-80,qs),
(901,-80,o),
(952,-22,o),
(954,36,o),
(998,48,o),
(1045,88,o),
(1045,120,qs),
(1045,137,o),
(1030,188,o),
(1030,191,qs)
);
},
{
closed = 1;
nodes = (
(977,317,o),
(926,273,o),
(926,258,qs),
(926,251,o),
(930,241,qs),
(945,197,ls),
(949,187,o),
(949,180,qs),
(949,160,o),
(885,143,o),
(856,125,o),
(856,93,qs),
(856,57,o),
(836,31,o),
(811,31,qs),
(797,31,o),
(767,36,o),
(752,36,qs),
(725,36,o),
(687,-12,o),
(671,-40,o),
(655,-40,qs),
(633,-40,o),
(561,7,o),
(542,7,qs),
(526,7,o),
(468,-42,o),
(449,-42,qs),
(421,-42,o),
(386,48,o),
(353,48,qs),
(338,48,o),
(293,47,o),
(270,47,qs),
(256,47,o),
(237,55,o),
(237,66,qs),
(237,94,ls),
(237,110,o),
(243,142,o),
(243,152,qs),
(243,179,o),
(201,213,o),
(154,236,o),
(154,254,qs),
(154,277,o),
(215,344,o),
(215,367,qs),
(215,380,o),
(197,426,o),
(178,455,o),
(178,468,qs),
(178,492,o),
(258,514,o),
(275,560,o),
(275,611,qs),
(275,642,o),
(298,663,o),
(327,663,qs),
(345,663,l),
(362,662,ls),
(385,662,o),
(409,682,o),
(418,737,o),
(439,760,o),
(452,760,qs),
(467,760,o),
(495,747,o),
(508,740,qs),
(532,726,ls),
(543,720,o),
(550,720,qs),
(573,720,o),
(641,765,o),
(655,767,q),
(660,767,ls),
(682,767,o),
(708,716,o),
(726,693,o),
(751,693,qs),
(762,693,o),
(783,696,o),
(793,696,qs),
(822,696,o),
(840,681,o),
(840,665,qs),
(840,647,ls),
(840,637,o),
(840,626,qs),
(840,573,o),
(897,558,o),
(920,552,qs),
(939,547,o),
(961,531,o),
(961,518,qs),
(961,497,o),
(916,437,o),
(916,417,qs),
(916,410,o),
(922,391,o),
(933,383,qs),
(952,368,ls),
(962,361,o),
(977,344,o),
(977,334,qs)
);
},
{
closed = 1;
nodes = (
(824,374,o),
(789,463,o),
(686,512,o),
(640,512,qs),
(559,512,o),
(453,418,o),
(453,339,qs),
(453,283,o),
(523,240,o),
(562,240,qs),
(603,240,o),
(671,281,o),
(671,312,qs),
(671,329,o),
(642,359,o),
(626,359,qs),
(610,359,o),
(588,331,o),
(573,331,qs),
(559,331,o),
(535,352,o),
(535,367,qs),
(535,396,o),
(604,434,o),
(630,434,qs),
(680,434,o),
(738,376,o),
(738,329,qs),
(738,262,o),
(623,164,o),
(553,164,qs),
(476,164,o),
(382,257,o),
(382,338,qs),
(382,434,o),
(542,576,o),
(641,576,qs),
(675,576,o),
(758,561,o),
(771,561,qs),
(776,561,o),
(782,565,o),
(782,571,qs),
(782,589,o),
(709,632,o),
(635,632,qs),
(543,632,o),
(388,553,o),
(295,404,o),
(295,322,qs),
(295,206,o),
(434,77,o),
(533,77,qs),
(669,77,o),
(824,239,o),
(824,333,qs)
);
}
);
width = 1175;
}
);
note = u1F365;
unicode = 127845;
},
{
glyphname = u1F366;
lastChange = "2026-04-01 18:45:46 +0000";
layers = (
{
layerId = "8C7EE80F-D163-4204-B2B9-0AE0B1A3E0A1";
shapes = (
{
closed = 1;
nodes = (
(818,274,o),
(803,315,o),
(795,323,o),
(795,327,qs),
(795,329,o),
(813,389,o),
(813,405,qs),
(813,440,o),
(766,510,o),
(732,528,q),
(742,542,o),
(756,577,o),
(756,600,qs),
(756,641,o),
(706,714,o),
(669,724,q),
(674,736,o),
(679,762,o),
(679,776,qs),
(679,843,o),
(584,979,o),
(518,979,qs),
(495,979,o),
(478,966,o),
(478,958,qs),
(478,951,o),
(482,933,o),
(482,924,qs),
(482,884,o),
(416,821,o),
(259,792,o),
(152,690,o),
(152,630,qs),
(152,606,o),
(166,576,o),
(166,566,qs),
(166,560,o),
(141,540,o),
(105,481,o),
(105,435,qs),
(105,408,o),
(124,360,o),
(124,350,qs),
(124,343,o),
(100,283,o),
(100,247,qs),
(100,204,o),
(146,137,o),
(195,110,q),
(203,-7,l),
(204,-21,ls),
(205,-32,o),
(214,-44,o),
(223,-44,qs),
(240,-44,o),
(265,-52,o),
(268,-68,qs),
(272,-93,l),
(293,-235,ls),
(296,-259,o),
(301,-289,o),
(301,-292,q),
(302,-297,ls),
(304,-305,o),
(318,-316,o),
(329,-316,qs),
(379,-316,ls),
(410,-317,o),
(443,-317,qs),
(488,-317,ls),
(509,-316,o),
(527,-316,qs),
(576,-316,ls),
(588,-316,o),
(601,-307,o),
(604,-298,qs),
(605,-292,ls),
(606,-289,o),
(608,-274,qs),
(627,-135,ls),
(630,-111,o),
(633,-93,qs),
(637,-68,ls),
(639,-57,o),
(654,-44,o),
(680,-44,qs),
(691,-44,o),
(700,-30,o),
(702,-19,qs),
(703,-7,l),
(710,102,l),
(762,125,o),
(818,198,o),
(818,247,qs)
);
},
{
closed = 1;
nodes = (
(753,245,o),
(700,171,o),
(565,122,o),
(450,122,qs),
(309,122,o),
(174,197,o),
(174,262,qs),
(174,289,o),
(201,327,o),
(201,339,qs),
(201,350,o),
(170,400,o),
(170,425,qs),
(170,478,o),
(251,558,o),
(251,572,qs),
(251,577,o),
(223,609,o),
(223,635,qs),
(223,681,o),
(308,742,o),
(483,784,o),
(535,855,o),
(535,895,qs),
(535,899,o),
(534,907,o),
(533,911,q),
(538,912,ls),
(542,913,o),
(546,913,qs),
(559,913,o),
(584,891,o),
(594,875,qs),
(604,858,ls),
(622,828,o),
(622,793,qs),
(622,765,o),
(597,705,o),
(559,668,o),
(559,657,qs),
(559,650,o),
(569,645,o),
(575,645,qs),
(599,645,o),
(637,664,o),
(648,675,o),
(655,675,qs),
(669,675,o),
(697,629,o),
(697,604,qs),
(697,562,o),
(616,505,o),
(531,481,o),
(531,463,qs),
(531,455,o),
(557,448,o),
(571,448,qs),
(602,448,o),
(686,485,o),
(693,485,qs),
(707,485,o),
(749,439,o),
(749,412,qs),
(749,377,o),
(678,307,o),
(597,279,o),
(597,268,qs),
(597,263,o),
(615,257,o),
(631,256,qs),
(641,256,ls),
(671,256,o),
(731,285,o),
(737,285,qs),
(746,285,o),
(753,273,o),
(753,267,qs)
);
}
);
width = 918;
}
);
note = u1F366;
unicode = 127846;
},
{
glyphname = u1F367;
lastChange = "2026-04-01 18:45:46 +0000";
layers = (
{
layerId = "8C7EE80F-D163-4204-B2B9-0AE0B1A3E0A1";
shapes = (
{
closed = 1;
nodes = (
(1239,360,o),
(1198,403,o),
(1166,403,qs),
(1121,403,o),
(993,282,o),
(961,228,q),
(935,307,ls),
(918,357,o),
(896,440,o),
(887,491,qs),
(877,547,ls),
(856,657,o),
(780,769,o),
(647,833,o),
(578,833,qs),
(520,833,o),
(414,779,o),
(380,734,qs),
(343,686,ls),
(317,653,o),
(280,579,o),
(264,541,qs),
(231,466,ls),
(215,429,o),
(160,337,o),
(127,239,o),
(127,196,q),
(113,175,o),
(100,128,o),
(100,103,qs),
(100,21,o),
(227,-166,o),
(366,-202,q),
(356,-211,o),
(343,-234,o),
(343,-247,qs),
(343,-308,o),
(478,-365,o),
(575,-365,qs),
(665,-365,o),
(775,-296,o),
(775,-256,qs),
(775,-243,o),
(765,-219,o),
(757,-208,q),
(867,-171,o),
(1004,10,o),
(1004,88,qs),
(1004,111,o),
(998,134,q),
(1025,173,o),
(1121,265,o),
(1239,311,o),
(1239,340,qs)
);
},
{
closed = 1;
nodes = (
(201,268,o),
(260,376,o),
(283,424,o),
(289,424,qs),
(306,424,o),
(322,364,o),
(352,364,qs),
(374,364,o),
(423,413,o),
(443,413,qs),
(468,413,o),
(489,331,o),
(526,295,o),
(558,295,qs),
(572,295,o),
(597,305,o),
(606,317,qs),
(615,328,ls),
(619,334,o),
(630,342,o),
(637,342,qs),
(652,342,o),
(675,312,o),
(686,265,o),
(721,233,o),
(746,233,qs),
(767,233,o),
(806,260,o),
(812,319,o),
(831,334,o),
(855,334,q),
(858,326,o),
(906,213,o),
(906,173,qs),
(906,143,o),
(880,96,o),
(792,44,o),
(664,13,o),
(585,13,qs),
(411,13,o),
(201,120,o),
(201,222,qs)
);
},
{
closed = 1;
nodes = (
(702,-268,o),
(651,-303,o),
(567,-303,qs),
(516,-303,o),
(421,-276,o),
(421,-253,qs),
(421,-243,o),
(444,-221,o),
(455,-221,qs),
(456,-221,o),
(521,-234,o),
(610,-234,qs),
(622,-234,o),
(645,-234,o),
(657,-232,qs),
(667,-230,ls),
(673,-229,o),
(677,-229,qs),
(686,-229,o),
(702,-245,o),
(702,-253,qs)
);
},
{
closed = 1;
nodes = (
(842,-100,o),
(698,-168,o),
(593,-168,qs),
(505,-168,o),
(305,-125,o),
(196,-31,o),
(171,27,qs),
(164,41,ls),
(162,46,o),
(159,56,o),
(159,60,qs),
(159,69,o),
(167,69,qs),
(171,69,o),
(178,63,o),
(181,60,qs),
(188,52,ls),
(225,4,o),
(432,-59,o),
(576,-59,qs),
(688,-59,o),
(813,-28,o),
(899,22,o),
(921,47,o),
(924,48,qs),
(929,49,l),
(933,49,o),
(935,40,o),
(935,34,qs),
(935,23,o),
(922,-2,o),
(911,-15,qs),
(898,-31,ls)
);
}
);
width = 1339;
}
);
note = u1F367;
unicode = 127847;
},
{
glyphname = u1F368;
lastChange = "2026-04-01 18:45:46 +0000";
layers = (
{
layerId = "8C7EE80F-D163-4204-B2B9-0AE0B1A3E0A1";
shapes = (
{
closed = 1;
nodes = (
(1316,747,o),
(1187,868,o),
(1124,920,o),
(1099,923,q),
(1075,923,o),
(981,822,o),
(937,762,q),
(938,762,l),
(908,721,ls),
(893,700,o),
(862,665,o),
(841,631,o),
(826,617,q),
(782,638,o),
(684,661,o),
(632,661,qs),
(554,661,o),
(397,606,o),
(325,545,qs),
(321,542,ls),
(274,499,o),
(202,386,o),
(184,328,o),
(137,314,o),
(100,263,o),
(100,219,qs),
(100,161,o),
(152,21,o),
(254,-75,o),
(383,-131,o),
(423,-138,o),
(423,-147,qs),
(423,-150,o),
(419,-157,o),
(416,-161,qs),
(410,-168,ls),
(406,-175,o),
(397,-204,o),
(397,-218,qs),
(397,-282,o),
(536,-357,o),
(624,-357,qs),
(733,-357,o),
(863,-277,o),
(863,-218,qs),
(863,-188,o),
(836,-152,o),
(836,-146,qs),
(836,-138,o),
(876,-131,o),
(1006,-75,o),
(1110,24,o),
(1160,163,o),
(1160,219,qs),
(1160,241,o),
(1150,276,o),
(1133,301,o),
(1110,318,o),
(1078,329,o),
(1069,350,qs),
(1058,377,l),
(1058,380,o),
(1062,385,qs),
(1067,393,ls),
(1078,411,o),
(1107,439,o),
(1139,483,o),
(1160,508,qs),
(1201,557,l),
(1239,599,ls),
(1260,623,o),
(1283,658,o),
(1316,697,o),
(1316,712,qs)
);
},
{
closed = 1;
nodes = (
(1179,775,o),
(1193,760,q),
(1180,757,o),
(1158,755,o),
(1147,752,q),
(1143,767,o),
(1138,799,o),
(1132,814,q),
(1147,804,ls),
(1155,797,o)
);
},
{
closed = 1;
nodes = (
(1002,499,qs),
(1007,463,l),
(994,481,o),
(966,515,o),
(950,531,q),
(962,532,o),
(985,534,o),
(997,537,q),
(999,517,o)
);
},
{
closed = 1;
nodes = (
(1027,655,o),
(1026,673,q),
(1046,675,o),
(1085,683,o),
(1106,686,q),
(1108,669,o),
(1116,635,o),
(1118,618,q),
(1099,614,o),
(1061,606,o),
(1041,602,q),
(1037,620,o)
);
},
{
closed = 1;
nodes = (
(1092,760,o),
(1095,742,q),
(1077,737,o),
(1037,729,o),
(1017,727,q),
(1016,731,o),
(1013,740,o),
(1012,745,q),
(1031,767,o),
(1066,806,o),
(1085,825,q),
(1085,805,o)
);
},
{
closed = 1;
nodes = (
(967,667,o),
(971,668,q),
(974,647,o),
(982,610,o),
(986,589,q),
(964,587,o),
(921,579,o),
(900,574,q),
(886,584,l),
(901,604,o),
(916,624,qs),
(946,664,l),
(960,666,ls)
);
},
{
closed = 1;
nodes = (
(242,333,o),
(336,482,o),
(505,594,o),
(627,594,qs),
(795,594,o),
(1018,377,o),
(1018,270,qs),
(1018,225,o),
(958,178,o),
(762,150,o),
(626,150,qs),
(555,150,o),
(398,160,o),
(242,199,o),
(242,270,qs)
);
},
{
closed = 1;
nodes = (
(798,-248,o),
(694,-283,o),
(630,-283,qs),
(574,-283,o),
(462,-245,o),
(462,-218,qs),
(462,-193,o),
(509,-162,o),
(538,-162,qs),
(561,-162,o),
(606,-166,o),
(629,-166,qs),
(652,-166,o),
(698,-162,o),
(722,-162,qs),
(750,-162,o),
(798,-193,o),
(798,-218,qs)
);
},
{
closed = 1;
nodes = (
(742,81,o),
(924,106,o),
(1046,153,o),
(1072,175,o),
(1079,175,qs),
(1085,175,o),
(1089,169,o),
(1089,166,qs),
(1089,159,o),
(1057,74,o),
(951,-26,o),
(748,-94,o),
(625,-94,qs),
(513,-94,o),
(317,-31,o),
(208,68,o),
(170,158,o),
(170,165,qs),
(170,169,o),
(175,175,o),
(181,175,qs),
(184,175,o),
(195,169,o),
(201,165,qs),
(214,156,ls),
(230,145,o),
(350,103,o),
(492,81,o),
(640,81,qs)
);
},
{
closed = 1;
nodes = (
(1054,535,o),
(1052,547,q),
(1064,547,o),
(1092,555,o),
(1105,558,q),
(1081,529,ls),
(1069,515,o),
(1058,502,q),
(1056,513,o)
);
},
{
closed = 1;
nodes = (
(1160,679,o),
(1157,690,o),
(1157,697,q),
(1173,697,o),
(1207,705,o),
(1223,707,q),
(1221,691,o),
(1172,635,o),
(1171,634,q),
(1161,672,ls)
);
}
);
width = 1416;
}
);
note = u1F368;
unicode = 127848;
},
{
glyphname = u1F369;
lastChange = "2026-04-01 18:45:46 +0000";
layers = (
{
layerId = "8C7EE80F-D163-4204-B2B9-0AE0B1A3E0A1";
shapes = (
{
closed = 1;
nodes = (
(1330,253,o),
(1309,479,o),
(1198,635,o),
(1007,748,o),
(845,794,o),
(758,794,qs),
(603,794,o),
(321,677,o),
(100,399,o),
(100,217,qs),
(100,120,o),
(183,-91,o),
(357,-253,o),
(579,-322,o),
(708,-322,qs),
(878,-322,o),
(1107,-239,o),
(1269,-75,o),
(1330,78,o),
(1330,190,qs)
);
},
{
closed = 1;
nodes = (
(855,225,o),
(783,191,o),
(733,191,qs),
(690,191,o),
(625,227,o),
(625,257,qs),
(625,285,o),
(709,319,o),
(758,319,qs),
(799,319,o),
(855,282,o),
(855,254,qs)
);
},
{
closed = 1;
nodes = (
(830,374,o),
(756,374,qs),
(675,374,o),
(570,313,o),
(570,256,qs),
(570,246,o),
(574,227,o),
(578,219,q),
(575,223,o),
(517,302,o),
(517,340,qs),
(517,382,o),
(570,455,o),
(609,455,qs),
(631,455,o),
(697,419,o),
(723,419,qs),
(769,419,o),
(840,466,o),
(868,466,qs),
(909,466,o),
(967,397,o),
(967,355,qs),
(967,325,o),
(941,263,o),
(921,240,q),
(921,243,o),
(921,249,qs),
(921,295,o)
);
},
{
closed = 1;
nodes = (
(1099,-173,o),
(865,-255,o),
(730,-255,qs),
(645,-255,o),
(481,-222,o),
(337,-155,o),
(229,-35,o),
(167,128,o),
(163,186,q),
(210,111,o),
(340,105,o),
(382,65,o),
(388,-50,o),
(449,-124,o),
(501,-124,qs),
(521,-124,o),
(564,-108,o),
(637,-54,o),
(697,-39,o),
(713,-39,qs),
(745,-39,o),
(808,-93,o),
(861,-128,o),
(909,-128,qs),
(947,-128,o),
(1020,-96,o),
(1073,27,o),
(1130,27,qs),
(1145,27,o),
(1170,23,o),
(1183,23,qs),
(1199,23,o),
(1228,35,o),
(1245,53,q),
(1218,-33,o)
);
}
);
width = 1430;
}
);
note = u1F369;
unicode = 127849;
},
{
glyphname = u1F36A;
lastChange = "2026-04-01 18:45:46 +0000";
layers = (
{
layerId = "8C7EE80F-D163-4204-B2B9-0AE0B1A3E0A1";
shapes = (
{
closed = 1;
nodes = (
(1135,487,o),
(1006,724,o),
(777,823,o),
(627,823,qs),
(505,823,o),
(304,737,o),
(150,556,o),
(100,350,o),
(100,260,qs),
(100,175,o),
(157,18,o),
(265,-109,o),
(422,-197,o),
(617,-220,o),
(679,-220,qs),
(761,-220,o),
(873,-194,o),
(980,-122,o),
(1072,-52,o),
(1132,60,o),
(1157,177,o),
(1157,237,qs),
(1157,250,o),
(1157,262,q),
(1155,288,ls)
);
},
{
closed = 1;
nodes = (
(1090,168,o),
(1031,12,o),
(926,-78,o),
(786,-153,o),
(689,-153,qs),
(658,-153,o),
(599,-148,o),
(569,-145,q),
(594,-134,o),
(631,-102,o),
(631,-87,qs),
(631,-74,o),
(573,-19,o),
(555,-19,qs),
(534,-19,o),
(482,-57,o),
(482,-69,qs),
(482,-84,o),
(511,-122,o),
(537,-141,q),
(425,-125,o),
(271,-18,o),
(172,135,o),
(172,252,qs),
(172,320,o),
(192,456,o),
(252,571,o),
(339,674,o),
(457,732,o),
(590,757,o),
(657,757,qs),
(689,757,o),
(758,753,o),
(791,745,q),
(789,743,o),
(788,734,o),
(788,729,qs),
(787,707,ls),
(787,682,o),
(800,644,o),
(814,644,qs),
(820,644,o),
(833,648,o),
(841,652,qs),
(855,658,ls),
(864,662,o),
(884,668,o),
(909,683,o),
(921,688,q),
(1006,626,o),
(1090,352,o),
(1090,265,qs)
);
},
{
closed = 1;
nodes = (
(986,480,o),
(971,496,o),
(958,496,qs),
(932,496,o),
(889,482,o),
(889,472,qs),
(889,448,o),
(900,387,o),
(920,372,o),
(940,372,qs),
(976,372,o),
(1008,387,o),
(1008,402,qs),
(1007,422,o)
);
},
{
closed = 1;
nodes = (
(574,529,o),
(559,548,o),
(542,548,qs),
(532,548,o),
(456,531,o),
(436,522,o),
(435,481,qs),
(435,464,ls),
(435,437,o),
(446,417,o),
(461,417,qs),
(504,417,o),
(555,432,o),
(578,439,o),
(578,475,qs),
(578,486,o),
(574,508,o),
(574,518,qs)
);
},
{
closed = 1;
nodes = (
(371,223,o),
(338,227,o),
(322,227,qs),
(302,227,o),
(287,195,o),
(276,174,o),
(276,161,qs),
(276,143,o),
(314,125,o),
(345,125,qs),
(386,125,o),
(405,164,o),
(407,191,qs),
(407,198,o),
(398,218,o),
(390,220,qs),
(387,221,ls)
);
},
{
closed = 1;
nodes = (
(897,154,o),
(843,216,o),
(814,216,qs),
(794,216,o),
(765,190,o),
(729,160,o),
(729,146,qs),
(729,131,o),
(765,84,o),
(783,72,o),
(809,72,qs),
(822,71,ls),
(841,71,o),
(872,79,o),
(897,126,o),
(897,139,qs)
);
},
{
closed = 1;
nodes = (
(844,-62,o),
(825,-49,o),
(812,-49,qs),
(797,-49,o),
(768,-67,o),
(768,-80,qs),
(768,-90,o),
(794,-101,o),
(807,-101,qs),
(820,-101,o),
(844,-84,o),
(844,-71,qs)
);
},
{
closed = 1;
nodes = (
(902,34,o),
(892,19,o),
(892,14,qs),
(892,4,o),
(914,-7,o),
(928,-7,qs),
(939,-7,o),
(956,3,o),
(956,15,qs),
(956,24,o),
(933,34,o),
(917,34,qs)
);
},
{
closed = 1;
nodes = (
(1012,149,o),
(1007,149,qs),
(996,149,o),
(977,140,o),
(977,130,qs),
(977,122,o),
(996,108,o),
(1009,108,qs),
(1019,108,o),
(1037,118,o),
(1037,131,qs),
(1037,142,o),
(1024,146,qs),
(1016,148,ls)
);
},
{
closed = 1;
nodes = (
(659,65,o),
(649,76,o),
(635,76,qs),
(622,76,o),
(600,65,o),
(600,53,qs),
(600,43,o),
(619,29,o),
(633,29,qs),
(645,29,o),
(659,41,o),
(659,55,qs)
);
},
{
closed = 1;
nodes = (
(834,290,o),
(850,279,o),
(865,279,qs),
(875,279,o),
(893,287,o),
(893,300,qs),
(893,310,o),
(879,320,o),
(866,320,qs),
(855,320,o),
(834,310,o),
(834,300,qs)
);
},
{
closed = 1;
nodes = (
(1030,277,o),
(1017,289,o),
(1006,289,qs),
(993,289,o),
(970,274,o),
(970,261,qs),
(970,250,o),
(985,240,o),
(992,240,qs),
(1006,240,o),
(1030,259,o),
(1030,270,qs)
);
},
{
closed = 1;
nodes = (
(761,440,o),
(777,453,o),
(777,463,qs),
(777,470,o),
(765,482,o),
(754,482,qs),
(742,482,o),
(722,466,o),
(722,457,qs),
(722,449,o),
(737,440,o),
(748,440,qs)
);
}
);
width = 1257;
}
);
note = u1F36A;
unicode = 127850;
},
{
glyphname = u1F36B;
lastChange = "2026-04-01 18:45:46 +0000";
layers = (
{
layerId = "8C7EE80F-D163-4204-B2B9-0AE0B1A3E0A1";
shapes = (
{
closed = 1;
nodes = (
(880,849,o),
(866,849,qs),
(852,849,o),
(833,829,o),
(549,534,o),
(416,390,q),
(411,386,l),
(404,387,o),
(389,388,o),
(382,388,qs),
(355,388,o),
(303,336,o),
(246,286,o),
(216,242,o),
(138,155,o),
(116,123,qs),
(105,103,ls),
(100,96,o),
(100,86,qs),
(100,66,o),
(166,-13,o),
(260,-123,o),
(480,-319,o),
(523,-367,o),
(617,-435,o),
(636,-435,qs),
(663,-435,o),
(724,-372,o),
(747,-344,qs),
(756,-333,ls),
(761,-327,o),
(771,-317,o),
(773,-316,q),
(780,-318,o),
(796,-319,o),
(804,-319,qs),
(826,-319,o),
(857,-317,o),
(875,-315,qs),
(883,-313,ls),
(888,-312,o),
(893,-312,qs),
(910,-312,o),
(942,-343,o),
(959,-343,qs),
(969,-343,o),
(1003,-321,o),
(1031,-301,o),
(1053,-264,o),
(1053,-253,qs),
(1053,-244,o),
(1018,-181,o),
(1014,-173,q),
(982,-110,l),
(947,-42,l),
(968,-23,o),
(1069,89,o),
(1342,372,o),
(1345,387,o),
(1345,393,qs),
(1345,400,o),
(1340,414,o),
(1334,419,q),
(892,838,ls)
);
},
{
closed = 1;
nodes = (
(724,-285,o),
(687,-329,o),
(652,-364,o),
(629,-365,qs),
(612,-365,o),
(531,-301,o),
(496,-263,qs),
(462,-228,ls),
(436,-201,o),
(283,-60,o),
(173,67,o),
(173,91,qs),
(173,116,o),
(270,226,o),
(301,267,o),
(324,290,qs),
(332,298,ls),
(340,306,o),
(353,316,o),
(359,316,qs),
(382,316,o),
(400,168,o),
(403,119,q),
(408,83,ls),
(413,54,o),
(427,42,o),
(487,35,o),
(513,12,o),
(530,-48,o),
(542,-84,o),
(547,-116,o),
(564,-136,o),
(609,-143,o),
(677,-153,o),
(706,-174,o),
(708,-194,qs),
(715,-227,l),
(720,-252,ls),
(722,-260,o),
(724,-274,o),
(724,-275,qs)
);
},
{
closed = 1;
nodes = (
(882,-48,o),
(944,-184,o),
(985,-230,o),
(985,-243,qs),
(985,-252,o),
(962,-272,o),
(949,-272,qs),
(939,-272,o),
(915,-253,o),
(904,-253,qs),
(898,-253,o),
(852,-263,o),
(806,-263,qs),
(794,-263,o),
(781,-225,o),
(758,-161,o),
(752,-107,o),
(739,-107,q),
(735,-107,l),
(729,-107,o),
(685,-97,o),
(636,-97,q),
(613,-94,o),
(603,-90,o),
(594,-66,o),
(583,-11,o),
(573,37,o),
(553,64,o),
(521,78,o),
(493,84,qs),
(472,88,ls),
(464,89,o),
(455,143,o),
(454,177,qs),
(453,200,ls),
(453,216,o),
(444,274,o),
(434,291,q),
(431,299,ls),
(430,302,o),
(430,305,qs),
(430,311,o),
(436,311,qs),
(447,311,o),
(490,266,o),
(499,250,qs),
(523,205,ls),
(530,192,o),
(541,147,o),
(598,127,o),
(657,97,o),
(682,54,o),
(711,-8,o),
(735,-15,o),
(759,-15,qs),
(773,-15,l),
(821,-19,o)
);
},
{
closed = 1;
nodes = (
(1130,242,ls),
(1136,235,o),
(1136,226,qs),
(1136,217,o),
(1124,205,o),
(1115,205,qs),
(1106,205,o),
(1101,210,qs),
(1002,303,l),
(834,121,l),
(940,21,l),
(947,13,o),
(947,5,qs),
(947,-3,o),
(938,-13,o),
(930,-15,q),
(918,1,o),
(897,13,o),
(881,18,q),
(805,89,l),
(763,45,l),
(751,48,o),
(738,73,o),
(735,78,q),
(773,119,l),
(634,250,l),
(588,201,l),
(576,219,ls),
(570,229,o),
(564,239,q),
(603,281,l),
(510,368,ls),
(504,375,o),
(504,384,qs),
(504,392,o),
(517,405,o),
(525,405,qs),
(533,405,o),
(541,399,q),
(633,312,l),
(800,494,l),
(701,588,ls),
(697,591,o),
(694,599,o),
(694,603,qs),
(694,613,o),
(707,626,o),
(716,626,qs),
(724,626,o),
(730,620,qs),
(830,526,l),
(972,679,ls),
(979,686,o),
(988,686,qs),
(997,686,o),
(1010,673,o),
(1010,664,qs),
(1010,656,o),
(1004,649,qs),
(861,496,l),
(1001,364,l),
(1152,527,ls),
(1159,534,o),
(1168,534,qs),
(1177,534,o),
(1189,521,o),
(1189,513,qs),
(1189,505,o),
(1183,498,qs),
(1032,334,l)
);
},
{
closed = 1;
nodes = (
(803,150,l),
(971,333,l),
(832,464,l),
(663,282,l)
);
}
);
width = 1445;
}
);
note = u1F36B;
unicode = 127851;
},
{
glyphname = u1F36C;
lastChange = "2026-04-01 18:45:46 +0000";
layers = (
{
layerId = "8C7EE80F-D163-4204-B2B9-0AE0B1A3E0A1";
shapes = (
{
closed = 1;
nodes = (
(1431,518,o),
(1351,573,o),
(1328,594,o),
(1299,692,o),
(1259,704,qs),
(1234,712,ls),
(1190,725,o),
(1170,762,o),
(1134,852,o),
(1091,852,qs),
(1056,852,o),
(989,777,o),
(936,595,o),
(936,555,qs),
(936,541,o),
(928,522,o),
(918,522,qs),
(916,522,o),
(837,541,o),
(789,541,qs),
(618,541,o),
(439,345,o),
(439,209,qs),
(439,185,o),
(443,147,o),
(448,123,qs),
(450,112,ls),
(452,106,o),
(452,100,qs),
(452,91,o),
(438,85,o),
(428,85,qs),
(417,85,o),
(406,87,qs),
(388,90,l),
(350,92,ls),
(332,93,o),
(313,93,qs),
(195,92,o),
(100,23,o),
(100,-16,qs),
(100,-56,o),
(202,-123,o),
(202,-164,qs),
(202,-204,o),
(255,-247,o),
(313,-255,o),
(343,-270,o),
(392,-378,o),
(431,-410,o),
(452,-410,qs),
(503,-410,o),
(630,-198,o),
(635,-118,qs),
(635,-111,ls),
(635,-105,o),
(642,-96,o),
(650,-96,qs),
(657,-96,o),
(734,-117,o),
(798,-117,qs),
(905,-117,o),
(1037,-43,o),
(1124,104,o),
(1124,197,qs),
(1124,248,o),
(1102,328,qs),
(1102,331,l),
(1102,346,o),
(1213,354,o),
(1291,380,qs),
(1329,393,ls),
(1377,410,o),
(1431,461,o),
(1431,487,qs)
);
},
{
closed = 1;
nodes = (
(405,-74,o),
(386,-54,o),
(386,-42,qs),
(386,-17,o),
(444,12,o),
(488,12,qs),
(503,12,o),
(516,3,o),
(516,-3,qs),
(516,-20,o),
(434,-74,o),
(415,-74,qs)
);
},
{
closed = 1;
nodes = (
(565,-89,o),
(533,-150,o),
(513,-150,qs),
(502,-150,o),
(486,-131,o),
(486,-117,qs),
(486,-98,o),
(535,-42,o),
(544,-42,qs),
(555,-42,o),
(565,-58,o),
(565,-68,qs)
);
},
{
closed = 1;
nodes = (
(1070,525,o),
(1023,457,o),
(1003,457,qs),
(994,457,o),
(988,476,o),
(988,489,qs),
(988,539,o),
(1015,587,o),
(1036,587,qs),
(1049,587,o),
(1070,565,o),
(1070,547,qs)
);
},
{
closed = 1;
nodes = (
(1165,428,o),
(1109,406,o),
(1075,406,qs),
(1058,406,o),
(1044,415,o),
(1044,421,qs),
(1044,438,o),
(1115,483,o),
(1134,483,qs),
(1148,483,o),
(1165,466,o),
(1165,450,qs)
);
}
);
width = 1531;
}
);
note = u1F36C;
unicode = 127852;
},
{
glyphname = u1F36D;
lastChange = "2026-04-01 18:45:46 +0000";
layers = (
{
layerId = "8C7EE80F-D163-4204-B2B9-0AE0B1A3E0A1";
shapes = (
{
closed = 1;
nodes = (
(1317,512,o),
(1191,717,o),
(973,833,o),
(853,833,qs),
(754,833,o),
(577,747,o),
(474,591,o),
(474,495,qs),
(474,349,o),
(678,138,o),
(818,138,qs),
(946,138,o),
(1126,280,o),
(1126,402,qs),
(1126,466,o),
(1050,593,o),
(926,669,o),
(861,669,qs),
(776,669,o),
(668,569,o),
(668,487,qs),
(668,422,o),
(749,320,o),
(808,320,qs),
(847,320,o),
(910,363,o),
(910,395,qs),
(910,434,o),
(831,466,o),
(831,487,qs),
(831,498,o),
(848,513,o),
(867,513,qs),
(908,513,o),
(973,434,o),
(973,391,qs),
(973,334,o),
(883,259,o),
(822,259,qs),
(733,259,o),
(609,396,o),
(609,487,qs),
(609,598,o),
(746,721,o),
(867,721,qs),
(947,721,o),
(1094,627,o),
(1185,468,o),
(1185,387,qs),
(1185,305,o),
(1090,163,o),
(931,83,o),
(841,83,qs),
(772,83,o),
(708,106,qs),
(619,137,o),
(494,255,o),
(439,372,o),
(433,418,o),
(418,418,qs),
(404,418,o),
(386,373,o),
(386,346,qs),
(386,239,o),
(522,63,o),
(758,-41,o),
(874,-41,qs),
(1006,-41,o),
(1204,70,o),
(1317,277,o),
(1317,388,qs)
);
},
{
closed = 1;
nodes = (
(483,44,ls),
(479,47,o),
(474,47,qs),
(469,47,o),
(446,29,o),
(232,-169,qs),
(138,-256,ls),
(136,-258,o),
(100,-289,o),
(100,-311,qs),
(100,-336,o),
(131,-369,o),
(156,-369,qs),
(186,-369,o),
(236,-318,o),
(430,-115,o),
(478,-69,qs),
(507,-37,ls),
(514,-32,o),
(528,-17,o),
(528,-8,qs),
(528,-2,o),
(523,2,q),
(489,35,l)
);
}
);
width = 1417;
}
);
note = u1F36D;
unicode = 127853;
},
{
glyphname = u1F36E;
lastChange = "2026-04-01 18:45:46 +0000";
layers = (
{
layerId = "8C7EE80F-D163-4204-B2B9-0AE0B1A3E0A1";
shapes = (
{
closed = 1;
nodes = (
(1301,357,o),
(1201,403,q),
(1184,506,ls),
(1170,590,o),
(1086,706,o),
(964,764,o),
(829,793,o),
(763,793,qs),
(725,793,o),
(652,785,o),
(586,769,o),
(530,747,o),
(479,719,o),
(431,683,o),
(396,644,o),
(379,615,o),
(358,582,o),
(348,539,qs),
(334,486,l),
(321,433,ls),
(314,406,o),
(307,379,q),
(185,315,o),
(100,179,o),
(100,98,qs),
(100,-21,o),
(262,-194,o),
(564,-289,o),
(729,-289,qs),
(900,-289,o),
(1226,-196,o),
(1423,4,o),
(1423,132,q),
(1420,214,o)
);
},
{
closed = 1;
nodes = (
(830,417,o),
(975,461,o),
(1059,526,o),
(1073,547,o),
(1081,547,qs),
(1086,547,o),
(1091,535,o),
(1091,528,qs),
(1091,474,o),
(912,382,o),
(807,382,qs),
(758,382,o),
(698,393,o),
(698,403,qs),
(698,412,o),
(711,417,o),
(717,417,qs)
);
},
{
closed = 1;
nodes = (
(416,411,o),
(540,350,o),
(656,312,o),
(855,301,o),
(904,276,o),
(950,188,o),
(983,188,qs),
(1024,188,o),
(1037,300,o),
(1063,366,o),
(1087,396,qs),
(1112,427,ls),
(1124,441,o),
(1136,458,q),
(1150,394,o),
(1171,266,o),
(1171,200,qs),
(1171,120,o),
(1113,23,o),
(1018,-41,o),
(888,-75,o),
(798,-75,qs),
(693,-75,o),
(459,-16,o),
(326,99,o),
(326,177,qs),
(326,234,o),
(370,394,o),
(374,410,qs),
(385,454,l)
);
},
{
closed = 1;
nodes = (
(1348,39,o),
(1185,-130,o),
(892,-214,o),
(733,-214,qs),
(587,-214,o),
(318,-133,o),
(175,16,o),
(175,118,qs),
(175,167,o),
(220,261,o),
(271,299,q),
(281,306,ls),
(286,309,o),
(291,313,q),
(282,274,o),
(269,197,o),
(269,157,qs),
(270,149,o),
(270,141,qs),
(271,125,ls),
(278,44,o),
(421,-74,o),
(670,-139,o),
(780,-139,qs),
(916,-139,o),
(1104,-63,o),
(1235,67,o),
(1235,182,qs),
(1235,221,o),
(1223,301,o),
(1215,339,q),
(1283,295,o),
(1348,190,o),
(1348,133,qs)
);
}
);
width = 1523;
}
);
note = u1F36E;
unicode = 127854;
},
{
glyphname = u1F36F;
lastChange = "2026-04-01 18:45:46 +0000";
layers = (
{
layerId = "8C7EE80F-D163-4204-B2B9-0AE0B1A3E0A1";
shapes = (
{
closed = 1;
nodes = (
(1187,236,o),
(1129,423,o),
(1089,488,qs),
(1077,508,l),
(1102,529,o),
(1131,588,o),
(1131,621,qs),
(1131,709,o),
(983,833,o),
(770,897,o),
(633,897,qs),
(555,897,o),
(402,858,o),
(269,782,o),
(180,670,o),
(180,610,qs),
(180,583,o),
(196,523,o),
(209,507,q),
(168,446,o),
(100,243,o),
(100,136,qs),
(100,1,o),
(215,-228,o),
(469,-359,o),
(644,-359,qs),
(804,-359,o),
(1057,-242,o),
(1187,-20,o),
(1187,136,qs)
);
},
{
closed = 1;
nodes = (
(263,463,qs),
(277,458,ls),
(290,454,o),
(315,444,o),
(329,444,qs),
(341,444,o),
(360,453,o),
(360,461,qs),
(360,475,o),
(289,512,o),
(246,571,o),
(246,604,qs),
(246,659,o),
(357,775,o),
(557,831,o),
(661,831,qs),
(752,831,o),
(970,770,o),
(1056,670,o),
(1056,625,qs),
(1056,589,o),
(1006,515,o),
(955,478,o),
(955,464,qs),
(955,457,o),
(969,448,o),
(975,448,qs),
(983,448,o),
(1003,457,o),
(1018,465,qs),
(1030,473,l),
(1036,472,l),
(1055,444,o),
(1096,352,o),
(1109,305,q),
(1098,299,o),
(1073,295,o),
(1061,295,qs),
(1034,295,o),
(982,304,o),
(959,304,qs),
(910,304,o),
(862,248,o),
(862,175,qs),
(862,155,o),
(863,112,o),
(863,91,qs),
(863,32,o),
(823,-34,o),
(786,-34,qs),
(747,-34,o),
(708,22,o),
(708,112,qs),
(708,173,o),
(671,231,o),
(636,231,qs),
(609,231,o),
(516,202,o),
(495,202,qs),
(466,202,o),
(417,234,o),
(377,324,o),
(258,331,o),
(215,357,o),
(204,381,q),
(226,426,ls),
(236,448,o),
(250,470,q),
(256,465,o)
);
},
{
closed = 1;
nodes = (
(392,580,o),
(554,522,o),
(660,522,qs),
(768,522,o),
(890,590,o),
(890,644,qs),
(890,683,o),
(814,739,o),
(686,766,o),
(642,766,qs),
(533,766,o),
(392,698,o),
(392,635,qs)
);
},
{
closed = 1;
nodes = (
(595,663,o),
(648,663,qs),
(714,663,o),
(807,638,o),
(807,617,qs),
(807,602,o),
(729,585,o),
(667,583,qs),
(650,582,ls),
(595,582,o),
(518,600,o),
(491,617,q),
(491,635,o)
);
}
);
width = 1287;
}
);
note = u1F36F;
unicode = 127855;
},
{
glyphname = u1F370;
lastChange = "2026-04-01 18:45:46 +0000";
layers = (
{
layerId = "8C7EE80F-D163-4204-B2B9-0AE0B1A3E0A1";
shapes = (
{
closed = 1;
nodes = (
(1240,143,o),
(1239,157,o),
(1239,164,qs),
(1239,168,o),
(1240,175,o),
(1240,178,qs),
(1240,265,o),
(1219,374,o),
(1173,461,o),
(1110,528,qs),
(1059,580,ls),
(1034,605,o),
(1006,630,q),
(994,718,o),
(890,897,o),
(805,897,qs),
(716,897,o),
(543,729,o),
(512,634,q),
(369,527,o),
(184,306,o),
(100,131,o),
(100,-16,qs),
(100,-138,o),
(119,-260,o),
(201,-318,o),
(284,-320,qs),
(333,-321,ls),
(346,-322,o),
(371,-322,qs),
(529,-322,o),
(788,-268,o),
(1090,-163,o),
(1181,-89,q),
(1193,-78,ls),
(1217,-57,o),
(1240,28,o),
(1240,98,qs),
(1240,118,l),
(1240,136,ls)
);
},
{
closed = 1;
nodes = (
(904,479,o),
(883,446,o),
(866,446,qs),
(856,446,o),
(841,458,o),
(841,471,qs),
(841,489,o),
(875,537,o),
(891,537,qs),
(896,537,o),
(904,521,o),
(904,510,qs),
(904,501,ls)
);
},
{
closed = 1;
nodes = (
(843,724,o),
(851,724,qs),
(856,724,o),
(869,714,o),
(874,708,qs),
(878,702,ls),
(885,693,o),
(894,672,o),
(894,660,qs),
(894,648,o),
(876,630,o),
(865,630,qs),
(854,630,o),
(834,658,o),
(834,683,qs),
(835,694,ls),
(835,705,o)
);
},
{
closed = 1;
nodes = (
(770,603,o),
(782,571,o),
(782,554,qs),
(782,537,o),
(766,508,o),
(753,508,qs),
(740,508,o),
(723,527,o),
(723,542,qs),
(723,557,o),
(747,603,o),
(761,603,qs)
);
},
{
closed = 1;
nodes = (
(716,766,o),
(727,772,o),
(732,772,qs),
(738,772,o),
(745,762,o),
(745,755,qs),
(745,748,ls),
(745,722,o),
(723,682,o),
(707,682,qs),
(696,682,o),
(680,700,o),
(680,713,qs),
(680,724,o),
(695,748,o),
(703,755,qs),
(708,760,ls)
);
},
{
closed = 1;
nodes = (
(580,561,o),
(597,601,o),
(607,601,qs),
(617,601,o),
(636,557,o),
(636,542,qs),
(636,524,o),
(623,505,o),
(611,505,qs),
(597,505,o),
(580,526,o),
(580,545,qs)
);
},
{
closed = 1;
nodes = (
(192,194,o),
(207,234,o),
(244,274,o),
(250,283,qs),
(266,305,ls),
(284,330,o),
(405,458,o),
(500,538,q),
(500,450,o),
(662,343,o),
(758,343,qs),
(868,343,o),
(998,441,o),
(1008,538,q),
(1062,483,o),
(1117,406,o),
(1117,379,qs),
(1117,362,o),
(1094,339,o),
(1078,332,qs),
(1058,324,ls),
(895,259,o),
(645,191,o),
(293,157,o),
(275,157,qs),
(242,157,o),
(192,172,o),
(192,188,qs)
);
},
{
closed = 1;
nodes = (
(160,-108,o),
(160,-84,qs),
(160,-57,o),
(171,-46,o),
(202,-46,qs),
(211,-46,ls),
(245,-49,o),
(266,-85,o),
(330,-128,o),
(369,-128,qs),
(398,-128,o),
(456,-101,o),
(500,-40,o),
(529,-19,o),
(550,-17,o),
(748,16,o),
(942,72,o),
(987,92,o),
(1000,92,qs),
(1013,92,o),
(1036,78,o),
(1048,73,qs),
(1065,68,ls),
(1073,65,o),
(1082,64,q),
(1103,64,ls),
(1109,63,o),
(1118,61,q),
(1118,59,o),
(1109,52,o),
(1103,49,qs),
(1091,42,l),
(1082,37,ls),
(1026,4,o),
(918,-38,o),
(910,-45,o),
(902,-45,qs),
(892,-45,o),
(883,-40,qs),
(864,-32,ls),
(837,-20,o),
(781,-6,o),
(754,-6,qs),
(712,-6,o),
(649,-44,o),
(616,-115,o),
(598,-117,qs),
(583,-120,ls),
(518,-129,o),
(389,-142,o),
(322,-142,qs),
(300,-142,o),
(257,-139,o),
(236,-139,qs),
(211,-139,ls),
(184,-139,o)
);
},
{
closed = 1;
nodes = (
(573,-258,o),
(350,-258,qs),
(276,-258,o),
(205,-239,o),
(175,-204,o),
(175,-194,qs),
(175,-186,o),
(188,-180,o),
(196,-180,qs),
(212,-180,o),
(248,-185,o),
(265,-185,qs),
(292,-186,ls),
(305,-187,o),
(319,-187,qs),
(476,-187,o),
(874,-106,o),
(1080,-15,o),
(1141,25,o),
(1155,28,q),
(1158,28,o),
(1159,27,o),
(1159,23,qs),
(1158,20,o),
(1158,16,q),
(1156,7,ls),
(1134,-81,o)
);
},
{
closed = 1;
nodes = (
(1172,221,o),
(1082,163,o),
(922,105,o),
(697,50,o),
(553,16,o),
(375,-7,o),
(281,-7,qs),
(269,-7,o),
(247,-6,o),
(234,-6,qs),
(227,-6,o),
(206,-8,o),
(195,-8,qs),
(179,-8,o),
(157,4,o),
(157,21,q),
(161,57,ls),
(165,87,o),
(188,102,o),
(209,102,qs),
(233,102,o),
(267,99,o),
(286,99,qs),
(485,99,o),
(845,161,o),
(1100,258,o),
(1142,295,o),
(1151,295,qs),
(1161,295,o),
(1172,256,o),
(1172,236,qs)
);
}
);
width = 1340;
}
);
note = u1F370;
unicode = 127856;
},
